<svg width="45" height="52" viewBox="0 0 45 52" fill="none" xmlns="http://www.w3.org/2000/svg">
<path fill-rule="evenodd" clip-rule="evenodd" d="M15.5 18H29.5C31.1569 18 32.5 16.6569 32.5 15V12.7082C32.5 12.2425 32.3916 11.7831 32.1833 11.3666L30.3292 7.65836C29.821 6.64201 28.7822 6 27.6459 6H26.3293C25.9175 4.83481 24.8062 4 23.5 4H15.5C13.8431 4 12.5 5.34315 12.5 7V15C12.5 16.6569 13.8431 18 15.5 18ZM23.5 6H15.5C14.9477 6 14.5 6.44772 14.5 7V15C14.5 15.5523 14.9477 16 15.5 16H24.5V7C24.5 6.44772 24.0523 6 23.5 6ZM26.5 12V16H29.5C30.0523 16 30.5 15.5523 30.5 15V12.7082C30.5 12.553 30.4639 12.3998 30.3944 12.261L30.2639 12H26.5ZM29.2639 10H26.5V8H27.6459C28.0247 8 28.3709 8.214 28.5403 8.55279L29.2639 10Z" fill="#4196FD"/>
<path fill-rule="evenodd" clip-rule="evenodd" d="M17.5 20C18.6046 20 19.5 19.1046 19.5 18C19.5 16.8954 18.6046 16 17.5 16C16.3954 16 15.5 16.8954 15.5 18C15.5 19.1046 16.3954 20 17.5 20Z" fill="#4196FD"/>
<path fill-rule="evenodd" clip-rule="evenodd" d="M28.5 20C29.6046 20 30.5 19.1046 30.5 18C30.5 16.8954 29.6046 16 28.5 16C27.3954 16 26.5 16.8954 26.5 18C26.5 19.1046 27.3954 20 28.5 20Z" fill="#4196FD"/>
<path d="M6.22667 41.1733C5.69333 41.7422 5.02667 42.1956 4.22667 42.5333C3.42667 42.8622 2.60444 43.0356 1.76 43.0533V42C2.39111 41.9733 3.01778 41.8311 3.64 41.5733C4.27111 41.3067 4.80889 40.9467 5.25333 40.4933C5.69778 40.04 5.97778 39.5289 6.09333 38.96L7.29333 39.1733C7.21333 39.5911 7.06667 39.9733 6.85333 40.32L10.8933 42.12L10.4533 43.08L6.22667 41.1733ZM11.1467 44.88H1.41333V43.8667H11.1467V44.88ZM6.28 45.7467C7.58667 45.7467 8.62667 45.8933 9.4 46.1867C10.1822 46.4711 10.5733 46.9422 10.5733 47.6C10.5733 48.2667 10.1822 48.7467 9.4 49.04C8.61778 49.3333 7.57778 49.48 6.28 49.48C4.99111 49.48 3.95111 49.3333 3.16 49.04C2.37778 48.7467 1.98667 48.2667 1.98667 47.6C1.98667 46.9422 2.37778 46.4711 3.16 46.1867C3.94222 45.8933 4.98222 45.7467 6.28 45.7467ZM6.28 48.4933C7.16 48.4933 7.88 48.4222 8.44 48.28C9.00889 48.1378 9.29333 47.9111 9.29333 47.6C9.29333 47.2889 9.00889 47.0667 8.44 46.9333C7.88 46.8 7.16 46.7333 6.28 46.7333C5.4 46.7333 4.67556 46.8 4.10667 46.9333C3.53778 47.0667 3.25333 47.2889 3.25333 47.6C3.25333 47.9111 3.53778 48.1378 4.10667 48.28C4.67556 48.4222 5.4 48.4933 6.28 48.4933ZM16.0519 41.9333C16.0164 42.7511 15.9275 43.5111 15.7853 44.2133L18.8386 48.0133L17.9586 48.84L15.3853 45.5867C15.0475 46.5467 14.5941 47.3111 14.0253 47.88C13.4564 48.44 12.8119 48.7644 12.0919 48.8533V47.6133C12.6253 47.5156 13.0875 47.2133 13.4786 46.7067C13.8786 46.2 14.1941 45.5333 14.4253 44.7067C14.6564 43.88 14.7941 42.9556 14.8386 41.9333H12.2653V40.76H14.8386V39.1867H16.0653V40.76H18.5053V41.9333H16.0519ZM20.8253 44.5333V49.4533H19.6253V39.2133H20.8253V43.32H22.1719V44.5333H20.8253ZM23.1705 40.3733V39.32H31.5705V42.7867H30.3572V40.3733H23.1705ZM32.2639 44.5333H22.5305V43.4933H26.1439V41.5333H27.3572V43.4933H32.2639V44.5333ZM27.3972 45.4533C28.6683 45.4533 29.6994 45.6178 30.4905 45.9467C31.2905 46.2667 31.6905 46.7689 31.6905 47.4533C31.6905 48.1378 31.295 48.6444 30.5039 48.9733C29.7127 49.3022 28.6772 49.4667 27.3972 49.4667C26.1261 49.4667 25.0905 49.3022 24.2905 48.9733C23.4994 48.6444 23.1039 48.1378 23.1039 47.4533C23.1039 46.76 23.4994 46.2533 24.2905 45.9333C25.0816 45.6133 26.1172 45.4533 27.3972 45.4533ZM27.3972 48.4667C28.2505 48.4667 28.9661 48.3822 29.5439 48.2133C30.1305 48.0356 30.4239 47.7822 30.4239 47.4533C30.4239 47.1333 30.1305 46.8889 29.5439 46.72C28.9572 46.5422 28.2416 46.4533 27.3972 46.4533C26.535 46.4533 25.815 46.5378 25.2372 46.7067C24.6594 46.8667 24.3705 47.1156 24.3705 47.4533C24.3705 47.7822 24.6594 48.0356 25.2372 48.2133C25.8239 48.3822 26.5439 48.4667 27.3972 48.4667ZM37.9558 44.72C37.0847 44.72 36.3202 44.6133 35.6624 44.4C35.0136 44.1867 34.5069 43.8756 34.1424 43.4667C33.7869 43.0578 33.6091 42.5689 33.6091 42C33.6091 41.4311 33.7869 40.9467 34.1424 40.5467C34.5069 40.1378 35.0136 39.8267 35.6624 39.6133C36.3202 39.4 37.0847 39.2933 37.9558 39.2933C38.8269 39.2933 39.5869 39.4 40.2358 39.6133C40.8936 39.8267 41.4002 40.1378 41.7558 40.5467C42.1202 40.9467 42.3024 41.4311 42.3024 42C42.3024 42.5689 42.1202 43.0578 41.7558 43.4667C41.4002 43.8756 40.8936 44.1867 40.2358 44.4C39.5869 44.6133 38.8269 44.72 37.9558 44.72ZM37.9558 40.4133C37.0313 40.4133 36.2847 40.5556 35.7158 40.84C35.1558 41.1156 34.8758 41.5022 34.8758 42C34.8758 42.4978 35.1558 42.8889 35.7158 43.1733C36.2847 43.4489 37.0313 43.5867 37.9558 43.5867C38.8802 43.5867 39.6224 43.4489 40.1824 43.1733C40.7513 42.8889 41.0358 42.4978 41.0358 42C41.0358 41.5022 40.7513 41.1156 40.1824 40.84C39.6224 40.5556 38.8802 40.4133 37.9558 40.4133ZM40.4624 46.8267V49.6933H39.2624V46.8267H36.6491V49.6933H35.4491V46.8267H33.0891V45.6533H42.8224V46.8267H40.4624Z" fill="#4196FD"/>
</svg>
