<svg width="45" height="37" viewBox="0 0 45 37" fill="none" xmlns="http://www.w3.org/2000/svg">
<g filter="url(#filter0_i_170_3879)">
<ellipse cx="37.0999" cy="12" rx="4.01633" ry="4" fill="#F3F3F3" fill-opacity="0.7"/>
</g>
<path d="M40.6163 12C40.6163 13.9311 39.0439 15.5 37.0999 15.5C35.156 15.5 33.5836 13.9311 33.5836 12C33.5836 10.0689 35.156 8.5 37.0999 8.5C39.0439 8.5 40.6163 10.0689 40.6163 12Z" stroke="#D9D6D6" stroke-opacity="0.7"/>
<g filter="url(#filter1_d_170_3879)">
<ellipse cx="30.0714" cy="14" rx="3.01224" ry="3" fill="#BABABA"/>
<path d="M32.8337 14C32.8337 15.5178 31.598 16.75 30.0714 16.75C28.5449 16.75 27.3092 15.5178 27.3092 14C27.3092 12.4822 28.5449 11.25 30.0714 11.25C31.598 11.25 32.8337 12.4822 32.8337 14Z" stroke="#E2E2E2" stroke-width="0.5"/>
</g>
<g filter="url(#filter2_d_170_3879)">
<ellipse cx="35.0918" cy="12" rx="3.01224" ry="3" fill="#BABABA"/>
<path d="M37.8541 12C37.8541 13.5178 36.6183 14.75 35.0918 14.75C33.5653 14.75 32.3296 13.5178 32.3296 12C32.3296 10.4822 33.5653 9.25 35.0918 9.25C36.6183 9.25 37.8541 10.4822 37.8541 12Z" stroke="#E2E2E2" stroke-width="0.5"/>
</g>
<g filter="url(#filter3_d_170_3879)">
<ellipse cx="30.0714" cy="11" rx="3.01224" ry="3" fill="#BABABA"/>
<path d="M32.8337 11C32.8337 12.5178 31.598 13.75 30.0714 13.75C28.5449 13.75 27.3092 12.5178 27.3092 11C27.3092 9.48218 28.5449 8.25 30.0714 8.25C31.598 8.25 32.8337 9.48218 32.8337 11Z" stroke="#E2E2E2" stroke-width="0.5"/>
</g>
<g filter="url(#filter4_d_170_3879)">
<ellipse cx="9.98978" cy="19" rx="3.01224" ry="3" fill="#BABABA"/>
<path d="M12.752 19C12.752 20.5178 11.5163 21.75 9.98978 21.75C8.46328 21.75 7.22754 20.5178 7.22754 19C7.22754 17.4822 8.46328 16.25 9.98978 16.25C11.5163 16.25 12.752 17.4822 12.752 19Z" stroke="#E2E2E2" stroke-width="0.5"/>
</g>
<g filter="url(#filter5_d_170_3879)">
<ellipse cx="15.0102" cy="16" rx="3.01224" ry="3" fill="#BABABA"/>
<path d="M17.7724 16C17.7724 17.5178 16.5367 18.75 15.0102 18.75C13.4837 18.75 12.2479 17.5178 12.2479 16C12.2479 14.4822 13.4837 13.25 15.0102 13.25C16.5367 13.25 17.7724 14.4822 17.7724 16Z" stroke="#E2E2E2" stroke-width="0.5"/>
</g>
<g filter="url(#filter6_d_170_3879)">
<ellipse cx="3.01195" cy="3.00029" rx="3.01195" ry="3.00029" transform="matrix(0.988021 -0.154321 0.155553 0.987828 8.98572 25.9297)" fill="#BABABA"/>
<path d="M15.1572 28.0024C15.3933 29.502 14.3641 30.9099 12.8561 31.1455C11.3481 31.381 9.93556 30.3544 9.69943 28.8549C9.46329 27.3553 10.4925 25.9474 12.0005 25.7118C13.5085 25.4763 14.921 26.5029 15.1572 28.0024Z" stroke="#E2E2E2" stroke-width="0.5"/>
</g>
<g filter="url(#filter7_d_170_3879)">
<ellipse cx="3.01195" cy="3.00029" rx="3.01195" ry="3.00029" transform="matrix(0.988021 -0.154321 0.155553 0.987828 8.98572 25.9297)" fill="#BABABA"/>
<path d="M15.1572 28.0024C15.3933 29.502 14.3641 30.9099 12.8561 31.1455C11.3481 31.381 9.93556 30.3544 9.69943 28.8549C9.46329 27.3553 10.4925 25.9474 12.0005 25.7118C13.5085 25.4763 14.921 26.5029 15.1572 28.0024Z" stroke="#E2E2E2" stroke-width="0.5"/>
</g>
<g filter="url(#filter8_d_170_3879)">
<ellipse cx="3.01195" cy="3.00029" rx="3.01195" ry="3.00029" transform="matrix(0.988021 -0.154321 0.155553 0.987828 8.98572 25.9297)" fill="#BABABA"/>
<path d="M15.1572 28.0024C15.3933 29.502 14.3641 30.9099 12.8561 31.1455C11.3481 31.381 9.93556 30.3544 9.69943 28.8549C9.46329 27.3553 10.4925 25.9474 12.0005 25.7118C13.5085 25.4763 14.921 26.5029 15.1572 28.0024Z" stroke="#E2E2E2" stroke-width="0.5"/>
</g>
<g filter="url(#filter9_d_170_3879)">
<ellipse cx="3.01195" cy="3.00029" rx="3.01195" ry="3.00029" transform="matrix(0.988021 -0.154321 0.155553 0.987828 13.0021 20.9297)" fill="#BABABA"/>
<path d="M19.1735 23.0024C19.4097 24.502 18.3805 25.9099 16.8725 26.1455C15.3645 26.381 13.9519 25.3544 13.7158 23.8549C13.4797 22.3553 14.5088 20.9474 16.0168 20.7118C17.5248 20.4763 18.9374 21.5029 19.1735 23.0024Z" stroke="#E2E2E2" stroke-width="0.5"/>
</g>
<g filter="url(#filter10_d_170_3879)">
<ellipse cx="3.01195" cy="3.00029" rx="3.01195" ry="3.00029" transform="matrix(0.988021 -0.154321 0.155553 0.987828 17.0183 16.9297)" fill="#BABABA"/>
<path d="M23.1898 19.0024C23.4259 20.502 22.3967 21.9099 20.8887 22.1455C19.3807 22.381 17.9682 21.3544 17.732 19.8549C17.4959 18.3553 18.5251 16.9474 20.0331 16.7118C21.5411 16.4763 22.9536 17.5029 23.1898 19.0024Z" stroke="#E2E2E2" stroke-width="0.5"/>
</g>
<g filter="url(#filter11_d_170_3879)">
<ellipse cx="3.01195" cy="3.00029" rx="3.01195" ry="3.00029" transform="matrix(0.988021 -0.154321 0.155553 0.987828 22.0345 13.9297)" fill="#BABABA"/>
<path d="M28.206 16.0024C28.4421 17.502 27.413 18.9099 25.9049 19.1455C24.3969 19.381 22.9844 18.3544 22.7483 16.8549C22.5121 15.3553 23.5413 13.9474 25.0493 13.7118C26.5573 13.4763 27.9699 14.5029 28.206 16.0024Z" stroke="#E2E2E2" stroke-width="0.5"/>
</g>
<g filter="url(#filter12_d_170_3879)">
<ellipse cx="25.0511" cy="12" rx="3.01224" ry="3" fill="#BABABA"/>
<path d="M27.8133 12C27.8133 13.5178 26.5776 14.75 25.0511 14.75C23.5246 14.75 22.2888 13.5178 22.2888 12C22.2888 10.4822 23.5246 9.25 25.0511 9.25C26.5776 9.25 27.8133 10.4822 27.8133 12Z" stroke="#E2E2E2" stroke-width="0.5"/>
</g>
<g filter="url(#filter13_d_170_3879)">
<ellipse cx="20.0306" cy="14" rx="3.01224" ry="3" fill="#BABABA"/>
<path d="M22.7928 14C22.7928 15.5178 21.5571 16.75 20.0306 16.75C18.504 16.75 17.2683 15.5178 17.2683 14C17.2683 12.4822 18.504 11.25 20.0306 11.25C21.5571 11.25 22.7928 12.4822 22.7928 14Z" stroke="#E2E2E2" stroke-width="0.5"/>
</g>
<defs>
<filter id="filter0_i_170_3879" x="33.0836" y="7" width="8.03259" height="9" filterUnits="userSpaceOnUse" color-interpolation-filters="sRGB">
<feFlood flood-opacity="0" result="BackgroundImageFix"/>
<feBlend mode="normal" in="SourceGraphic" in2="BackgroundImageFix" result="shape"/>
<feColorMatrix in="SourceAlpha" type="matrix" values="0 0 0 0 0 0 0 0 0 0 0 0 0 0 0 0 0 0 127 0" result="hardAlpha"/>
<feOffset dy="-1"/>
<feGaussianBlur stdDeviation="3.15"/>
<feComposite in2="hardAlpha" operator="arithmetic" k2="-1" k3="1"/>
<feColorMatrix type="matrix" values="0 0 0 0 0 0 0 0 0 0 0 0 0 0 0 0 0 0 0.15 0"/>
<feBlend mode="normal" in2="shape" result="effect1_innerShadow_170_3879"/>
</filter>
<filter id="filter1_d_170_3879" x="20.7592" y="3.7" width="18.6245" height="18.6" filterUnits="userSpaceOnUse" color-interpolation-filters="sRGB">
<feFlood flood-opacity="0" result="BackgroundImageFix"/>
<feColorMatrix in="SourceAlpha" type="matrix" values="0 0 0 0 0 0 0 0 0 0 0 0 0 0 0 0 0 0 127 0" result="hardAlpha"/>
<feOffset dy="-1"/>
<feGaussianBlur stdDeviation="3.15"/>
<feComposite in2="hardAlpha" operator="out"/>
<feColorMatrix type="matrix" values="0 0 0 0 0 0 0 0 0 0 0 0 0 0 0 0 0 0 0.15 0"/>
<feBlend mode="normal" in2="BackgroundImageFix" result="effect1_dropShadow_170_3879"/>
<feBlend mode="normal" in="SourceGraphic" in2="effect1_dropShadow_170_3879" result="shape"/>
</filter>
<filter id="filter2_d_170_3879" x="25.7796" y="1.7" width="18.6245" height="18.6" filterUnits="userSpaceOnUse" color-interpolation-filters="sRGB">
<feFlood flood-opacity="0" result="BackgroundImageFix"/>
<feColorMatrix in="SourceAlpha" type="matrix" values="0 0 0 0 0 0 0 0 0 0 0 0 0 0 0 0 0 0 127 0" result="hardAlpha"/>
<feOffset dy="-1"/>
<feGaussianBlur stdDeviation="3.15"/>
<feComposite in2="hardAlpha" operator="out"/>
<feColorMatrix type="matrix" values="0 0 0 0 0 0 0 0 0 0 0 0 0 0 0 0 0 0 0.15 0"/>
<feBlend mode="normal" in2="BackgroundImageFix" result="effect1_dropShadow_170_3879"/>
<feBlend mode="normal" in="SourceGraphic" in2="effect1_dropShadow_170_3879" result="shape"/>
</filter>
<filter id="filter3_d_170_3879" x="20.7592" y="0.7" width="18.6245" height="18.6" filterUnits="userSpaceOnUse" color-interpolation-filters="sRGB">
<feFlood flood-opacity="0" result="BackgroundImageFix"/>
<feColorMatrix in="SourceAlpha" type="matrix" values="0 0 0 0 0 0 0 0 0 0 0 0 0 0 0 0 0 0 127 0" result="hardAlpha"/>
<feOffset dy="-1"/>
<feGaussianBlur stdDeviation="3.15"/>
<feComposite in2="hardAlpha" operator="out"/>
<feColorMatrix type="matrix" values="0 0 0 0 0 0 0 0 0 0 0 0 0 0 0 0 0 0 0.15 0"/>
<feBlend mode="normal" in2="BackgroundImageFix" result="effect1_dropShadow_170_3879"/>
<feBlend mode="normal" in="SourceGraphic" in2="effect1_dropShadow_170_3879" result="shape"/>
</filter>
<filter id="filter4_d_170_3879" x="0.677539" y="8.7" width="18.6245" height="18.6" filterUnits="userSpaceOnUse" color-interpolation-filters="sRGB">
<feFlood flood-opacity="0" result="BackgroundImageFix"/>
<feColorMatrix in="SourceAlpha" type="matrix" values="0 0 0 0 0 0 0 0 0 0 0 0 0 0 0 0 0 0 127 0" result="hardAlpha"/>
<feOffset dy="-1"/>
<feGaussianBlur stdDeviation="3.15"/>
<feComposite in2="hardAlpha" operator="out"/>
<feColorMatrix type="matrix" values="0 0 0 0 0 0 0 0 0 0 0 0 0 0 0 0 0 0 0.15 0"/>
<feBlend mode="normal" in2="BackgroundImageFix" result="effect1_dropShadow_170_3879"/>
<feBlend mode="normal" in="SourceGraphic" in2="effect1_dropShadow_170_3879" result="shape"/>
</filter>
<filter id="filter5_d_170_3879" x="5.69792" y="5.7" width="18.6245" height="18.6" filterUnits="userSpaceOnUse" color-interpolation-filters="sRGB">
<feFlood flood-opacity="0" result="BackgroundImageFix"/>
<feColorMatrix in="SourceAlpha" type="matrix" values="0 0 0 0 0 0 0 0 0 0 0 0 0 0 0 0 0 0 127 0" result="hardAlpha"/>
<feOffset dy="-1"/>
<feGaussianBlur stdDeviation="3.15"/>
<feComposite in2="hardAlpha" operator="out"/>
<feColorMatrix type="matrix" values="0 0 0 0 0 0 0 0 0 0 0 0 0 0 0 0 0 0 0.15 0"/>
<feBlend mode="normal" in2="BackgroundImageFix" result="effect1_dropShadow_170_3879"/>
<feBlend mode="normal" in="SourceGraphic" in2="effect1_dropShadow_170_3879" result="shape"/>
</filter>
<filter id="filter6_d_170_3879" x="3.11565" y="18.1282" width="18.6253" height="18.601" filterUnits="userSpaceOnUse" color-interpolation-filters="sRGB">
<feFlood flood-opacity="0" result="BackgroundImageFix"/>
<feColorMatrix in="SourceAlpha" type="matrix" values="0 0 0 0 0 0 0 0 0 0 0 0 0 0 0 0 0 0 127 0" result="hardAlpha"/>
<feOffset dy="-1"/>
<feGaussianBlur stdDeviation="3.15"/>
<feComposite in2="hardAlpha" operator="out"/>
<feColorMatrix type="matrix" values="0 0 0 0 0 0 0 0 0 0 0 0 0 0 0 0 0 0 0.15 0"/>
<feBlend mode="normal" in2="BackgroundImageFix" result="effect1_dropShadow_170_3879"/>
<feBlend mode="normal" in="SourceGraphic" in2="effect1_dropShadow_170_3879" result="shape"/>
</filter>
<filter id="filter7_d_170_3879" x="3.11565" y="18.1282" width="18.6253" height="18.601" filterUnits="userSpaceOnUse" color-interpolation-filters="sRGB">
<feFlood flood-opacity="0" result="BackgroundImageFix"/>
<feColorMatrix in="SourceAlpha" type="matrix" values="0 0 0 0 0 0 0 0 0 0 0 0 0 0 0 0 0 0 127 0" result="hardAlpha"/>
<feOffset dy="-1"/>
<feGaussianBlur stdDeviation="3.15"/>
<feComposite in2="hardAlpha" operator="out"/>
<feColorMatrix type="matrix" values="0 0 0 0 0 0 0 0 0 0 0 0 0 0 0 0 0 0 0.15 0"/>
<feBlend mode="normal" in2="BackgroundImageFix" result="effect1_dropShadow_170_3879"/>
<feBlend mode="normal" in="SourceGraphic" in2="effect1_dropShadow_170_3879" result="shape"/>
</filter>
<filter id="filter8_d_170_3879" x="3.11565" y="18.1282" width="18.6253" height="18.601" filterUnits="userSpaceOnUse" color-interpolation-filters="sRGB">
<feFlood flood-opacity="0" result="BackgroundImageFix"/>
<feColorMatrix in="SourceAlpha" type="matrix" values="0 0 0 0 0 0 0 0 0 0 0 0 0 0 0 0 0 0 127 0" result="hardAlpha"/>
<feOffset dy="-1"/>
<feGaussianBlur stdDeviation="3.15"/>
<feComposite in2="hardAlpha" operator="out"/>
<feColorMatrix type="matrix" values="0 0 0 0 0 0 0 0 0 0 0 0 0 0 0 0 0 0 0.15 0"/>
<feBlend mode="normal" in2="BackgroundImageFix" result="effect1_dropShadow_170_3879"/>
<feBlend mode="normal" in="SourceGraphic" in2="effect1_dropShadow_170_3879" result="shape"/>
</filter>
<filter id="filter9_d_170_3879" x="7.13201" y="13.1282" width="18.6253" height="18.601" filterUnits="userSpaceOnUse" color-interpolation-filters="sRGB">
<feFlood flood-opacity="0" result="BackgroundImageFix"/>
<feColorMatrix in="SourceAlpha" type="matrix" values="0 0 0 0 0 0 0 0 0 0 0 0 0 0 0 0 0 0 127 0" result="hardAlpha"/>
<feOffset dy="-1"/>
<feGaussianBlur stdDeviation="3.15"/>
<feComposite in2="hardAlpha" operator="out"/>
<feColorMatrix type="matrix" values="0 0 0 0 0 0 0 0 0 0 0 0 0 0 0 0 0 0 0.15 0"/>
<feBlend mode="normal" in2="BackgroundImageFix" result="effect1_dropShadow_170_3879"/>
<feBlend mode="normal" in="SourceGraphic" in2="effect1_dropShadow_170_3879" result="shape"/>
</filter>
<filter id="filter10_d_170_3879" x="11.1482" y="9.12822" width="18.6253" height="18.601" filterUnits="userSpaceOnUse" color-interpolation-filters="sRGB">
<feFlood flood-opacity="0" result="BackgroundImageFix"/>
<feColorMatrix in="SourceAlpha" type="matrix" values="0 0 0 0 0 0 0 0 0 0 0 0 0 0 0 0 0 0 127 0" result="hardAlpha"/>
<feOffset dy="-1"/>
<feGaussianBlur stdDeviation="3.15"/>
<feComposite in2="hardAlpha" operator="out"/>
<feColorMatrix type="matrix" values="0 0 0 0 0 0 0 0 0 0 0 0 0 0 0 0 0 0 0.15 0"/>
<feBlend mode="normal" in2="BackgroundImageFix" result="effect1_dropShadow_170_3879"/>
<feBlend mode="normal" in="SourceGraphic" in2="effect1_dropShadow_170_3879" result="shape"/>
</filter>
<filter id="filter11_d_170_3879" x="16.1645" y="6.12822" width="18.6253" height="18.601" filterUnits="userSpaceOnUse" color-interpolation-filters="sRGB">
<feFlood flood-opacity="0" result="BackgroundImageFix"/>
<feColorMatrix in="SourceAlpha" type="matrix" values="0 0 0 0 0 0 0 0 0 0 0 0 0 0 0 0 0 0 127 0" result="hardAlpha"/>
<feOffset dy="-1"/>
<feGaussianBlur stdDeviation="3.15"/>
<feComposite in2="hardAlpha" operator="out"/>
<feColorMatrix type="matrix" values="0 0 0 0 0 0 0 0 0 0 0 0 0 0 0 0 0 0 0.15 0"/>
<feBlend mode="normal" in2="BackgroundImageFix" result="effect1_dropShadow_170_3879"/>
<feBlend mode="normal" in="SourceGraphic" in2="effect1_dropShadow_170_3879" result="shape"/>
</filter>
<filter id="filter12_d_170_3879" x="15.7388" y="1.7" width="18.6245" height="18.6" filterUnits="userSpaceOnUse" color-interpolation-filters="sRGB">
<feFlood flood-opacity="0" result="BackgroundImageFix"/>
<feColorMatrix in="SourceAlpha" type="matrix" values="0 0 0 0 0 0 0 0 0 0 0 0 0 0 0 0 0 0 127 0" result="hardAlpha"/>
<feOffset dy="-1"/>
<feGaussianBlur stdDeviation="3.15"/>
<feComposite in2="hardAlpha" operator="out"/>
<feColorMatrix type="matrix" values="0 0 0 0 0 0 0 0 0 0 0 0 0 0 0 0 0 0 0.15 0"/>
<feBlend mode="normal" in2="BackgroundImageFix" result="effect1_dropShadow_170_3879"/>
<feBlend mode="normal" in="SourceGraphic" in2="effect1_dropShadow_170_3879" result="shape"/>
</filter>
<filter id="filter13_d_170_3879" x="10.7183" y="3.7" width="18.6245" height="18.6" filterUnits="userSpaceOnUse" color-interpolation-filters="sRGB">
<feFlood flood-opacity="0" result="BackgroundImageFix"/>
<feColorMatrix in="SourceAlpha" type="matrix" values="0 0 0 0 0 0 0 0 0 0 0 0 0 0 0 0 0 0 127 0" result="hardAlpha"/>
<feOffset dy="-1"/>
<feGaussianBlur stdDeviation="3.15"/>
<feComposite in2="hardAlpha" operator="out"/>
<feColorMatrix type="matrix" values="0 0 0 0 0 0 0 0 0 0 0 0 0 0 0 0 0 0 0.15 0"/>
<feBlend mode="normal" in2="BackgroundImageFix" result="effect1_dropShadow_170_3879"/>
<feBlend mode="normal" in="SourceGraphic" in2="effect1_dropShadow_170_3879" result="shape"/>
</filter>
</defs>
</svg>
