<svg width="317" height="412" viewBox="0 0 317 412" fill="none" xmlns="http://www.w3.org/2000/svg">
<g filter="url(#filter0_d_567_3879)">
<rect x="34" y="16" width="249" height="177.491" rx="14.5171" fill="white" shape-rendering="crispEdges"/>
<rect width="226.837" height="68.712" transform="translate(45.0811 28.0977)" fill="white"/>
<path d="M58.175 43.9891C57.6107 44.8092 56.9273 45.4529 56.1249 45.9202C55.3225 46.3875 54.4715 46.6212 53.5721 46.6212V44.9547C54.2246 44.9547 54.8507 44.7563 55.4503 44.3595C56.0499 43.9627 56.5569 43.4115 56.9714 42.7061C57.3858 42.0007 57.6548 41.2027 57.7782 40.3121L59.4844 40.5899C59.3786 41.3129 59.1935 41.9787 58.9289 42.5871L63.0556 45.2324L62.1827 46.6477L58.175 43.9891ZM63.1218 48.4465V50.0866H53.3869V48.4465H57.4079V46.0128H59.1009V48.4465H63.1218ZM64.324 46.8328V45.2192H65.8583V42.2432H64.4166V40.6163H73.0404V42.2432H71.5987V45.2192H73.133V46.8328H64.324ZM69.9189 45.2192V42.2432H67.5381V45.2192H69.9189ZM73.5959 50.0866H63.8611V48.4333H73.5959V50.0866ZM74.9039 47.2958V40.6031H83.5013V42.1506H76.5705V43.2087H83.3558V44.6769H76.5705V45.7615H83.6203V47.2958H74.9039ZM84.07 50.0866H74.3352V48.4729H84.07V50.0866ZM96.3926 45.8541V50.4834H94.7261V40.3253H96.3926V44.1611H97.5963V45.8541H96.3926ZM93.2182 40.6031V43.5791C93.2182 44.9017 92.9846 46.0436 92.5172 47.0048C92.0499 47.9659 91.4018 48.6978 90.5729 49.2004C89.744 49.703 88.7917 49.9543 87.7159 49.9543V48.3142C88.5889 48.3054 89.3296 48.085 89.938 47.6529C90.5553 47.2208 90.9961 46.5815 91.2607 45.735H87.7159V44.1478H91.5384C91.5473 44.0508 91.5517 43.9053 91.5517 43.7113V42.1903H87.7159V40.6031H93.2182ZM98.4149 44.0023V42.759H99.9624V41.5951H98.5207V40.365H107.012V41.5951H105.557V42.759H107.105V44.0023H98.4149ZM103.917 42.759V41.5951H101.616V42.759H103.917ZM103.6 46.3567H107.039V48.8697H100.148V49.3459H107.158V50.4437H98.5075V47.9174H105.399V47.4413H98.481V46.3567H101.933V45.7747H97.8991V44.4917H107.634V45.7747H103.6V46.3567ZM112.907 50.6686C112.457 49.9808 112.113 49.1872 111.875 48.2878C111.637 47.3884 111.518 46.4272 111.518 45.4044C111.518 44.3815 111.637 43.4159 111.875 42.5077C112.122 41.5995 112.466 40.8103 112.907 40.1401H114.362C113.894 40.9602 113.55 41.8023 113.33 42.6664C113.118 43.5218 113.012 44.4344 113.012 45.4044C113.012 46.3743 113.118 47.2914 113.33 48.1555C113.55 49.0108 113.894 49.8485 114.362 50.6686H112.907ZM123.886 45.8541V50.4834H122.219V40.3253H123.886V44.1611H125.089V45.8541H123.886ZM119.19 42.2167C119.164 43.2484 119.08 44.1655 118.939 44.9679L121.796 48.883L120.473 49.9147L118.37 46.9519C117.991 47.8954 117.515 48.6273 116.942 49.1475C116.369 49.6589 115.725 49.9323 115.011 49.9676V48.1952C115.496 48.1246 115.923 47.8337 116.294 47.3222C116.664 46.802 116.951 46.1054 117.153 45.2324C117.365 44.3506 117.48 43.3454 117.497 42.2167H115.262V40.6031H121.333V42.2167H119.19ZM129.678 43.2749C129.642 43.9627 129.567 44.6284 129.453 45.2721L132.27 48.8168L131.027 49.9676L128.871 47.1371C128.5 48.01 128.024 48.6934 127.442 49.1872C126.86 49.6722 126.208 49.9323 125.485 49.9676V48.2481C125.961 48.1864 126.38 47.9395 126.741 47.5074C127.103 47.0665 127.389 46.4845 127.601 45.7615C127.813 45.0296 127.941 44.2007 127.985 43.2749H125.683V41.648H127.985V40.2856H129.691V41.648H131.873V43.2749H129.678ZM134.36 45.8541V50.4834H132.693V40.3253H134.36V44.1611H135.563V45.8541H134.36ZM146.048 45.9599V40.3253H147.727V45.9599H146.048ZM144.738 43.0765C144.738 43.6143 144.61 44.0905 144.355 44.5049C144.099 44.9106 143.737 45.228 143.27 45.4573C142.803 45.6777 142.26 45.7879 141.643 45.7879C141.026 45.7879 140.479 45.6777 140.003 45.4573C139.536 45.228 139.174 44.9106 138.918 44.5049C138.663 44.0905 138.535 43.6143 138.535 43.0765C138.535 42.5386 138.663 42.0668 138.918 41.6612C139.174 41.2468 139.536 40.9293 140.003 40.7089C140.479 40.4796 141.026 40.365 141.643 40.365C142.26 40.365 142.803 40.4796 143.27 40.7089C143.737 40.9293 144.099 41.2468 144.355 41.6612C144.61 42.0668 144.738 42.5386 144.738 43.0765ZM140.201 43.0765C140.201 43.4644 140.334 43.7731 140.598 44.0023C140.863 44.2228 141.211 44.333 141.643 44.333C142.075 44.333 142.423 44.2228 142.688 44.0023C142.953 43.7731 143.085 43.4644 143.085 43.0765C143.085 42.6797 142.953 42.371 142.688 42.1506C142.423 41.9213 142.075 41.8067 141.643 41.8067C141.211 41.8067 140.863 41.9213 140.598 42.1506C140.334 42.371 140.201 42.6797 140.201 43.0765ZM145.796 49.1078C145.47 49.5223 145.086 49.8441 144.646 50.0734C144.213 50.3115 143.746 50.4349 143.244 50.4437L141.722 49.1211C141.387 49.5355 141.004 49.8573 140.572 50.0866C140.149 50.3159 139.699 50.4349 139.223 50.4437V48.8565C139.54 48.8477 139.835 48.7287 140.109 48.4994C140.391 48.2613 140.625 47.9483 140.81 47.5603C140.995 47.1635 141.11 46.7314 141.154 46.2641L142.767 46.5419C142.732 46.9298 142.635 47.3663 142.476 47.8513L143.64 48.7772C144.037 48.6449 144.381 48.3451 144.672 47.8777C144.963 47.4104 145.139 46.8725 145.201 46.2641L146.802 46.5419C146.749 47.0092 146.656 47.4369 146.524 47.8248L148.428 49.2798L147.489 50.5363L145.796 49.1078ZM153.823 40.1798C155.137 40.1798 156.191 40.3518 156.985 40.6957C157.787 41.0307 158.188 41.5422 158.188 42.23C158.188 42.9089 157.787 43.4159 156.985 43.751C156.191 44.0861 155.137 44.2536 153.823 44.2536C152.501 44.2536 151.443 44.0861 150.649 43.751C149.855 43.4159 149.459 42.9089 149.459 42.23C149.459 41.5422 149.855 41.0307 150.649 40.6957C151.451 40.3518 152.51 40.1798 153.823 40.1798ZM153.823 41.5157C153.039 41.5157 152.408 41.5774 151.932 41.7009C151.465 41.8155 151.231 41.9919 151.231 42.23C151.231 42.4592 151.465 42.6312 151.932 42.7458C152.399 42.8604 153.03 42.9177 153.823 42.9177C154.617 42.9177 155.243 42.8604 155.702 42.7458C156.169 42.6312 156.403 42.4592 156.403 42.23C156.403 41.9919 156.169 41.8155 155.702 41.7009C155.234 41.5774 154.608 41.5157 153.823 41.5157ZM148.956 46.1186V44.7563H158.691V46.1186H148.956ZM149.551 50.4437V46.7932H158.096V50.4437H149.551ZM156.429 48.1291H151.205V49.1078H156.429V48.1291ZM159.258 50.6686C159.726 49.8573 160.065 49.0241 160.277 48.1687C160.497 47.3046 160.607 46.3831 160.607 45.4044C160.607 44.4256 160.497 43.5085 160.277 42.6532C160.065 41.7891 159.726 40.9514 159.258 40.1401H160.713C161.163 40.8103 161.507 41.5995 161.745 42.5077C161.983 43.4071 162.102 44.3727 162.102 45.4044C162.102 46.436 161.983 47.4016 161.745 48.301C161.507 49.2004 161.163 49.9896 160.713 50.6686H159.258Z" fill="#4196FD"/>
<path d="M243.227 48.0337H242.557V42.4256H241.111V41.8612H243.227V48.0337ZM250.099 48.0337H245.761V47.584L248.318 45.0621C248.641 44.7447 248.859 44.4713 248.97 44.242C249.082 44.0128 249.138 43.7776 249.138 43.5366C249.138 43.178 249.014 42.8959 248.768 42.6901C248.521 42.4844 248.168 42.3815 247.709 42.3815C246.986 42.3815 246.434 42.6166 246.052 43.0869L245.567 42.7342C245.802 42.4344 246.105 42.2051 246.475 42.0464C246.851 41.8818 247.28 41.7995 247.762 41.7995C248.385 41.7995 248.882 41.9524 249.252 42.258C249.629 42.5579 249.817 42.9664 249.817 43.4837C249.817 43.8012 249.743 44.1068 249.596 44.4008C249.455 44.6888 249.191 45.021 248.803 45.3972L246.731 47.4605H250.099V48.0337ZM251.512 43.5454C251.377 43.5454 251.263 43.5014 251.169 43.4132C251.08 43.3191 251.036 43.2015 251.036 43.0605C251.036 42.9253 251.08 42.8136 251.169 42.7254C251.263 42.6313 251.377 42.5843 251.512 42.5843C251.648 42.5843 251.759 42.6313 251.847 42.7254C251.942 42.8136 251.989 42.9253 251.989 43.0605C251.989 43.2015 251.942 43.3191 251.847 43.4132C251.759 43.5014 251.648 43.5454 251.512 43.5454ZM251.512 47.3018C251.377 47.3018 251.263 47.2577 251.169 47.1695C251.08 47.0755 251.036 46.9609 251.036 46.8257C251.036 46.6846 251.08 46.5699 251.169 46.4818C251.263 46.3936 251.377 46.3495 251.512 46.3495C251.648 46.3495 251.759 46.3936 251.847 46.4818C251.942 46.5699 251.989 46.6846 251.989 46.8257C251.989 46.9609 251.942 47.0755 251.847 47.1695C251.759 47.2577 251.648 47.3018 251.512 47.3018ZM256.667 46.4112V48.0337H256.006V46.4112H252.54V45.9527L255.785 41.8612H256.508L253.369 45.8469H256.023V44.4184H256.667V45.8469H257.893V46.4112H256.667ZM260.452 44.5154C261.099 44.5448 261.593 44.7182 261.934 45.0356C262.275 45.3472 262.445 45.7558 262.445 46.2613C262.445 46.614 262.36 46.9285 262.19 47.2048C262.019 47.4811 261.766 47.6986 261.431 47.8573C261.096 48.0161 260.688 48.0954 260.206 48.0954C259.759 48.0954 259.336 48.0249 258.936 47.8838C258.542 47.7368 258.227 47.5428 257.992 47.3018L258.283 46.7992C258.489 47.0108 258.759 47.1842 259.095 47.3195C259.435 47.4488 259.8 47.5134 260.188 47.5134C260.699 47.5134 261.09 47.4018 261.361 47.1784C261.637 46.955 261.775 46.6493 261.775 46.2613C261.775 45.8733 261.637 45.5706 261.361 45.3531C261.09 45.1356 260.676 45.0268 260.117 45.0268H259.677V44.5771L261.378 42.4256H258.23V41.8612H262.198V42.311L260.452 44.5154Z" fill="#ADADAD"/>
<path d="M56.1028 71.7601C55.5199 71.7601 54.9986 71.6127 54.5391 71.3178C54.0796 71.0229 53.7196 70.5977 53.459 70.0421C53.1983 69.4798 53.068 68.8145 53.068 68.0464C53.068 67.2783 53.1983 66.6164 53.459 66.0609C53.7196 65.4985 54.0796 65.0699 54.5391 64.775C54.9986 64.4801 55.5199 64.3326 56.1028 64.3326C56.6926 64.3326 57.2173 64.4801 57.6768 64.775C58.1363 65.0699 58.4929 65.4985 58.7467 66.0609C59.0073 66.6164 59.1376 67.2783 59.1376 68.0464C59.1376 68.8145 59.0073 69.4798 58.7467 70.0421C58.4929 70.5977 58.1363 71.0229 57.6768 71.3178C57.2173 71.6127 56.6926 71.7601 56.1028 71.7601ZM56.1028 70.5256C56.5898 70.5256 56.9738 70.3199 57.255 69.9084C57.5431 69.49 57.6871 68.8694 57.6871 68.0464C57.6871 67.2234 57.5431 66.6061 57.255 66.1946C56.9738 65.7763 56.5898 65.5671 56.1028 65.5671C55.6227 65.5671 55.2387 65.7763 54.9506 66.1946C54.6694 66.6061 54.5289 67.2234 54.5289 68.0464C54.5289 68.8694 54.6694 69.49 54.9506 69.9084C55.2387 70.3199 55.6227 70.5256 56.1028 70.5256ZM62.0211 67.2131C63.043 67.2131 63.794 67.412 64.274 67.8098C64.761 68.2075 65.0044 68.7459 65.0044 69.4249C65.0044 69.857 64.8981 70.2513 64.6855 70.6079C64.4729 70.9577 64.1472 71.2389 63.7082 71.4515C63.2762 71.6573 62.7412 71.7601 62.1034 71.7601C61.5959 71.7601 61.0987 71.6881 60.6117 71.5441C60.1316 71.4001 59.727 71.2012 59.3978 70.9474L59.9739 69.8467C60.2414 70.0593 60.5569 70.2273 60.9203 70.3508C61.2907 70.4742 61.6713 70.5359 62.0622 70.5359C62.5286 70.5359 62.8887 70.4399 63.1424 70.2479C63.403 70.0559 63.5333 69.7952 63.5333 69.466C63.5333 69.1094 63.3962 68.8419 63.1218 68.6636C62.8475 68.4785 62.3709 68.3859 61.6919 68.3859H59.9225L60.2928 64.4458H64.5724V65.6083H61.4964L61.3524 67.2131H62.0211ZM69.2562 63.6845L66.2008 72.4082H65.0795L68.1348 63.6845H69.2562ZM72.5174 67.4188C73.1827 67.5011 73.6902 67.7275 74.04 68.0978C74.3897 68.4613 74.5646 68.9208 74.5646 69.4763C74.5646 69.8947 74.4583 70.2787 74.2457 70.6285C74.0331 70.9714 73.7073 71.2458 73.2684 71.4515C72.8363 71.6573 72.3048 71.7601 71.6739 71.7601C71.1663 71.7601 70.6726 71.6881 70.1925 71.5441C69.7124 71.4001 69.3043 71.2012 68.9683 70.9474L69.5444 69.8467C69.8118 70.0593 70.1273 70.2273 70.4908 70.3508C70.8612 70.4742 71.2452 70.5359 71.643 70.5359C72.1094 70.5359 72.4694 70.4433 72.7232 70.2582C72.9838 70.073 73.1141 69.8124 73.1141 69.4763C73.1141 69.154 72.9906 68.9037 72.7438 68.7253C72.5037 68.547 72.1299 68.4579 71.6224 68.4579H70.9229V67.5011L72.5277 65.6083H69.3078V64.4458H74.2457V65.3819L72.5174 67.4188ZM78.1374 71.7601C77.5544 71.7601 77.0332 71.6127 76.5737 71.3178C76.1142 71.0229 75.7541 70.5977 75.4935 70.0421C75.2329 69.4798 75.1026 68.8145 75.1026 68.0464C75.1026 67.2783 75.2329 66.6164 75.4935 66.0609C75.7541 65.4985 76.1142 65.0699 76.5737 64.775C77.0332 64.4801 77.5544 64.3326 78.1374 64.3326C78.7272 64.3326 79.2518 64.4801 79.7113 64.775C80.1708 65.0699 80.5275 65.4985 80.7812 66.0609C81.0418 66.6164 81.1722 67.2783 81.1722 68.0464C81.1722 68.8145 81.0418 69.4798 80.7812 70.0421C80.5275 70.5977 80.1708 71.0229 79.7113 71.3178C79.2518 71.6127 78.7272 71.7601 78.1374 71.7601ZM78.1374 70.5256C78.6243 70.5256 79.0084 70.3199 79.2896 69.9084C79.5776 69.49 79.7216 68.8694 79.7216 68.0464C79.7216 67.2234 79.5776 66.6061 79.2896 66.1946C79.0084 65.7763 78.6243 65.5671 78.1374 65.5671C77.6573 65.5671 77.2732 65.7763 76.9852 66.1946C76.704 66.6061 76.5634 67.2234 76.5634 68.0464C76.5634 68.8694 76.704 69.49 76.9852 69.9084C77.2732 70.3199 77.6573 70.5256 78.1374 70.5256ZM83.8371 65.4231V64.4149H86.6764V63.7771H87.9932V64.4149H90.8325V65.4231H83.8371ZM84.0634 66.9456C84.0634 66.5204 84.3583 66.2049 84.9481 65.9992C85.5379 65.7934 86.3335 65.6906 87.3348 65.6906C88.3361 65.6906 89.1282 65.7934 89.7112 65.9992C90.301 66.2049 90.5959 66.5204 90.5959 66.9456C90.5959 67.3708 90.301 67.6863 89.7112 67.8921C89.1282 68.0978 88.3361 68.2007 87.3348 68.2007C86.3335 68.2007 85.5379 68.0978 84.9481 67.8921C84.3583 67.6863 84.0634 67.3708 84.0634 66.9456ZM89.2894 66.9456C89.2894 66.829 89.1111 66.7433 88.7545 66.6884C88.4047 66.6267 87.9315 66.5959 87.3348 66.5959C86.7381 66.5959 86.2615 66.6267 85.9048 66.6884C85.5551 66.7433 85.3802 66.829 85.3802 66.9456C85.3802 67.1788 86.0317 67.2954 87.3348 67.2954C88.6379 67.2954 89.2894 67.1788 89.2894 66.9456ZM91.1206 69.5792H87.9829V70.3816H86.6764V69.5792H83.549V68.5299H91.1206V69.5792ZM90.7605 70.8857V71.9659H84.012V70.0113H85.339V70.8857H90.7605ZM96.5512 67.9538V66.7913H97.6417V66.0918H96.5512V64.9293H97.6417V64.096H98.9276V69.9804H97.6417V67.9538H96.5512ZM94.8229 65.2996H91.9219V64.2195H96.1089V67.0999H93.2284V67.9024H94.8744C95.2379 67.9024 95.5979 67.8852 95.9546 67.8509C96.318 67.8166 96.5992 67.7686 96.7981 67.7069V68.7253C96.5992 68.8008 96.318 68.8625 95.9546 68.9105C95.5979 68.9585 95.2139 68.9825 94.8024 68.9825H91.9425V66.0815H94.8229V65.2996ZM99.0511 71.9659H92.3025V69.5483H93.6296V70.752H99.0511V71.9659Z" fill="#5E5E5E"/>
<path d="M61.1951 83.3028H60.1252V85.4632H59.3742V80.7413H60.1252V82.5827H61.1951V83.3028ZM53.7264 81.554V80.8853H57.934V83.6526H57.1933V81.554H53.7264ZM58.7055 84.6299C58.2529 84.8357 57.3887 84.9385 56.1131 84.9385H53.3458V84.2904H54.9095V82.5724H55.6502V84.2904H56.144C57.3716 84.2904 58.2255 84.1876 58.7055 83.9818V84.6299ZM57.039 85.6278C58.006 85.6278 58.7844 85.7547 59.3742 86.0084C59.964 86.2553 60.2589 86.636 60.2589 87.1503C60.2589 87.6647 59.964 88.0453 59.3742 88.2922C58.7913 88.5391 58.0129 88.6626 57.039 88.6626C56.0651 88.6626 55.2798 88.5391 54.6832 88.2922C54.0934 88.0453 53.7984 87.6647 53.7984 87.1503C53.7984 86.636 54.0934 86.2553 54.6832 86.0084C55.2798 85.7547 56.0651 85.6278 57.039 85.6278ZM57.039 88.0351C57.766 88.0351 58.3558 87.963 58.8084 87.819C59.2611 87.675 59.4874 87.4521 59.4874 87.1503C59.4874 86.8417 59.2611 86.6154 58.8084 86.4714C58.3558 86.3273 57.766 86.2553 57.039 86.2553C56.3051 86.2553 55.7119 86.3273 55.2593 86.4714C54.8066 86.6154 54.5803 86.8417 54.5803 87.1503C54.5803 87.4521 54.8066 87.675 55.2593 87.819C55.7119 87.963 56.3051 88.0351 57.039 88.0351ZM65.237 84.0847C64.2768 84.0847 63.4847 83.9441 62.8606 83.6629C62.2365 83.3749 61.9244 82.9531 61.9244 82.3976C61.9244 81.8489 62.2365 81.4305 62.8606 81.1425C63.4915 80.8476 64.2837 80.7001 65.237 80.7001C66.1834 80.7001 66.9687 80.8476 67.5928 81.1425C68.2237 81.4305 68.5392 81.8489 68.5392 82.3976C68.5392 82.9531 68.2272 83.3749 67.6031 83.6629C66.979 83.9441 66.1903 84.0847 65.237 84.0847ZM65.237 81.3482C64.5237 81.3482 63.9236 81.4408 63.4367 81.626C62.9497 81.8112 62.7063 82.0684 62.7063 82.3976C62.7063 82.7336 62.9497 82.9942 63.4367 83.1794C63.9236 83.3577 64.5237 83.4469 65.237 83.4469C65.9502 83.4469 66.5469 83.3577 67.027 83.1794C67.5139 82.9942 67.7574 82.7336 67.7574 82.3976C67.7574 82.0684 67.5139 81.8112 67.027 81.626C66.54 81.4408 65.9434 81.3482 65.237 81.3482ZM68.9816 85.5146H65.6073V86.9343H64.8666V85.5146H61.4923V84.846H68.9816V85.5146ZM68.5804 87.8499V88.5288H62.0376V86.2965H62.7886V87.8499H68.5804ZM76.8195 88.642H76.1097V84.7122H74.7517V88.5083H74.0522V80.7824H74.7517V83.9818H76.1097V80.7413H76.8195V88.642ZM71.7067 87.4487C72.029 87.4487 72.3445 87.4212 72.6531 87.3664C72.9617 87.3115 73.2292 87.2361 73.4555 87.14V87.8293C73.2292 87.9322 72.9549 88.011 72.6325 88.0659C72.3102 88.1208 71.9707 88.1482 71.6141 88.1482H69.8961V81.0499H73.1366V81.7494H70.6162V87.4487H71.7067ZM86.8461 85.4632H86.1157V84.3933H84.696L84.7475 83.6938H86.1157V82.3358H84.7475L84.696 81.6466H86.1157V80.7413H86.8461V85.4632ZM84.4903 83.0148C84.4903 83.4332 84.3977 83.8069 84.2125 84.1361C84.0273 84.4653 83.7599 84.7259 83.4101 84.918C83.0672 85.1031 82.6626 85.1957 82.1962 85.1957C81.7367 85.1957 81.332 85.1031 80.9823 84.918C80.6394 84.7259 80.3719 84.4653 80.1799 84.1361C79.9947 83.8001 79.9021 83.4263 79.9021 83.0148C79.9021 82.6033 79.9947 82.233 80.1799 81.9038C80.3719 81.5677 80.6394 81.3071 80.9823 81.1219C81.332 80.9299 81.7367 80.8339 82.1962 80.8339C82.6626 80.8339 83.0672 80.9299 83.4101 81.1219C83.7599 81.3071 84.0273 81.5643 84.2125 81.8935C84.3977 82.2227 84.4903 82.5964 84.4903 83.0148ZM80.6531 83.0148C80.6531 83.4812 80.7937 83.8515 81.0749 84.1258C81.3629 84.4002 81.7367 84.5373 82.1962 84.5373C82.6557 84.5373 83.0295 84.4002 83.3175 84.1258C83.6056 83.8515 83.7496 83.4812 83.7496 83.0148C83.7496 82.5484 83.6056 82.1781 83.3175 81.9038C83.0363 81.6294 82.6626 81.4923 82.1962 81.4923C81.7367 81.4923 81.3629 81.6294 81.0749 81.9038C80.7937 82.1781 80.6531 82.5484 80.6531 83.0148ZM86.8461 85.9261V88.6214H86.0951V86.6154H80.5399V85.9261H86.8461ZM97.85 83.128H96.7595V84.9385H96.0188V80.7413H96.7595V82.377H97.85V83.128ZM92.3565 84.7225C91.8902 84.7225 91.4821 84.6402 91.1323 84.4756C90.7894 84.311 90.5219 84.0847 90.3299 83.7966C90.1447 83.5017 90.0522 83.1622 90.0522 82.7782C90.0522 82.401 90.1447 82.0649 90.3299 81.77C90.5219 81.4751 90.7894 81.2454 91.1323 81.0808C91.4821 80.9162 91.8902 80.8339 92.3565 80.8339C92.8229 80.8339 93.2275 80.9162 93.5704 81.0808C93.9202 81.2454 94.1877 81.4751 94.3729 81.77C94.558 82.0649 94.6506 82.401 94.6506 82.7782C94.6506 83.1622 94.558 83.5017 94.3729 83.7966C94.1877 84.0847 93.9202 84.311 93.5704 84.4756C93.2275 84.6402 92.8229 84.7225 92.3565 84.7225ZM92.3565 81.4717C91.8902 81.4717 91.513 81.5883 91.2249 81.8215C90.9369 82.0546 90.7928 82.3735 90.7928 82.7782C90.7928 83.1828 90.9334 83.5017 91.2146 83.7349C91.5027 83.9681 91.8833 84.0847 92.3565 84.0847C92.8229 84.0847 93.1967 83.9681 93.4779 83.7349C93.7659 83.5017 93.9099 83.1828 93.9099 82.7782C93.9099 82.3735 93.7659 82.0546 93.4779 81.8215C93.1967 81.5883 92.8229 81.4717 92.3565 81.4717ZM96.9344 87.9013V88.5494H90.5151V87.9013H91.9039V86.0804H90.6077V85.4323H96.8418V86.0804H95.5251V87.9013H96.9344ZM94.7946 87.9013V86.0804H92.6446V87.9013H94.7946Z" fill="#8A8888"/>
<path d="M104.912 79.7494V88.0029H104.304V79.7494H104.912Z" fill="#8A8888"/>
<path d="M114.684 88.3642C114.128 88.3642 113.631 88.2168 113.192 87.9219C112.753 87.6201 112.41 87.1915 112.163 86.636C111.923 86.0804 111.803 85.4323 111.803 84.6916C111.803 83.951 111.923 83.3028 112.163 82.7473C112.41 82.1918 112.753 81.7666 113.192 81.4717C113.631 81.1699 114.128 81.019 114.684 81.019C115.246 81.019 115.743 81.1699 116.176 81.4717C116.614 81.7666 116.954 82.1918 117.194 82.7473C117.441 83.296 117.564 83.9441 117.564 84.6916C117.564 85.4392 117.441 86.0907 117.194 86.6463C116.954 87.1949 116.614 87.6201 116.176 87.9219C115.743 88.2168 115.246 88.3642 114.684 88.3642ZM114.684 87.675C115.102 87.675 115.469 87.5584 115.785 87.3252C116.1 87.092 116.344 86.7526 116.515 86.3068C116.693 85.861 116.783 85.3226 116.783 84.6916C116.783 84.0607 116.693 83.5223 116.515 83.0765C116.344 82.6307 116.1 82.2912 115.785 82.0581C115.469 81.8249 115.102 81.7083 114.684 81.7083C114.272 81.7083 113.909 81.8249 113.593 82.0581C113.278 82.2912 113.031 82.6307 112.853 83.0765C112.681 83.5223 112.596 84.0607 112.596 84.6916C112.596 85.3226 112.681 85.861 112.853 86.3068C113.031 86.7526 113.278 87.092 113.593 87.3252C113.909 87.5584 114.272 87.675 114.684 87.675ZM123.462 81.6157L120.458 88.2922H119.604L122.557 81.7597H118.874V83.0971H118.154V81.0911H123.462V81.6157ZM124.914 83.0559C124.756 83.0559 124.622 83.0045 124.512 82.9016C124.41 82.7919 124.358 82.6547 124.358 82.4901C124.358 82.3324 124.41 82.2021 124.512 82.0992C124.622 81.9895 124.756 81.9346 124.914 81.9346C125.071 81.9346 125.202 81.9895 125.305 82.0992C125.414 82.2021 125.469 82.3324 125.469 82.4901C125.469 82.6547 125.414 82.7919 125.305 82.9016C125.202 83.0045 125.071 83.0559 124.914 83.0559ZM124.914 87.4384C124.756 87.4384 124.622 87.3869 124.512 87.2841C124.41 87.1743 124.358 87.0406 124.358 86.8829C124.358 86.7183 124.41 86.5845 124.512 86.4817C124.622 86.3788 124.756 86.3273 124.914 86.3273C125.071 86.3273 125.202 86.3788 125.305 86.4817C125.414 86.5845 125.469 86.7183 125.469 86.8829C125.469 87.0406 125.414 87.1743 125.305 87.2841C125.202 87.3869 125.071 87.4384 124.914 87.4384ZM129.168 84.1876C129.923 84.2219 130.499 84.4242 130.897 84.7945C131.294 85.158 131.493 85.6347 131.493 86.2245C131.493 86.636 131.394 87.0029 131.195 87.3252C130.996 87.6476 130.701 87.9013 130.31 88.0865C129.919 88.2717 129.443 88.3642 128.88 88.3642C128.359 88.3642 127.865 88.2819 127.399 88.1174C126.939 87.9459 126.572 87.7196 126.298 87.4384L126.638 86.852C126.878 87.0989 127.193 87.3012 127.584 87.459C127.982 87.6098 128.407 87.6853 128.86 87.6853C129.456 87.6853 129.912 87.555 130.228 87.2944C130.55 87.0337 130.711 86.6771 130.711 86.2245C130.711 85.7718 130.55 85.4186 130.228 85.1649C129.912 84.9111 129.429 84.7842 128.777 84.7842H128.263V84.2596L130.248 81.7494H126.576V81.0911H131.205V81.6157L129.168 84.1876ZM135.272 88.3642C134.716 88.3642 134.219 88.2168 133.78 87.9219C133.341 87.6201 132.998 87.1915 132.751 86.636C132.511 86.0804 132.391 85.4323 132.391 84.6916C132.391 83.951 132.511 83.3028 132.751 82.7473C132.998 82.1918 133.341 81.7666 133.78 81.4717C134.219 81.1699 134.716 81.019 135.272 81.019C135.834 81.019 136.331 81.1699 136.763 81.4717C137.202 81.7666 137.542 82.1918 137.782 82.7473C138.029 83.296 138.152 83.9441 138.152 84.6916C138.152 85.4392 138.029 86.0907 137.782 86.6463C137.542 87.1949 137.202 87.6201 136.763 87.9219C136.331 88.2168 135.834 88.3642 135.272 88.3642ZM135.272 87.675C135.69 87.675 136.057 87.5584 136.373 87.3252C136.688 87.092 136.931 86.7526 137.103 86.3068C137.281 85.861 137.37 85.3226 137.37 84.6916C137.37 84.0607 137.281 83.5223 137.103 83.0765C136.931 82.6307 136.688 82.2912 136.373 82.0581C136.057 81.8249 135.69 81.7083 135.272 81.7083C134.86 81.7083 134.497 81.8249 134.181 82.0581C133.866 82.2912 133.619 82.6307 133.441 83.0765C133.269 83.5223 133.183 84.0607 133.183 84.6916C133.183 85.3226 133.269 85.861 133.441 86.3068C133.619 86.7526 133.866 87.092 134.181 87.3252C134.497 87.5584 134.86 87.675 135.272 87.675Z" fill="#8A8888"/>
<path fill-rule="evenodd" clip-rule="evenodd" d="M256.046 80.5507C258.968 80.5507 261.337 78.182 261.337 75.2601C261.337 72.3381 258.968 69.9694 256.046 69.9694C253.124 69.9694 250.755 72.3381 250.755 75.2601C250.755 78.182 253.124 80.5507 256.046 80.5507ZM256.046 81.8734C259.698 81.8734 262.659 78.9125 262.659 75.2601C262.659 71.6076 259.698 68.6467 256.046 68.6467C252.394 68.6467 249.433 71.6076 249.433 75.2601C249.433 78.9125 252.394 81.8734 256.046 81.8734Z" fill="#70B6FD"/>
<path d="M256.707 72.6147C256.707 72.2495 256.411 71.9534 256.046 71.9534C255.681 71.9534 255.385 72.2495 255.385 72.6147L255.385 74.5987H253.401C253.035 74.5987 252.739 74.8948 252.739 75.26C252.739 75.6253 253.035 75.9214 253.401 75.9214H255.385L255.385 77.9054C255.385 78.2706 255.681 78.5667 256.046 78.5667C256.411 78.5667 256.707 78.2706 256.707 77.9054L256.707 75.9214H258.691C259.057 75.9214 259.353 75.6253 259.353 75.26C259.353 74.8948 259.057 74.5987 258.691 74.5987H256.707L256.707 72.6147Z" fill="#70B6FD"/>
<line x1="44.5811" y1="104.415" x2="272.418" y2="104.415" stroke="#F2F2F2" stroke-width="0.661333"/>
<rect width="226.837" height="68.712" transform="translate(45.0811 112.682)" fill="white"/>
<path d="M63.5583 128.19H62.3546V129.883H60.6881V124.909H62.3546V126.483H63.5583V128.19ZM59.286 126.298C59.286 127.541 58.7746 128.441 57.7517 128.996C56.7377 129.552 55.3489 129.83 53.5853 129.83V128.401C54.811 128.384 55.7854 128.225 56.5084 127.925C57.2315 127.616 57.593 127.184 57.593 126.629V126.483H53.5853V125.068H59.286V126.298ZM62.4604 133.798V135.028H53.9689V130.306H62.3546V131.523H55.6355V132.078H62.2224V133.229H55.6355V133.798H62.4604ZM71.4267 135.067V124.909H73.1065V135.067H71.4267ZM67.1942 125.068C68.1201 125.068 68.8475 125.469 69.3766 126.272C69.9145 127.065 70.1834 128.264 70.1834 129.869C70.1834 131.474 69.9145 132.678 69.3766 133.48C68.8475 134.274 68.1201 134.671 67.1942 134.671C66.2595 134.671 65.5232 134.274 64.9853 133.48C64.4563 132.678 64.1917 131.474 64.1917 129.869C64.1917 128.264 64.4563 127.065 64.9853 126.272C65.5232 125.469 66.2595 125.068 67.1942 125.068ZM67.1942 126.668C66.7798 126.668 66.4491 126.924 66.2022 127.436C65.9641 127.938 65.8451 128.749 65.8451 129.869C65.8451 130.998 65.9641 131.814 66.2022 132.316C66.4491 132.819 66.7798 133.07 67.1942 133.07C67.5998 133.07 67.9261 132.819 68.173 132.316C68.4199 131.805 68.5433 130.989 68.5433 129.869C68.5433 128.758 68.4199 127.947 68.173 127.436C67.9261 126.924 67.5998 126.668 67.1942 126.668ZM86.4608 131.39H84.9V128.732H83.8551V131.285H82.3076V124.949H83.8551V127.118H84.9V124.909H86.4608V131.39ZM81.7786 130.703C81.514 130.826 81.1613 130.919 80.7204 130.98C80.2884 131.042 79.821 131.073 79.3184 131.073H77.1624V125.068H81.4611V126.457H78.7232V127.396H81.3288V128.719H78.7232V129.684H79.4242C79.8916 129.684 80.328 129.653 80.7336 129.592C81.1481 129.53 81.4964 129.446 81.7786 129.34V130.703ZM86.4608 131.8V135.147H84.8207V133.255H77.6651V131.8H86.4608ZM96.6704 135.067H94.9906V124.909H96.6704V135.067ZM92.0014 125.174C92.0014 126.629 91.8735 127.996 91.6178 129.274L94.5673 133.52L93.205 134.538L91.0358 131.311C90.6478 132.334 90.154 133.123 89.5544 133.679C88.9548 134.234 88.2847 134.525 87.544 134.552V132.753C88.0907 132.673 88.5713 132.299 88.9857 131.628C89.4001 130.958 89.722 130.059 89.9512 128.93C90.1805 127.802 90.2951 126.532 90.2951 125.121L92.0014 125.174ZM109.482 130.438V135.067H107.816V124.909H109.482V128.745H110.686V130.438H109.482ZM104.747 132.938C105.206 132.938 105.664 132.898 106.123 132.819C106.581 132.731 106.956 132.616 107.247 132.475V134.062C106.965 134.212 106.586 134.331 106.11 134.419C105.633 134.507 105.157 134.552 104.681 134.552H100.885V125.187H106.493V126.801H102.552V129.023H106.321V130.623H102.552V132.938H104.747ZM111.518 126.814V125.187H120.155V131.88H118.409V126.814H111.518ZM120.724 134.671H110.989V133.03H114.269V128.891H116.002V133.03H120.724V134.671ZM134.25 128.057H133.046V129.883H131.38V124.909H133.046V126.417H134.25V128.057ZM129.978 126.298C129.978 127.541 129.466 128.441 128.443 128.996C127.429 129.552 126.041 129.83 124.277 129.83V128.401C125.503 128.384 126.477 128.225 127.2 127.925C127.923 127.616 128.285 127.184 128.285 126.629V126.483H124.277V125.068H129.978V126.298ZM133.192 133.798V135.028H124.661V132.118H131.406V131.536H124.634V130.306H133.046V133.216H126.34V133.798H133.192ZM146.136 130.438V135.067H144.469V124.909H146.136V128.745H147.34V130.438H146.136ZM141.586 125.174C141.586 126.69 141.463 128.075 141.216 129.327L144.099 133.533L142.724 134.538L140.62 131.364C140.241 132.369 139.756 133.145 139.166 133.692C138.584 134.239 137.927 134.525 137.195 134.552V132.753C137.733 132.673 138.204 132.299 138.61 131.628C139.016 130.958 139.329 130.063 139.549 128.943C139.778 127.815 139.893 126.541 139.893 125.121L141.586 125.174ZM156.61 128.573V130.835H154.944V124.909H156.61V126.867H157.814V128.573H156.61ZM151.968 126.404H147.867V125.068H153.621V128.454H149.56V129.261H151.941C152.453 129.261 152.924 129.23 153.356 129.168C153.797 129.098 154.15 129.005 154.414 128.891V130.213C154.159 130.337 153.802 130.434 153.343 130.504C152.893 130.566 152.4 130.597 151.862 130.597H147.894V127.211H151.968V126.404ZM156.61 131.258V135.028H148.211V131.258H156.61ZM154.957 133.652V132.647H149.891V133.652H154.957ZM161.301 126.695V125.068H169.872V129.816H168.139V126.695H161.301ZM166.406 132.144V135.305H164.674V132.144H160.732V130.491H170.467V132.144H166.406ZM171.14 126.88V125.584H173.574V124.724H175.28V125.584H177.727V126.88H171.14ZM180.174 128.745V130.941H178.507V124.909H180.174V127.078H181.378V128.745H180.174ZM174.434 130.941C173.596 130.941 172.899 130.778 172.344 130.451C171.797 130.125 171.524 129.671 171.524 129.089C171.524 128.498 171.797 128.04 172.344 127.713C172.899 127.387 173.596 127.224 174.434 127.224C175.262 127.224 175.955 127.392 176.51 127.727C177.066 128.053 177.343 128.507 177.343 129.089C177.343 129.671 177.066 130.125 176.51 130.451C175.955 130.778 175.262 130.941 174.434 130.941ZM174.434 128.467C174.028 128.467 173.702 128.525 173.455 128.639C173.217 128.754 173.098 128.904 173.098 129.089C173.098 129.274 173.217 129.424 173.455 129.539C173.702 129.653 174.028 129.711 174.434 129.711C174.83 129.711 175.152 129.653 175.399 129.539C175.646 129.415 175.77 129.265 175.77 129.089C175.77 128.904 175.646 128.754 175.399 128.639C175.161 128.525 174.839 128.467 174.434 128.467ZM180.174 131.351V135.028H171.775V131.351H180.174ZM178.534 133.679V132.713H173.442V133.679H178.534Z" fill="#4196FD"/>
<path d="M243.227 132.618H242.557V127.01H241.111V126.445H243.227V132.618ZM250.099 132.618H245.761V132.168L248.318 129.646C248.641 129.329 248.859 129.055 248.97 128.826C249.082 128.597 249.138 128.362 249.138 128.121C249.138 127.762 249.014 127.48 248.768 127.274C248.521 127.068 248.168 126.965 247.709 126.965C246.986 126.965 246.434 127.201 246.052 127.671L245.567 127.318C245.802 127.018 246.105 126.789 246.475 126.63C246.851 126.466 247.28 126.384 247.762 126.384C248.385 126.384 248.882 126.536 249.252 126.842C249.629 127.142 249.817 127.55 249.817 128.068C249.817 128.385 249.743 128.691 249.596 128.985C249.455 129.273 249.191 129.605 248.803 129.981L246.731 132.045H250.099V132.618ZM251.512 128.129C251.377 128.129 251.263 128.085 251.169 127.997C251.08 127.903 251.036 127.786 251.036 127.644C251.036 127.509 251.08 127.398 251.169 127.309C251.263 127.215 251.377 127.168 251.512 127.168C251.648 127.168 251.759 127.215 251.847 127.309C251.942 127.398 251.989 127.509 251.989 127.644C251.989 127.786 251.942 127.903 251.847 127.997C251.759 128.085 251.648 128.129 251.512 128.129ZM251.512 131.886C251.377 131.886 251.263 131.842 251.169 131.754C251.08 131.659 251.036 131.545 251.036 131.41C251.036 131.269 251.08 131.154 251.169 131.066C251.263 130.978 251.377 130.933 251.512 130.933C251.648 130.933 251.759 130.978 251.847 131.066C251.942 131.154 251.989 131.269 251.989 131.41C251.989 131.545 251.942 131.659 251.847 131.754C251.759 131.842 251.648 131.886 251.512 131.886ZM257.275 132.618H252.937V132.168L255.494 129.646C255.818 129.329 256.035 129.055 256.147 128.826C256.259 128.597 256.314 128.362 256.314 128.121C256.314 127.762 256.191 127.48 255.944 127.274C255.697 127.068 255.344 126.965 254.886 126.965C254.163 126.965 253.61 127.201 253.228 127.671L252.743 127.318C252.978 127.018 253.281 126.789 253.651 126.63C254.028 126.466 254.457 126.384 254.939 126.384C255.562 126.384 256.059 126.536 256.429 126.842C256.805 127.142 256.993 127.55 256.993 128.068C256.993 128.385 256.92 128.691 256.773 128.985C256.632 129.273 256.367 129.605 255.979 129.981L253.907 132.045H257.275V132.618ZM260.391 132.679C259.915 132.679 259.488 132.553 259.112 132.3C258.736 132.042 258.442 131.674 258.23 131.198C258.025 130.722 257.922 130.166 257.922 129.531C257.922 128.897 258.025 128.341 258.23 127.865C258.442 127.389 258.736 127.024 259.112 126.771C259.488 126.513 259.915 126.384 260.391 126.384C260.873 126.384 261.299 126.513 261.669 126.771C262.046 127.024 262.337 127.389 262.542 127.865C262.754 128.335 262.86 128.891 262.86 129.531C262.86 130.172 262.754 130.731 262.542 131.207C262.337 131.677 262.046 132.042 261.669 132.3C261.299 132.553 260.873 132.679 260.391 132.679ZM260.391 132.089C260.749 132.089 261.064 131.989 261.334 131.789C261.605 131.589 261.813 131.298 261.96 130.916C262.113 130.534 262.19 130.072 262.19 129.531C262.19 128.991 262.113 128.529 261.96 128.147C261.813 127.765 261.605 127.474 261.334 127.274C261.064 127.074 260.749 126.974 260.391 126.974C260.038 126.974 259.726 127.074 259.456 127.274C259.186 127.474 258.974 127.765 258.821 128.147C258.674 128.529 258.601 128.991 258.601 129.531C258.601 130.072 258.674 130.534 258.821 130.916C258.974 131.298 259.186 131.589 259.456 131.789C259.726 131.989 260.038 132.089 260.391 132.089Z" fill="#ADADAD"/>
<path d="M56.1028 156.344C55.5199 156.344 54.9986 156.197 54.5391 155.902C54.0796 155.607 53.7196 155.182 53.459 154.626C53.1983 154.064 53.068 153.398 53.068 152.63C53.068 151.862 53.1983 151.2 53.459 150.645C53.7196 150.083 54.0796 149.654 54.5391 149.359C54.9986 149.064 55.5199 148.917 56.1028 148.917C56.6926 148.917 57.2173 149.064 57.6768 149.359C58.1363 149.654 58.4929 150.083 58.7467 150.645C59.0073 151.2 59.1376 151.862 59.1376 152.63C59.1376 153.398 59.0073 154.064 58.7467 154.626C58.4929 155.182 58.1363 155.607 57.6768 155.902C57.2173 156.197 56.6926 156.344 56.1028 156.344ZM56.1028 155.11C56.5898 155.11 56.9738 154.904 57.255 154.492C57.5431 154.074 57.6871 153.453 57.6871 152.63C57.6871 151.807 57.5431 151.19 57.255 150.779C56.9738 150.36 56.5898 150.151 56.1028 150.151C55.6227 150.151 55.2387 150.36 54.9506 150.779C54.6694 151.19 54.5289 151.807 54.5289 152.63C54.5289 153.453 54.6694 154.074 54.9506 154.492C55.2387 154.904 55.6227 155.11 56.1028 155.11ZM62.0211 151.797C63.043 151.797 63.794 151.996 64.274 152.394C64.761 152.792 65.0044 153.33 65.0044 154.009C65.0044 154.441 64.8981 154.835 64.6855 155.192C64.4729 155.542 64.1472 155.823 63.7082 156.035C63.2762 156.241 62.7412 156.344 62.1034 156.344C61.5959 156.344 61.0987 156.272 60.6117 156.128C60.1316 155.984 59.727 155.785 59.3978 155.531L59.9739 154.431C60.2414 154.643 60.5569 154.811 60.9203 154.935C61.2907 155.058 61.6713 155.12 62.0622 155.12C62.5286 155.12 62.8887 155.024 63.1424 154.832C63.403 154.64 63.5333 154.379 63.5333 154.05C63.5333 153.693 63.3962 153.426 63.1218 153.248C62.8475 153.062 62.3709 152.97 61.6919 152.97H59.9225L60.2928 149.03H64.5724V150.192H61.4964L61.3524 151.797H62.0211ZM69.2562 148.269L66.2008 156.992H65.0795L68.1348 148.269H69.2562ZM74.6572 156.231H69.3078V155.285L72.1368 152.589C72.4523 152.281 72.6649 152.02 72.7746 151.807C72.8843 151.588 72.9392 151.368 72.9392 151.149C72.9392 150.827 72.8295 150.58 72.61 150.408C72.3974 150.23 72.0819 150.141 71.6636 150.141C70.964 150.141 70.4291 150.388 70.0587 150.882L69.0094 150.192C69.2906 149.794 69.6712 149.482 70.1513 149.256C70.6314 149.03 71.1801 148.917 71.7973 148.917C72.3185 148.917 72.7746 149.002 73.1655 149.174C73.5565 149.338 73.8582 149.578 74.0708 149.894C74.2903 150.209 74.4 150.58 74.4 151.005C74.4 151.389 74.3143 151.753 74.1428 152.095C73.9782 152.438 73.6628 152.829 73.1964 153.268L71.3549 155.048H74.6572V156.231ZM77.8596 148.917C78.8541 148.917 79.6256 149.225 80.1743 149.842C80.7298 150.46 81.0076 151.344 81.0076 152.497C81.0076 153.306 80.8567 154.002 80.5549 154.585C80.26 155.161 79.8416 155.6 79.2998 155.902C78.7649 156.197 78.1408 156.344 77.4275 156.344C77.0572 156.344 76.704 156.303 76.3679 156.221C76.0387 156.138 75.7507 156.022 75.5038 155.871L76.049 154.801C76.3919 155.034 76.8446 155.151 77.407 155.151C77.9693 155.151 78.4288 155.003 78.7855 154.708C79.149 154.407 79.3787 153.971 79.4747 153.402C79.5296 153.182 79.5502 152.939 79.5365 152.672C79.3444 152.939 79.0838 153.145 78.7546 153.289C78.4323 153.426 78.0654 153.495 77.6539 153.495C77.1875 153.495 76.7657 153.402 76.3885 153.217C76.0182 153.032 75.7267 152.771 75.5141 152.435C75.3015 152.099 75.1952 151.711 75.1952 151.272C75.1952 150.806 75.3118 150.395 75.5449 150.038C75.7781 149.681 76.097 149.407 76.5017 149.215C76.9063 149.016 77.359 148.917 77.8596 148.917ZM77.9728 152.404C78.3774 152.404 78.7066 152.291 78.9604 152.065C79.221 151.838 79.3513 151.55 79.3513 151.2C79.3513 150.858 79.2244 150.573 78.9706 150.347C78.7237 150.12 78.3808 150.007 77.9419 150.007C77.5441 150.007 77.2218 150.117 76.9749 150.336C76.728 150.549 76.6045 150.837 76.6045 151.2C76.6045 151.564 76.728 151.855 76.9749 152.075C77.2218 152.294 77.5544 152.404 77.9728 152.404ZM83.8371 150.007V148.999H86.6764V148.361H87.9932V148.999H90.8325V150.007H83.8371ZM84.0634 151.53C84.0634 151.104 84.3583 150.789 84.9481 150.583C85.5379 150.377 86.3335 150.275 87.3348 150.275C88.3361 150.275 89.1282 150.377 89.7112 150.583C90.301 150.789 90.5959 151.104 90.5959 151.53C90.5959 151.955 90.301 152.27 89.7112 152.476C89.1282 152.682 88.3361 152.785 87.3348 152.785C86.3335 152.785 85.5379 152.682 84.9481 152.476C84.3583 152.27 84.0634 151.955 84.0634 151.53ZM89.2894 151.53C89.2894 151.413 89.1111 151.327 88.7545 151.272C88.4047 151.211 87.9315 151.18 87.3348 151.18C86.7381 151.18 86.2615 151.211 85.9048 151.272C85.5551 151.327 85.3802 151.413 85.3802 151.53C85.3802 151.763 86.0317 151.879 87.3348 151.879C88.6379 151.879 89.2894 151.763 89.2894 151.53ZM91.1206 154.163H87.9829V154.966H86.6764V154.163H83.549V153.114H91.1206V154.163ZM90.7605 155.47V156.55H84.012V154.595H85.339V155.47H90.7605ZM96.5512 152.538V151.375H97.6417V150.676H96.5512V149.513H97.6417V148.68H98.9276V154.564H97.6417V152.538H96.5512ZM94.8229 149.884H91.9219V148.803H96.1089V151.684H93.2284V152.486H94.8744C95.2379 152.486 95.5979 152.469 95.9546 152.435C96.318 152.401 96.5992 152.353 96.7981 152.291V153.309C96.5992 153.385 96.318 153.446 95.9546 153.495C95.5979 153.543 95.2139 153.567 94.8024 153.567H91.9425V150.665H94.8229V149.884ZM99.0511 156.55H92.3025V154.132H93.6296V155.336H99.0511V156.55Z" fill="#5E5E5E"/>
<path d="M53.8602 166.261V165.531H60.2795V169.101H59.508V166.261H53.8602ZM57.4196 170.562V173.411H56.6686V170.562H53.3458V169.811H60.835V170.562H57.4196ZM67.7779 165.325H68.5186V169.769H67.7779V167.547H66.2348V166.868H67.7779V165.325ZM64.1156 167.877C63.8687 168.329 63.5327 168.7 63.1075 168.988C62.6823 169.269 62.1953 169.444 61.6467 169.512V168.813C62.2913 168.71 62.8023 168.432 63.1795 167.979C63.5635 167.52 63.783 166.934 63.8379 166.22H61.7392V165.552H66.5435V166.22H64.5888C64.5683 166.597 64.5066 166.94 64.4037 167.249L66.7904 168.854L66.4097 169.44L64.1156 167.877ZM65.3707 170.057C66.3377 170.057 67.1127 170.188 67.6956 170.448C68.2855 170.702 68.5804 171.096 68.5804 171.631C68.5804 172.166 68.2855 172.564 67.6956 172.825C67.1127 173.079 66.3377 173.205 65.3707 173.205C64.4037 173.205 63.6287 173.079 63.0457 172.825C62.4628 172.564 62.1713 172.166 62.1713 171.631C62.1713 171.096 62.4628 170.702 63.0457 170.448C63.6287 170.188 64.4037 170.057 65.3707 170.057ZM65.3707 172.557C66.0908 172.557 66.6738 172.478 67.1196 172.321C67.5722 172.163 67.7985 171.933 67.7985 171.631C67.7985 171.33 67.5722 171.1 67.1196 170.942C66.6669 170.784 66.084 170.706 65.3707 170.706C64.6574 170.706 64.0745 170.784 63.6218 170.942C63.176 171.1 62.9532 171.33 62.9532 171.631C62.9532 171.933 63.176 172.163 63.6218 172.321C64.0745 172.478 64.6574 172.557 65.3707 172.557ZM70.2047 168.556V165.438H76.5726V168.556H70.2047ZM70.9454 166.087V167.907H75.8319V166.087H70.9454ZM77.1281 170.099H73.7538V171.518H73.0132V170.099H69.6389V169.43H77.1281V170.099ZM76.7372 172.434V173.113H70.1944V170.819H70.9454V172.434H76.7372Z" fill="#8A8888"/>
<path d="M84.9125 164.333V172.587H84.304V164.333H84.9125Z" fill="#8A8888"/>
<path d="M94.6839 172.948C94.1284 172.948 93.6311 172.801 93.1922 172.506C92.7533 172.204 92.4104 171.775 92.1635 171.22C91.9234 170.664 91.8034 170.016 91.8034 169.276C91.8034 168.535 91.9234 167.887 92.1635 167.331C92.4104 166.776 92.7533 166.351 93.1922 166.056C93.6311 165.754 94.1284 165.603 94.6839 165.603C95.2463 165.603 95.7435 165.754 96.1756 166.056C96.6145 166.351 96.954 166.776 97.194 167.331C97.4409 167.88 97.5644 168.528 97.5644 169.276C97.5644 170.023 97.4409 170.675 97.194 171.23C96.954 171.779 96.6145 172.204 96.1756 172.506C95.7435 172.801 95.2463 172.948 94.6839 172.948ZM94.6839 172.259C95.1022 172.259 95.4692 172.142 95.7846 171.909C96.1001 171.676 96.3436 171.337 96.515 170.891C96.6934 170.445 96.7825 169.907 96.7825 169.276C96.7825 168.645 96.6934 168.106 96.515 167.661C96.3436 167.215 96.1001 166.875 95.7846 166.642C95.4692 166.409 95.1022 166.292 94.6839 166.292C94.2724 166.292 93.9089 166.409 93.5934 166.642C93.2779 166.875 93.031 167.215 92.8527 167.661C92.6813 168.106 92.5955 168.645 92.5955 169.276C92.5955 169.907 92.6813 170.445 92.8527 170.891C93.031 171.337 93.2779 171.676 93.5934 171.909C93.9089 172.142 94.2724 172.259 94.6839 172.259ZM102.156 169.101C102.636 169.238 103.006 169.461 103.267 169.769C103.527 170.078 103.658 170.448 103.658 170.88C103.658 171.518 103.407 172.022 102.907 172.393C102.406 172.763 101.723 172.948 100.859 172.948C99.9883 172.948 99.3025 172.763 98.8019 172.393C98.3081 172.022 98.0612 171.518 98.0612 170.88C98.0612 170.442 98.1915 170.071 98.4521 169.769C98.7127 169.461 99.083 169.238 99.5631 169.101C99.1653 168.97 98.8567 168.772 98.6373 168.504C98.4247 168.23 98.3183 167.901 98.3183 167.516C98.3183 166.927 98.5481 166.46 99.0076 166.117C99.474 165.774 100.091 165.603 100.859 165.603C101.627 165.603 102.241 165.774 102.701 166.117C103.167 166.46 103.4 166.927 103.4 167.516C103.4 167.901 103.291 168.23 103.071 168.504C102.859 168.772 102.553 168.97 102.156 169.101ZM100.859 166.22C100.318 166.22 99.8889 166.34 99.5734 166.58C99.2648 166.814 99.1105 167.132 99.1105 167.537C99.1105 167.935 99.2648 168.25 99.5734 168.483C99.882 168.717 100.311 168.833 100.859 168.833C101.408 168.833 101.84 168.717 102.156 168.483C102.471 168.25 102.629 167.935 102.629 167.537C102.629 167.132 102.468 166.814 102.145 166.58C101.823 166.34 101.394 166.22 100.859 166.22ZM100.859 172.331C101.483 172.331 101.974 172.201 102.33 171.94C102.694 171.679 102.876 171.323 102.876 170.87C102.876 170.418 102.694 170.061 102.33 169.8C101.974 169.54 101.483 169.409 100.859 169.409C100.228 169.409 99.738 169.54 99.3882 169.8C99.0385 170.061 98.8636 170.418 98.8636 170.87C98.8636 171.323 99.0385 171.679 99.3882 171.94C99.738 172.201 100.228 172.331 100.859 172.331ZM105.049 167.64C104.892 167.64 104.758 167.588 104.648 167.486C104.545 167.376 104.494 167.239 104.494 167.074C104.494 166.916 104.545 166.786 104.648 166.683C104.758 166.573 104.892 166.519 105.049 166.519C105.207 166.519 105.337 166.573 105.44 166.683C105.55 166.786 105.605 166.916 105.605 167.074C105.605 167.239 105.55 167.376 105.44 167.486C105.337 167.588 105.207 167.64 105.049 167.64ZM105.049 172.022C104.892 172.022 104.758 171.971 104.648 171.868C104.545 171.758 104.494 171.625 104.494 171.467C104.494 171.302 104.545 171.169 104.648 171.066C104.758 170.963 104.892 170.911 105.049 170.911C105.207 170.911 105.337 170.963 105.44 171.066C105.55 171.169 105.605 171.302 105.605 171.467C105.605 171.625 105.55 171.758 105.44 171.868C105.337 171.971 105.207 172.022 105.049 172.022ZM109.232 172.948C108.676 172.948 108.179 172.801 107.74 172.506C107.301 172.204 106.958 171.775 106.712 171.22C106.471 170.664 106.351 170.016 106.351 169.276C106.351 168.535 106.471 167.887 106.712 167.331C106.958 166.776 107.301 166.351 107.74 166.056C108.179 165.754 108.676 165.603 109.232 165.603C109.794 165.603 110.292 165.754 110.724 166.056C111.163 166.351 111.502 166.776 111.742 167.331C111.989 167.88 112.112 168.528 112.112 169.276C112.112 170.023 111.989 170.675 111.742 171.23C111.502 171.779 111.163 172.204 110.724 172.506C110.292 172.801 109.794 172.948 109.232 172.948ZM109.232 172.259C109.65 172.259 110.017 172.142 110.333 171.909C110.648 171.676 110.892 171.337 111.063 170.891C111.241 170.445 111.331 169.907 111.331 169.276C111.331 168.645 111.241 168.106 111.063 167.661C110.892 167.215 110.648 166.875 110.333 166.642C110.017 166.409 109.65 166.292 109.232 166.292C108.82 166.292 108.457 166.409 108.141 166.642C107.826 166.875 107.579 167.215 107.401 167.661C107.229 168.106 107.144 168.645 107.144 169.276C107.144 169.907 107.229 170.445 107.401 170.891C107.579 171.337 107.826 171.676 108.141 171.909C108.457 172.142 108.82 172.259 109.232 172.259ZM115.407 172.948C114.852 172.948 114.355 172.801 113.916 172.506C113.477 172.204 113.134 171.775 112.887 171.22C112.647 170.664 112.527 170.016 112.527 169.276C112.527 168.535 112.647 167.887 112.887 167.331C113.134 166.776 113.477 166.351 113.916 166.056C114.355 165.754 114.852 165.603 115.407 165.603C115.97 165.603 116.467 165.754 116.899 166.056C117.338 166.351 117.677 166.776 117.918 167.331C118.164 167.88 118.288 168.528 118.288 169.276C118.288 170.023 118.164 170.675 117.918 171.23C117.677 171.779 117.338 172.204 116.899 172.506C116.467 172.801 115.97 172.948 115.407 172.948ZM115.407 172.259C115.826 172.259 116.193 172.142 116.508 171.909C116.824 171.676 117.067 171.337 117.239 170.891C117.417 170.445 117.506 169.907 117.506 169.276C117.506 168.645 117.417 168.106 117.239 167.661C117.067 167.215 116.824 166.875 116.508 166.642C116.193 166.409 115.826 166.292 115.407 166.292C114.996 166.292 114.632 166.409 114.317 166.642C114.001 166.875 113.755 167.215 113.576 167.661C113.405 168.106 113.319 168.645 113.319 169.276C113.319 169.907 113.405 170.445 113.576 170.891C113.755 171.337 114.001 171.676 114.317 171.909C114.632 172.142 114.996 172.259 115.407 172.259Z" fill="#8A8888"/>
<path fill-rule="evenodd" clip-rule="evenodd" d="M262.659 159.844C262.659 163.496 259.698 166.457 256.046 166.457C252.394 166.457 249.433 163.496 249.433 159.844C249.433 156.192 252.394 153.231 256.046 153.231C259.698 153.231 262.659 156.192 262.659 159.844ZM259.29 164.024C258.394 164.72 257.269 165.135 256.046 165.135C253.124 165.135 250.755 162.766 250.755 159.844C250.755 158.621 251.17 157.496 251.866 156.6L259.29 164.024ZM260.225 163.088L252.802 155.665C253.698 154.968 254.823 154.553 256.046 154.553C258.968 154.553 261.337 156.922 261.337 159.844C261.337 161.067 260.922 162.192 260.225 163.088Z" fill="#FF8E5D"/>
</g>
<path d="M45.3973 349.291C44.2951 350.34 42.9351 351.167 41.3173 351.771C39.7173 352.376 38.0284 352.696 36.2506 352.731V349.825C37.5128 349.771 38.7306 349.513 39.904 349.051C41.0951 348.589 42.0995 347.949 42.9173 347.131C43.7528 346.313 44.2684 345.389 44.464 344.358L47.8773 344.971C47.7173 345.682 47.4773 346.349 47.1573 346.971L54.9706 350.118L53.7706 352.785L45.3973 349.291ZM55.264 356.625H35.6373V353.878H55.264V356.625ZM45.4506 357.745C51.2995 357.745 54.224 359.051 54.224 361.665C54.224 363.051 53.4417 364.047 51.8773 364.651C50.3128 365.273 48.1706 365.585 45.4506 365.585C42.7306 365.585 40.5795 365.273 38.9973 364.651C37.4328 364.029 36.6506 363.033 36.6506 361.665C36.6506 359.051 39.584 357.745 45.4506 357.745ZM45.4506 362.918C48.9173 362.918 50.6506 362.5 50.6506 361.665C50.6506 360.829 48.9173 360.411 45.4506 360.411C43.8506 360.411 42.5795 360.509 41.6373 360.705C40.6951 360.9 40.224 361.22 40.224 361.665C40.224 362.109 40.6951 362.429 41.6373 362.625C42.5795 362.82 43.8506 362.918 45.4506 362.918ZM65.3945 350.865C65.3234 352.251 65.1723 353.593 64.9411 354.891L70.6211 362.038L68.1145 364.358L63.7678 358.651C63.0211 360.411 62.0611 361.789 60.8878 362.785C59.7145 363.762 58.3989 364.287 56.9411 364.358V360.891C57.9011 360.767 58.7456 360.269 59.4745 359.398C60.2034 358.509 60.7811 357.336 61.2078 355.878C61.6345 354.402 61.8923 352.731 61.9811 350.865H57.3411V347.585H61.9811V344.838H65.4211V347.585H69.8211V350.865H65.3945ZM74.8345 356.065V365.398H71.4745V344.918H74.8345V352.651H77.2611V356.065H74.8345ZM84.3184 347.878V344.998H101.492V351.878H98.1051V347.878H84.3184ZM102.772 355.851H83.1451V352.998H89.8384V349.665H93.2251V352.998H102.772V355.851ZM92.9584 357.158C95.6607 357.158 97.794 357.496 99.3584 358.171C100.941 358.847 101.732 359.913 101.732 361.371C101.732 362.811 100.941 363.869 99.3584 364.545C97.794 365.22 95.6607 365.558 92.9584 365.558C90.2562 365.558 88.114 365.22 86.5318 364.545C84.9495 363.869 84.1584 362.811 84.1584 361.371C84.1584 359.913 84.9495 358.847 86.5318 358.171C88.114 357.496 90.2562 357.158 92.9584 357.158ZM92.9584 362.865C94.5051 362.865 95.7584 362.74 96.7184 362.491C97.6784 362.242 98.1584 361.869 98.1584 361.371C98.1584 360.891 97.6695 360.527 96.6918 360.278C95.7318 360.011 94.4873 359.878 92.9584 359.878C91.4118 359.878 90.1495 360.011 89.1718 360.278C88.2118 360.527 87.7318 360.891 87.7318 361.371C87.7318 361.869 88.2118 362.242 89.1718 362.491C90.1318 362.74 91.394 362.865 92.9584 362.865ZM114.076 356.091C112.298 356.091 110.733 355.869 109.382 355.425C108.049 354.962 107.018 354.313 106.289 353.478C105.56 352.625 105.196 351.629 105.196 350.491C105.196 349.353 105.56 348.367 106.289 347.531C107.018 346.678 108.049 346.029 109.382 345.585C110.733 345.14 112.298 344.918 114.076 344.918C115.853 344.918 117.409 345.14 118.742 345.585C120.093 346.029 121.133 346.678 121.862 347.531C122.591 348.367 122.956 349.353 122.956 350.491C122.956 351.629 122.591 352.625 121.862 353.478C121.133 354.313 120.093 354.962 118.742 355.425C117.409 355.869 115.853 356.091 114.076 356.091ZM114.076 348.038C112.493 348.038 111.205 348.251 110.209 348.678C109.231 349.105 108.742 349.709 108.742 350.491C108.742 351.273 109.231 351.878 110.209 352.305C111.205 352.731 112.493 352.945 114.076 352.945C115.64 352.945 116.911 352.731 117.889 352.305C118.885 351.878 119.382 351.273 119.382 350.491C119.382 349.709 118.885 349.105 117.889 348.678C116.911 348.251 115.64 348.038 114.076 348.038ZM119.569 360.758V365.878H116.209V360.758H111.942V365.878H108.582V360.758H104.262V357.531H123.889V360.758H119.569ZM171.285 356.865H167.898V344.918H171.285V356.865ZM166.725 355.611C166.192 355.86 165.463 356.056 164.538 356.198C163.614 356.322 162.61 356.385 161.525 356.385H153.365V345.238H165.525V347.931H156.725V349.558H165.125V352.065H156.725V353.691H161.765C162.761 353.691 163.694 353.629 164.565 353.505C165.454 353.362 166.174 353.176 166.725 352.945V355.611ZM171.285 357.718V365.318H154.138V357.718H171.285ZM167.925 362.545V360.518H157.472V362.545H167.925ZM189.176 344.918H192.536V360.838H189.176V360.038H183.869V357.558H189.176V344.918ZM180.722 353.025C178.927 353.025 177.487 352.669 176.402 351.958C175.318 351.247 174.776 350.225 174.776 348.891C174.776 347.576 175.318 346.562 176.402 345.851C177.487 345.14 178.927 344.785 180.722 344.785C182.5 344.785 183.922 345.14 184.989 345.851C186.073 346.562 186.616 347.576 186.616 348.891C186.616 350.207 186.073 351.229 184.989 351.958C183.922 352.669 182.5 353.025 180.722 353.025ZM180.722 347.398C179.905 347.398 179.256 347.531 178.776 347.798C178.296 348.047 178.056 348.411 178.056 348.891C178.056 349.389 178.296 349.762 178.776 350.011C179.256 350.26 179.905 350.385 180.722 350.385C181.522 350.385 182.153 350.26 182.616 350.011C183.096 349.762 183.336 349.389 183.336 348.891C183.336 348.411 183.096 348.047 182.616 347.798C182.153 347.531 181.522 347.398 180.722 347.398ZM173.762 356.705V353.931H182.456C184.98 353.931 186.793 353.673 187.896 353.158V355.931C186.776 356.447 184.811 356.705 182.002 356.705V359.985H178.642V356.705H173.762ZM192.882 365.318H175.362V358.891H178.749V362.331H192.882V365.318ZM219.78 364.598H200.153V361.291H208.26V357.478H201.273V345.478H218.633V357.478H211.673V361.291H219.78V364.598ZM215.273 354.198V348.785H204.66V354.198H215.273ZM239.91 355.531H236.523V344.918H239.91V355.531ZM228.31 352.198C227.546 353.158 226.595 353.94 225.457 354.545C224.319 355.131 223.066 355.46 221.697 355.531V352.438C223.03 352.313 224.123 351.851 224.977 351.051C225.848 350.251 226.39 349.291 226.603 348.171H221.99V345.238H234.577V348.171H230.07C230.035 348.42 229.99 348.66 229.937 348.891C229.883 349.122 229.83 349.362 229.777 349.611L235.243 352.705L233.697 355.318L228.31 352.198ZM239.91 356.305V365.318H222.763V356.305H226.07V357.931H236.603V356.305H239.91ZM236.603 360.705H226.07V362.491H236.603V360.705Z" fill="#4196FD"/>
<path d="M145.395 356.891V365.247H143.395V348.18H145.395V354.869H147.595V356.891H145.395ZM136.928 362.269C139.299 362.269 141.01 362.032 142.062 361.558V363.536C140.966 364.01 139.232 364.247 136.862 364.247H130.595V362.269H134.906V358.98C133.736 358.773 132.788 358.202 132.062 357.269C131.351 356.321 130.995 355.165 130.995 353.802C130.995 352.78 131.203 351.869 131.617 351.069C132.047 350.269 132.632 349.647 133.373 349.202C134.128 348.743 134.98 348.513 135.928 348.513C136.877 348.513 137.721 348.743 138.462 349.202C139.217 349.647 139.81 350.269 140.24 351.069C140.669 351.869 140.884 352.78 140.884 353.802C140.884 355.15 140.514 356.299 139.773 357.247C139.047 358.195 138.099 358.773 136.928 358.98V362.269ZM135.928 350.402C135.025 350.402 134.299 350.728 133.751 351.38C133.203 352.017 132.928 352.825 132.928 353.802C132.928 354.78 133.203 355.595 133.751 356.247C134.299 356.884 135.025 357.202 135.928 357.202C136.832 357.202 137.558 356.884 138.106 356.247C138.669 355.595 138.951 354.78 138.951 353.802C138.951 352.825 138.669 352.017 138.106 351.38C137.558 350.728 136.832 350.402 135.928 350.402ZM263.27 365.247H261.359V348.18H263.27V365.247ZM259.314 348.269V364.958H257.425V357.247H255.381C255.321 359.721 254.973 361.543 254.336 362.713C253.699 363.884 252.781 364.469 251.581 364.469C250.336 364.469 249.396 363.825 248.759 362.536C248.121 361.247 247.803 359.239 247.803 356.513C247.803 353.788 248.121 351.78 248.759 350.491C249.396 349.202 250.336 348.558 251.581 348.558C252.736 348.558 253.625 349.099 254.247 350.18C254.884 351.262 255.255 352.943 255.359 355.225H257.425V348.269H259.314ZM251.581 362.558C252.233 362.558 252.714 362.069 253.025 361.091C253.336 360.099 253.492 358.573 253.492 356.513C253.492 354.454 253.336 352.936 253.025 351.958C252.714 350.965 252.233 350.469 251.581 350.469C250.944 350.469 250.47 350.965 250.159 351.958C249.847 352.936 249.692 354.454 249.692 356.513C249.692 358.573 249.847 360.099 250.159 361.091C250.47 362.069 250.944 362.558 251.581 362.558ZM280.534 365.247H278.534V356.247H274.423V354.291H278.534V348.18H280.534V365.247ZM272.045 348.647C272.015 350.988 271.86 353.113 271.578 355.025L276.623 363.113L274.934 364.269L270.934 357.647C270.356 359.662 269.593 361.239 268.645 362.38C267.697 363.521 266.593 364.143 265.334 364.247V362.091C266.327 361.928 267.171 361.239 267.867 360.025C268.564 358.795 269.089 357.195 269.445 355.225C269.801 353.239 269.986 351.025 270.001 348.58L272.045 348.647Z" fill="#5E5E5E"/>
<path d="M69.7843 398.047V406.247H67.7843V389.18H69.7843V396.025H72.0287V398.047H69.7843ZM62.2287 403.336C62.9991 403.336 63.7695 403.262 64.5398 403.113C65.3102 402.965 65.9398 402.765 66.4287 402.513V404.425C65.9547 404.676 65.3176 404.876 64.5176 405.025C63.7324 405.173 62.9324 405.247 62.1176 405.247H55.7843V389.78H65.1621V391.691H57.8065V403.336H62.2287ZM75.7597 394.047V395.802H87.9375V397.336H73.8042V392.625H85.7597V390.891H73.7819V389.358H87.7153V394.047H75.7597ZM72.6264 400.513V398.825H88.8486V400.513H72.6264ZM88.0264 404.336V406.047H73.7375V401.802H75.7819V404.336H88.0264ZM109.841 399.158H107.819V389.18H109.841V399.158ZM106.574 397.825C106.085 398.062 105.389 398.247 104.485 398.38C103.582 398.513 102.567 398.58 101.441 398.58H95.3519V389.58H105.441V391.225H97.3519V393.291H105.107V394.847H97.3519V396.913H101.596C102.663 396.913 103.633 396.854 104.507 396.736C105.382 396.602 106.07 396.417 106.574 396.18V397.825ZM109.841 400.069V406.047H95.9964V400.069H109.841ZM107.841 404.336V401.78H97.9741V404.336H107.841ZM125.55 389.18H127.55V402.513H125.55V401.447H120.683V399.891H125.55V389.18ZM118.016 395.869C116.564 395.869 115.394 395.58 114.505 395.002C113.616 394.41 113.172 393.58 113.172 392.513C113.172 391.462 113.616 390.647 114.505 390.069C115.394 389.476 116.564 389.18 118.016 389.18C119.468 389.18 120.631 389.476 121.505 390.069C122.379 390.647 122.816 391.462 122.816 392.513C122.816 393.58 122.379 394.41 121.505 395.002C120.631 395.58 119.468 395.869 118.016 395.869ZM118.016 390.802C117.142 390.802 116.438 390.95 115.905 391.247C115.387 391.543 115.127 391.965 115.127 392.513C115.127 393.076 115.387 393.506 115.905 393.802C116.438 394.099 117.142 394.247 118.016 394.247C118.875 394.247 119.564 394.099 120.083 393.802C120.601 393.506 120.861 393.076 120.861 392.513C120.861 391.965 120.601 391.543 120.083 391.247C119.564 390.95 118.875 390.802 118.016 390.802ZM112.216 398.713V397.025H119.016C121.49 397.025 123.224 396.795 124.216 396.336V398.047C123.253 398.491 121.401 398.713 118.661 398.713V401.758H116.661V398.713H112.216ZM127.95 406.047H113.683V400.825H115.705V404.247H127.95V406.047ZM132.969 390.958V393.247H145.081V394.847H130.969V389.358H144.903V390.958H132.969ZM129.814 397.869V396.269H146.036V397.869H129.814ZM132.881 403.269V404.602H145.214V406.047H130.925V402.002H142.992V400.691H130.881V399.269H144.947V403.269H132.881ZM155.523 389.091C157.671 389.091 159.397 389.343 160.7 389.847C162.004 390.336 162.656 391.113 162.656 392.18C162.656 393.262 162.004 394.054 160.7 394.558C159.397 395.047 157.671 395.291 155.523 395.291C153.375 395.291 151.641 395.047 150.323 394.558C149.019 394.054 148.367 393.262 148.367 392.18C148.367 391.113 149.019 390.336 150.323 389.847C151.641 389.343 153.375 389.091 155.523 389.091ZM155.523 390.669C154.026 390.669 152.812 390.795 151.878 391.047C150.945 391.284 150.478 391.662 150.478 392.18C150.478 392.699 150.937 393.084 151.856 393.336C152.789 393.573 154.012 393.691 155.523 393.691C157.034 393.691 158.249 393.573 159.167 393.336C160.1 393.084 160.567 392.699 160.567 392.18C160.567 391.662 160.1 391.284 159.167 391.047C158.234 390.795 157.019 390.669 155.523 390.669ZM147.412 397.958V396.336H163.634V397.958H147.412ZM150.5 403.269V404.58H162.812V406.047H148.523V402.025H160.567V400.736H148.478V399.291H162.545V403.269H150.5ZM170.47 391.513V389.558H184.493V397.358H182.426V391.513H170.47ZM178.448 400.758V406.647H176.382V400.758H169.404V398.758H185.626V400.758H178.448ZM195.313 391.78V393.669H186.646V391.78H189.979V389.136H191.979V391.78H195.313ZM202.668 406.247H200.801V397.98H198.313V405.958H196.468V389.269H198.313V396.002H200.801V389.18H202.668V406.247ZM191.068 394.958C191.809 394.958 192.461 395.165 193.024 395.58C193.601 395.98 194.053 396.573 194.379 397.358C194.705 398.143 194.868 399.091 194.868 400.202C194.868 401.313 194.705 402.262 194.379 403.047C194.053 403.832 193.601 404.432 193.024 404.847C192.461 405.247 191.809 405.447 191.068 405.447C189.942 405.447 189.031 404.995 188.335 404.091C187.638 403.173 187.29 401.876 187.29 400.202C187.29 398.528 187.638 397.239 188.335 396.336C189.031 395.417 189.942 394.958 191.068 394.958ZM191.068 403.602C191.646 403.602 192.113 403.306 192.468 402.713C192.838 402.106 193.024 401.269 193.024 400.202C193.024 399.136 192.838 398.299 192.468 397.691C192.113 397.084 191.646 396.78 191.068 396.78C190.49 396.78 190.016 397.084 189.646 397.691C189.29 398.299 189.113 399.136 189.113 400.202C189.113 401.269 189.29 402.106 189.646 402.713C190.016 403.306 190.49 403.602 191.068 403.602ZM220.821 405.447H204.599V403.469H211.688V399.736H205.666V389.669H207.643V392.647H217.777V389.669H219.755V399.736H213.71V403.469H220.821V405.447ZM217.777 397.847V394.536H207.643V397.847H217.777ZM236.952 398.047V406.247H234.952V389.18H236.952V396.025H239.197V398.047H236.952ZM227.552 389.558C229.049 389.558 230.226 390.225 231.086 391.558C231.96 392.891 232.397 394.876 232.397 397.513C232.397 400.15 231.96 402.136 231.086 403.469C230.226 404.802 229.049 405.469 227.552 405.469C226.071 405.469 224.893 404.802 224.019 403.469C223.145 402.136 222.708 400.15 222.708 397.513C222.708 394.876 223.145 392.891 224.019 391.558C224.893 390.225 226.071 389.558 227.552 389.558ZM227.552 403.536C228.412 403.536 229.1 403.047 229.619 402.069C230.137 401.076 230.397 399.558 230.397 397.513C230.397 395.469 230.137 393.958 229.619 392.98C229.1 391.988 228.412 391.491 227.552 391.491C226.678 391.491 225.982 391.988 225.463 392.98C224.945 393.958 224.686 395.469 224.686 397.513C224.686 399.558 224.945 401.076 225.463 402.069C225.982 403.047 226.678 403.536 227.552 403.536ZM256.017 405.447H239.794V403.513H243.461V398.936C242.543 398.491 241.831 397.906 241.328 397.18C240.824 396.439 240.572 395.595 240.572 394.647C240.572 393.61 240.876 392.699 241.483 391.913C242.091 391.128 242.943 390.521 244.039 390.091C245.15 389.662 246.439 389.447 247.905 389.447C249.372 389.447 250.654 389.662 251.75 390.091C252.861 390.521 253.72 391.128 254.328 391.913C254.935 392.699 255.239 393.61 255.239 394.647C255.239 395.595 254.987 396.439 254.483 397.18C253.98 397.906 253.268 398.491 252.35 398.936V403.513H256.017V405.447ZM247.905 391.358C246.868 391.358 245.957 391.499 245.172 391.78C244.387 392.047 243.772 392.432 243.328 392.936C242.898 393.425 242.683 393.995 242.683 394.647C242.683 395.299 242.898 395.876 243.328 396.38C243.772 396.884 244.387 397.276 245.172 397.558C245.972 397.825 246.883 397.958 247.905 397.958C248.943 397.958 249.854 397.825 250.639 397.558C251.424 397.276 252.031 396.891 252.461 396.402C252.905 395.899 253.128 395.313 253.128 394.647C253.128 393.654 252.646 392.862 251.683 392.269C250.735 391.662 249.476 391.358 247.905 391.358ZM250.35 403.513V399.602C249.683 399.765 248.868 399.847 247.905 399.847C246.957 399.847 246.15 399.765 245.483 399.602V403.513H250.35ZM260.925 389.936L260.525 400.625H258.859L258.459 389.936H260.925ZM259.681 405.602C259.266 405.602 258.925 405.476 258.659 405.225C258.392 404.958 258.259 404.632 258.259 404.247C258.259 403.862 258.392 403.543 258.659 403.291C258.925 403.025 259.266 402.891 259.681 402.891C260.096 402.891 260.436 403.025 260.703 403.291C260.985 403.543 261.125 403.862 261.125 404.247C261.125 404.632 260.985 404.958 260.703 405.225C260.436 405.476 260.096 405.602 259.681 405.602Z" fill="#5E5E5E"/>
<defs>
<filter id="filter0_d_567_3879" x="19.4829" y="0.27317" width="278.034" height="206.525" filterUnits="userSpaceOnUse" color-interpolation-filters="sRGB">
<feFlood flood-opacity="0" result="BackgroundImageFix"/>
<feColorMatrix in="SourceAlpha" type="matrix" values="0 0 0 0 0 0 0 0 0 0 0 0 0 0 0 0 0 0 127 0" result="hardAlpha"/>
<feOffset dy="-1.20976"/>
<feGaussianBlur stdDeviation="7.25854"/>
<feComposite in2="hardAlpha" operator="out"/>
<feColorMatrix type="matrix" values="0 0 0 0 0 0 0 0 0 0 0 0 0 0 0 0 0 0 0.04 0"/>
<feBlend mode="normal" in2="BackgroundImageFix" result="effect1_dropShadow_567_3879"/>
<feBlend mode="normal" in="SourceGraphic" in2="effect1_dropShadow_567_3879" result="shape"/>
</filter>
</defs>
</svg>
