<svg width="317" height="395" viewBox="0 0 317 395" fill="none" xmlns="http://www.w3.org/2000/svg">
<circle cx="157.5" cy="35" r="34.4167" fill="#ADD8F6" stroke="#F2F2F2" stroke-width="1.16667"/>
<path fill-rule="evenodd" clip-rule="evenodd" d="M157.499 19.4446C158.358 19.4446 159.055 20.141 159.055 21.0001V22.5557H160.61C163.188 22.5557 165.277 24.645 165.277 27.2224V28.7779C167.854 28.7779 169.944 30.8673 169.944 33.4446V37.0002L170.159 37.0616C172.198 37.6443 173.395 39.7536 172.848 41.8029L171.551 46.6673C172.102 46.6862 172.626 46.9985 172.891 47.5267C173.275 48.2951 172.963 49.2295 172.195 49.6137L172.031 49.6958C170.774 50.324 169.305 50.3514 168.03 49.7779H167.999L168.002 49.7655C167.954 49.7432 167.905 49.7199 167.857 49.6958L167.528 49.5316C167.09 49.3126 166.575 49.3126 166.137 49.5316L165.808 49.6958C164.495 50.3527 162.948 50.3527 161.634 49.6958L161.306 49.5316C160.868 49.3126 160.353 49.3126 159.915 49.5316L159.586 49.6958C158.272 50.3527 156.726 50.3527 155.412 49.6958L155.084 49.5316C154.646 49.3126 154.13 49.3126 153.692 49.5316L153.364 49.6958C152.05 50.3527 150.504 50.3527 149.19 49.6958L148.862 49.5316C148.424 49.3126 147.908 49.3126 147.47 49.5316L147.142 49.6958C147.094 49.7199 147.045 49.7431 146.996 49.7655L146.999 49.7779H146.969C145.694 50.3514 144.224 50.324 142.968 49.6958L142.804 49.6137C142.035 49.2295 141.724 48.2951 142.108 47.5267C142.372 46.9985 142.896 46.6862 143.448 46.6673L142.15 41.8029C141.604 39.7536 142.8 37.6443 144.84 37.0616L145.055 37.0001V33.4446C145.055 30.8673 147.144 28.7779 149.722 28.7779V27.2224C149.722 24.645 151.811 22.5557 154.388 22.5557H155.944V21.0001C155.944 20.141 156.64 19.4446 157.499 19.4446ZM146.627 46.5171C147.81 46.1042 149.118 46.1814 150.253 46.7489L150.581 46.9131C151.019 47.1321 151.535 47.1321 151.973 46.9131L152.301 46.7489C153.615 46.092 155.161 46.092 156.475 46.7489L156.804 46.9131C157.242 47.1321 157.757 47.1321 158.195 46.9131L158.523 46.7489C159.837 46.092 161.384 46.092 162.697 46.7489L163.026 46.9131C163.464 47.1321 163.979 47.1321 164.417 46.9131L164.746 46.7489C165.881 46.1814 167.189 46.1042 168.371 46.5171L169.842 41.0013C169.951 40.5914 169.712 40.1696 169.304 40.0531L157.927 36.8023C157.647 36.7225 157.351 36.7225 157.072 36.8023L145.694 40.0531C145.286 40.1696 145.047 40.5914 145.156 41.0013L146.627 46.5171ZM148.166 36.1113L156.217 33.8109C157.055 33.5715 157.943 33.5715 158.781 33.8109L166.833 36.1113V33.4446C166.833 32.5855 166.136 31.889 165.277 31.889H149.722C148.862 31.889 148.166 32.5855 148.166 33.4446V36.1113ZM152.833 27.2224C152.833 26.3632 153.529 25.6668 154.388 25.6668H160.61C161.47 25.6668 162.166 26.3632 162.166 27.2224V28.7779H152.833V27.2224Z" fill="#8B8585"/>
<circle cx="201.5" cy="184" r="34.4167" fill="#D6E8F4" stroke="#F2F2F2" stroke-width="1.16667"/>
<path d="M217.449 183.602L206.75 178.251V172.333C206.75 170.941 206.197 169.606 205.212 168.621C204.227 167.636 202.892 167.083 201.5 167.083C200.107 167.083 198.772 167.636 197.787 168.621C196.803 169.606 196.25 170.941 196.25 172.333V178.251L185.55 183.602C185.259 183.747 185.015 183.971 184.844 184.247C184.674 184.523 184.583 184.842 184.583 185.167V189.833C184.583 190.092 184.64 190.348 184.751 190.582C184.862 190.816 185.023 191.022 185.223 191.187C185.423 191.351 185.657 191.469 185.909 191.531C186.16 191.594 186.422 191.6 186.676 191.55L196.25 189.635V191.437L194.428 193.262C194.266 193.424 194.137 193.617 194.049 193.83C193.961 194.042 193.916 194.27 193.916 194.5V199.167C193.916 199.453 193.986 199.734 194.121 199.987C194.255 200.24 194.449 200.455 194.685 200.616C194.922 200.776 195.195 200.876 195.479 200.907C195.764 200.937 196.051 200.897 196.317 200.791L201.5 198.717L206.683 200.791C206.889 200.874 207.11 200.917 207.333 200.917C207.797 200.917 208.242 200.732 208.57 200.404C208.899 200.076 209.083 199.631 209.083 199.167V194.5C209.083 194.27 209.038 194.042 208.95 193.83C208.862 193.617 208.734 193.424 208.571 193.262L206.75 191.437V189.635L216.324 191.55C216.578 191.6 216.84 191.594 217.091 191.531C217.342 191.469 217.576 191.351 217.776 191.187C217.976 191.022 218.138 190.816 218.248 190.582C218.359 190.348 218.416 190.092 218.416 189.833V185.167C218.416 184.842 218.326 184.523 218.155 184.247C217.984 183.971 217.74 183.747 217.449 183.602ZM214.916 187.698L205.342 185.783C205.088 185.733 204.827 185.739 204.575 185.802C204.324 185.865 204.09 185.982 203.89 186.146C203.69 186.311 203.528 186.517 203.418 186.751C203.307 186.985 203.25 187.241 203.25 187.5V192.167C203.249 192.396 203.295 192.624 203.382 192.837C203.47 193.049 203.599 193.242 203.762 193.405L205.583 195.229V196.587L202.15 195.213C201.733 195.046 201.267 195.046 200.849 195.213L197.416 196.582V195.229L199.238 193.409C199.401 193.246 199.53 193.052 199.618 192.839C199.706 192.626 199.75 192.397 199.75 192.167V187.5C199.75 187.241 199.692 186.985 199.582 186.751C199.471 186.517 199.31 186.311 199.109 186.146C198.909 185.982 198.675 185.865 198.424 185.802C198.173 185.739 197.911 185.733 197.657 185.783L188.083 187.698V186.249L198.783 180.898C199.073 180.753 199.318 180.529 199.488 180.253C199.659 179.977 199.75 179.658 199.75 179.333V172.333C199.75 171.869 199.934 171.424 200.262 171.096C200.59 170.768 201.036 170.583 201.5 170.583C201.964 170.583 202.409 170.768 202.737 171.096C203.065 171.424 203.25 171.869 203.25 172.333V179.333C203.25 179.658 203.34 179.977 203.511 180.253C203.682 180.529 203.926 180.753 204.217 180.898L214.916 186.249V187.698Z" fill="#64ADDA"/>
<circle cx="81.5" cy="99" r="34.4167" fill="#FAC5AA" stroke="#F2F2F2" stroke-width="1.16667"/>
<path opacity="0.2" d="M81.5 81.9375C81.5 81.9375 74.9375 85.875 74.9375 97.6875H65.75C65.75 93.5103 67.4094 89.5043 70.3631 86.5506C73.3168 83.5969 77.3228 81.9375 81.5 81.9375ZM81.5 81.9375C81.5 81.9375 88.0625 85.875 88.0625 97.6875H97.25C97.25 93.5103 95.5906 89.5043 92.6369 86.5506C89.6832 83.5969 85.6772 81.9375 81.5 81.9375Z" fill="#F27F6B"/>
<path d="M98.5625 97.6875C98.5573 93.1638 96.758 88.827 93.5593 85.6282C90.3605 82.4295 86.0237 80.6302 81.5 80.625C76.9763 80.6302 72.6395 82.4295 69.4407 85.6282C66.242 88.827 64.4427 93.1638 64.4375 97.6875C64.4377 97.8882 64.484 98.0862 64.5727 98.2663C64.6615 98.4463 64.7903 98.6036 64.9494 98.726L64.9625 98.7375L80.1875 110.156V113.438H78.875C78.5269 113.438 78.1931 113.576 77.9469 113.822C77.7008 114.068 77.5625 114.402 77.5625 114.75C77.5625 115.098 77.7008 115.432 77.9469 115.678C78.1931 115.924 78.5269 116.063 78.875 116.063H84.125C84.4731 116.063 84.8069 115.924 85.0531 115.678C85.2992 115.432 85.4375 115.098 85.4375 114.75C85.4375 114.402 85.2992 114.068 85.0531 113.822C84.8069 113.576 84.4731 113.438 84.125 113.438H82.8125V110.156L98.0375 98.7375C98.2005 98.6152 98.3328 98.4567 98.4239 98.2745C98.5151 98.0922 98.5625 97.8913 98.5625 97.6875ZM95.8784 96.375H89.3471C89.0945 90.1488 87.065 86.1326 85.2275 83.7422C88.08 84.5091 90.6294 86.1306 92.5334 88.3889C94.4374 90.6471 95.6047 93.4339 95.8784 96.375ZM81.5 83.5781C82.3791 84.355 83.1456 85.2506 83.7772 86.2392C85.0257 88.1719 86.4957 91.4318 86.7205 96.375H76.2795C76.5043 91.4318 77.9743 88.1719 79.2228 86.2458C79.854 85.2549 80.6205 84.357 81.5 83.5781ZM85.8313 99L81.5 106.798L77.1688 99H85.8313ZM74.1648 99L77.364 104.757L69.6875 99H74.1648ZM88.8352 99H93.3125L85.636 104.757L88.8352 99ZM77.7725 83.7422C75.935 86.1326 73.9055 90.1488 73.6529 96.375H67.1216C67.3953 93.4339 68.5626 90.6471 70.4666 88.3889C72.3706 86.1306 74.92 84.5091 77.7725 83.7422Z" fill="#F27F6B"/>
<circle cx="114.5" cy="184" r="34.4167" fill="#B8B4B1" stroke="#F2F2F2" stroke-width="1.16667"/>
<path d="M130.834 177.583H129.915L128.659 171.722C128.517 171.071 128.156 170.488 127.638 170.069C127.119 169.649 126.474 169.42 125.807 169.417H103.194C102.527 169.42 101.881 169.649 101.363 170.069C100.844 170.488 100.484 171.071 100.341 171.722L99.0857 177.583H98.167C97.7029 177.583 97.2577 177.768 96.9296 178.096C96.6014 178.424 96.417 178.869 96.417 179.333C96.417 179.798 96.6014 180.243 96.9296 180.571C97.2577 180.899 97.7029 181.083 98.167 181.083H98.7503V194.5C98.7503 195.274 99.0576 196.015 99.6046 196.562C100.152 197.109 100.893 197.417 101.667 197.417H105.75C106.524 197.417 107.266 197.109 107.813 196.562C108.36 196.015 108.667 195.274 108.667 194.5V191.583H120.334V194.5C120.334 195.274 120.641 196.015 121.188 196.562C121.735 197.109 122.477 197.417 123.25 197.417H127.334C128.107 197.417 128.849 197.109 129.396 196.562C129.943 196.015 130.25 195.274 130.25 194.5V181.083H130.834C131.298 181.083 131.743 180.899 132.071 180.571C132.399 180.243 132.584 179.798 132.584 179.333C132.584 178.869 132.399 178.424 132.071 178.096C131.743 177.768 131.298 177.583 130.834 177.583ZM103.665 172.917H125.336L126.336 177.583H102.664L103.665 172.917ZM105.167 193.917H102.25V191.583H105.167V193.917ZM123.834 193.917V191.583H126.75V193.917H123.834ZM126.75 188.083H122.084V184.583C122.084 184.119 121.899 183.674 121.571 183.346C121.243 183.018 120.798 182.833 120.334 182.833C119.87 182.833 119.424 183.018 119.096 183.346C118.768 183.674 118.584 184.119 118.584 184.583V188.083H116.25V184.583C116.25 184.119 116.066 183.674 115.738 183.346C115.41 183.018 114.964 182.833 114.5 182.833C114.036 182.833 113.591 183.018 113.263 183.346C112.935 183.674 112.75 184.119 112.75 184.583V188.083H110.417V184.583C110.417 184.119 110.233 183.674 109.904 183.346C109.576 183.018 109.131 182.833 108.667 182.833C108.203 182.833 107.758 183.018 107.43 183.346C107.101 183.674 106.917 184.119 106.917 184.583V188.083H102.25V181.083H126.75V188.083Z" fill="#726E67"/>
<circle cx="235.5" cy="99" r="34.4167" fill="#CCDFBA" stroke="#F2F2F2" stroke-width="1.16667"/>
<path d="M244.833 95.4999H240.75V88.4999C240.75 88.1169 240.675 87.7376 240.528 87.3838C240.381 87.0299 240.167 86.7084 239.896 86.4375C239.625 86.1667 239.303 85.9518 238.949 85.8053C238.596 85.6587 238.216 85.5833 237.833 85.5833H221.5C221.216 85.5833 220.937 85.6525 220.685 85.7847C220.434 85.9169 220.219 86.1082 220.058 86.3422C219.897 86.5762 219.796 86.8457 219.763 87.1276C219.729 87.4095 219.765 87.6953 219.867 87.9603C221.453 92.1005 221.077 99.3878 219.819 103.766C219.773 103.923 219.75 104.086 219.75 104.25V109.5C219.75 110.273 220.057 111.015 220.604 111.562C221.151 112.109 221.893 112.417 222.667 112.417H226.474C226.93 112.417 227.379 112.312 227.787 112.109L229.496 111.25H231.587L233.304 112.109C233.712 112.312 234.161 112.417 234.616 112.417H238.732C239.185 112.416 239.631 112.311 240.037 112.109L241.746 111.25H243.837L245.554 112.109C245.959 112.311 246.406 112.416 246.859 112.417H250.667C251.44 112.417 252.182 112.109 252.729 111.562C253.276 111.015 253.583 110.273 253.583 109.5V104.25C253.581 101.93 252.658 99.7061 251.018 98.0657C249.377 96.4254 247.153 95.5026 244.833 95.4999ZM223.833 89.0833H237.25V95.4999H233.75C233.286 95.4999 232.841 95.6843 232.513 96.0125C232.184 96.3407 232 96.7858 232 97.2499C232 97.714 232.184 98.1592 232.513 98.4874C232.841 98.8155 233.286 98.9999 233.75 98.9999H244.833C245.919 99.0014 246.977 99.3386 247.863 99.9652C248.749 100.592 249.42 101.477 249.783 102.5H223.718C224.526 98.4283 224.742 93.2264 223.833 89.0833ZM250.083 108.917H246.996L245.28 108.058C244.874 107.856 244.427 107.751 243.974 107.75H241.609C241.156 107.751 240.709 107.856 240.304 108.058L238.587 108.917H234.746L233.03 108.058C232.622 107.855 232.173 107.749 231.717 107.75H229.359C228.904 107.749 228.454 107.855 228.046 108.058L226.337 108.917H223.25V106H250.083V108.917Z" fill="#8C7249"/>
<path d="M38.2355 336.907H34.8755V326.587H30.5022V323.28H34.8755V316.427H38.2355V336.907ZM28.1289 316.96C28.1289 319.662 27.9511 322.16 27.5955 324.453L33.3822 333.947L30.4755 335.867L26.4489 328.88C25.7022 331.084 24.7333 332.791 23.5422 334C22.3689 335.191 21.0355 335.813 19.5422 335.867V332.187C20.5911 332.044 21.4977 331.307 22.2622 329.973C23.0444 328.622 23.6489 326.818 24.0755 324.56C24.5022 322.284 24.7155 319.716 24.7155 316.853L28.1289 316.96ZM59.2194 336.907H55.8594V316.427H59.2194V336.907ZM52.9527 316.933V335.867H41.5394V316.933H44.8727V323.28H49.6194V316.933H52.9527ZM49.6194 326.507H44.8727V332.613H49.6194V326.507ZM71.3766 323.92C70.221 325.627 68.8343 326.969 67.2166 327.947C65.5988 328.924 63.8921 329.422 62.0966 329.44V326.08C63.4121 326.08 64.6743 325.662 65.8832 324.827C67.0921 323.973 68.1143 322.818 68.9499 321.36C69.7855 319.884 70.3277 318.231 70.5766 316.4L74.0166 316.96C73.8032 318.4 73.4121 319.796 72.8432 321.147L81.2432 326.667L79.4566 329.52L71.3766 323.92ZM81.3499 332.8V336.107H61.7232V332.8H81.3499ZM87.4004 321.467V322.453H101.427V324.56H84.1204V319.573H97.9604V318.613H84.0671V316.507H101.214V321.467H87.4004ZM82.8404 327.867V325.493H102.467V327.867H82.8404ZM87.3204 333.76V334.72H101.507V336.827H84.0671V331.867H98.0138V330.907H84.0137V328.827H101.267V333.76H87.3204ZM124.484 336.907V316.427H127.871V336.907H124.484ZM115.951 316.747C117.818 316.747 119.284 317.556 120.351 319.173C121.435 320.773 121.978 323.191 121.978 326.427C121.978 329.662 121.435 332.089 120.351 333.707C119.284 335.307 117.818 336.107 115.951 336.107C114.067 336.107 112.582 335.307 111.498 333.707C110.431 332.089 109.898 329.662 109.898 326.427C109.898 323.191 110.431 320.773 111.498 319.173C112.582 317.556 114.067 316.747 115.951 316.747ZM115.951 319.973C115.115 319.973 114.449 320.489 113.951 321.52C113.471 322.533 113.231 324.169 113.231 326.427C113.231 328.702 113.471 330.347 113.951 331.36C114.449 332.373 115.115 332.88 115.951 332.88C116.769 332.88 117.427 332.373 117.924 331.36C118.422 330.329 118.671 328.684 118.671 326.427C118.671 324.187 118.422 322.551 117.924 321.52C117.427 320.489 116.769 319.973 115.951 319.973ZM149.975 328.293H130.348V325.547H134.162V323.44C132.295 322.747 131.362 321.68 131.362 320.24C131.362 318.853 132.162 317.822 133.762 317.147C135.362 316.471 137.495 316.133 140.162 316.133C142.81 316.133 144.935 316.471 146.535 317.147C148.153 317.822 148.962 318.853 148.962 320.24C148.962 321.68 148.028 322.747 146.162 323.44V325.547H149.975V328.293ZM140.162 318.827C138.562 318.827 137.29 318.942 136.348 319.173C135.406 319.404 134.935 319.76 134.935 320.24C134.935 320.72 135.406 321.076 136.348 321.307C137.29 321.52 138.562 321.627 140.162 321.627C141.762 321.627 143.024 321.52 143.948 321.307C144.89 321.076 145.362 320.72 145.362 320.24C145.362 319.76 144.89 319.404 143.948 319.173C143.024 318.942 141.762 318.827 140.162 318.827ZM142.802 325.547V324.187C142.144 324.276 141.264 324.32 140.162 324.32C139.077 324.32 138.197 324.276 137.522 324.187V325.547H142.802ZM140.162 329.253C146.01 329.253 148.935 330.56 148.935 333.173C148.935 334.56 148.153 335.556 146.588 336.16C145.024 336.782 142.882 337.093 140.162 337.093C137.442 337.093 135.29 336.782 133.708 336.16C132.144 335.538 131.362 334.542 131.362 333.173C131.362 330.56 134.295 329.253 140.162 329.253ZM140.162 334.427C143.628 334.427 145.362 334.009 145.362 333.173C145.362 332.338 143.628 331.92 140.162 331.92C138.562 331.92 137.29 332.018 136.348 332.213C135.406 332.409 134.935 332.729 134.935 333.173C134.935 333.618 135.406 333.938 136.348 334.133C137.29 334.329 138.562 334.427 140.162 334.427ZM164.532 319.093V322.347H151.892V319.093H156.479V316.347H159.919V319.093H164.532ZM169.545 327.573V336.907H166.185V316.427H169.545V324.16H171.972V327.573H169.545ZM158.212 323.44C159.314 323.44 160.283 323.716 161.119 324.267C161.972 324.8 162.63 325.547 163.092 326.507C163.554 327.467 163.785 328.551 163.785 329.76C163.785 330.987 163.554 332.08 163.092 333.04C162.63 334 161.972 334.756 161.119 335.307C160.283 335.84 159.314 336.107 158.212 336.107C157.092 336.107 156.105 335.84 155.252 335.307C154.417 334.756 153.768 334 153.305 333.04C152.843 332.08 152.612 330.987 152.612 329.76C152.612 328.551 152.843 327.467 153.305 326.507C153.768 325.547 154.417 324.8 155.252 324.267C156.105 323.716 157.092 323.44 158.212 323.44ZM158.212 333.067C158.923 333.067 159.492 332.764 159.919 332.16C160.345 331.556 160.559 330.756 160.559 329.76C160.559 328.764 160.345 327.973 159.919 327.387C159.492 326.782 158.923 326.48 158.212 326.48C157.483 326.48 156.905 326.782 156.479 327.387C156.052 327.973 155.839 328.764 155.839 329.76C155.839 330.756 156.052 331.556 156.479 332.16C156.923 332.764 157.501 333.067 158.212 333.067ZM191.329 336.907H187.969V327.547H184.849V324.08H187.969V316.427H191.329V336.907ZM180.956 332.693C181.863 332.693 182.778 332.604 183.703 332.427C184.627 332.249 185.391 332.018 185.996 331.733V334.88C185.409 335.182 184.636 335.422 183.676 335.6C182.716 335.778 181.729 335.867 180.716 335.867H173.436V324.8H180.449V320.187H173.383V316.987H183.809V327.947H176.796V332.693H180.956ZM217.053 327.573V336.907H213.693V316.427H217.053V324.16H219.48V327.573H217.053ZM210.467 316.987V322.347C210.467 325.084 210.022 327.467 209.133 329.493C208.262 331.52 207 333.084 205.347 334.187C203.711 335.289 201.782 335.84 199.56 335.84V332.48C201.96 332.48 203.8 331.591 205.08 329.813C206.378 328.018 207.027 325.538 207.027 322.373V320.213H199.56V316.987H210.467ZM239.717 327.627H220.09V325.04H228.224V323.867H221.344V316.453H224.65V317.787H235.157V316.453H238.464V323.867H231.584V325.04H239.717V327.627ZM235.157 321.413V320.133H224.65V321.413H235.157ZM238.757 334.613V336.827H221.317V331.733H235.21V330.773H221.264V328.587H238.517V333.653H224.624V334.613H238.757ZM259.394 327.573V336.907H256.114V316.427H259.394V324.16H261.714V327.573H259.394ZM247.394 316.987V321.813C247.394 326.133 246.932 329.422 246.008 331.68C245.083 333.92 243.599 335.067 241.554 335.12V331.867C242.479 331.653 243.136 330.756 243.528 329.173C243.936 327.591 244.141 325.244 244.141 322.133V320.187H241.554V316.987H247.394ZM253.954 316.987V322.027C253.954 326.418 253.421 329.804 252.354 332.187C251.288 334.551 249.652 335.769 247.448 335.84V332.587C249.616 332.196 250.701 328.782 250.701 322.347V320.187H248.194V316.987H253.954ZM281.951 336.107H262.325V332.853H266.325V328.053C265.311 327.484 264.529 326.764 263.978 325.893C263.427 325.022 263.151 324.044 263.151 322.96C263.151 321.698 263.525 320.587 264.271 319.627C265.018 318.649 266.067 317.893 267.418 317.36C268.787 316.827 270.36 316.56 272.138 316.56C273.916 316.56 275.48 316.827 276.831 317.36C278.2 317.893 279.258 318.649 280.005 319.627C280.751 320.587 281.125 321.698 281.125 322.96C281.125 324.062 280.849 325.049 280.298 325.92C279.747 326.773 278.956 327.484 277.925 328.053V332.853H281.951V336.107ZM272.138 319.733C270.52 319.733 269.205 320.036 268.191 320.64C267.196 321.227 266.698 322 266.698 322.96C266.698 323.938 267.196 324.729 268.191 325.333C269.205 325.92 270.52 326.213 272.138 326.213C273.756 326.213 275.063 325.92 276.058 325.333C277.071 324.729 277.578 323.938 277.578 322.96C277.578 322 277.071 321.227 276.058 320.64C275.063 320.036 273.756 319.733 272.138 319.733ZM274.565 332.853V329.2C273.871 329.324 273.063 329.387 272.138 329.387C271.214 329.387 270.405 329.324 269.711 329.2V332.853H274.565ZM288.615 329.733C288.615 329.076 288.731 328.489 288.962 327.973C289.193 327.44 289.469 326.996 289.789 326.64C290.126 326.267 290.562 325.84 291.095 325.36C291.718 324.809 292.18 324.329 292.482 323.92C292.784 323.511 292.935 323.04 292.935 322.507C292.935 321.778 292.642 321.191 292.055 320.747C291.469 320.302 290.686 320.08 289.709 320.08C287.913 320.08 286.526 320.756 285.549 322.107L282.749 320.453C283.495 319.369 284.482 318.533 285.709 317.947C286.935 317.342 288.393 317.04 290.082 317.04C292.091 317.04 293.691 317.476 294.882 318.347C296.091 319.2 296.695 320.391 296.695 321.92C296.695 322.649 296.571 323.289 296.322 323.84C296.091 324.391 295.798 324.862 295.442 325.253C295.104 325.627 294.66 326.062 294.109 326.56C293.415 327.182 292.909 327.716 292.589 328.16C292.269 328.587 292.109 329.111 292.109 329.733H288.615ZM290.375 336.187C289.718 336.187 289.175 335.982 288.749 335.573C288.322 335.147 288.109 334.631 288.109 334.027C288.109 333.404 288.322 332.898 288.749 332.507C289.175 332.098 289.718 331.893 290.375 331.893C291.033 331.893 291.575 332.098 292.002 332.507C292.446 332.898 292.669 333.404 292.669 334.027C292.669 334.631 292.446 335.147 292.002 335.573C291.575 335.982 291.033 336.187 290.375 336.187Z" fill="#4196FD"/>
<path d="M83.0894 364.789V370.529H81.6894V358.582H83.0894V363.373H84.6605V364.789H83.0894ZM79.3717 359.002V361.911C79.3717 363.498 79.1228 364.887 78.625 366.08C78.1272 367.262 77.4117 368.18 76.4783 368.833C75.545 369.476 74.4405 369.798 73.165 369.798V368.398C74.1709 368.398 75.0317 368.139 75.7472 367.62C76.4731 367.091 77.0228 366.344 77.3961 365.38C77.7694 364.405 77.9561 363.259 77.9561 361.942V360.34H73.165V359.002H79.3717ZM95.7345 364.789H94.3189V358.582H95.7345V364.789ZM92.3745 361.662C92.3745 362.253 92.2293 362.777 91.9389 363.233C91.6485 363.679 91.2337 364.027 90.6945 364.276C90.1552 364.524 89.5226 364.649 88.7967 364.649C88.0811 364.649 87.4537 364.524 86.9145 364.276C86.3752 364.027 85.9604 363.679 85.67 363.233C85.3796 362.777 85.2345 362.253 85.2345 361.662C85.2345 361.081 85.3796 360.568 85.67 360.122C85.9604 359.666 86.3752 359.313 86.9145 359.064C87.4537 358.816 88.0811 358.691 88.7967 358.691C89.5122 358.691 90.1396 358.816 90.6789 359.064C91.2285 359.313 91.6485 359.666 91.9389 360.122C92.2293 360.568 92.3745 361.081 92.3745 361.662ZM86.6345 361.662C86.6345 362.212 86.8315 362.647 87.2256 362.969C87.6196 363.28 88.1433 363.436 88.7967 363.436C89.4604 363.436 89.9893 363.28 90.3833 362.969C90.7774 362.647 90.9745 362.212 90.9745 361.662C90.9745 361.113 90.7774 360.682 90.3833 360.371C89.9893 360.05 89.4604 359.889 88.7967 359.889C88.1537 359.889 87.63 360.05 87.2256 360.371C86.8315 360.682 86.6345 361.113 86.6345 361.662ZM95.7345 365.302V370.389H86.1678V365.302H87.5522V366.562H94.35V365.302H95.7345ZM94.35 367.744H87.5522V369.191H94.35V367.744ZM105.019 360.387V361.74H97.6617V360.387H100.617V358.536H102.048V360.387H105.019ZM107.726 364.789V370.529H106.326V358.582H107.726V363.373H109.297V364.789H107.726ZM101.333 362.658C101.945 362.658 102.489 362.813 102.966 363.124C103.454 363.425 103.832 363.856 104.102 364.416C104.371 364.965 104.506 365.598 104.506 366.313C104.506 367.029 104.371 367.667 104.102 368.227C103.832 368.776 103.454 369.207 102.966 369.518C102.489 369.819 101.945 369.969 101.333 369.969C100.721 369.969 100.171 369.819 99.6839 369.518C99.2069 369.207 98.8336 368.776 98.5639 368.227C98.2943 367.667 98.1595 367.029 98.1595 366.313C98.1595 365.598 98.2943 364.965 98.5639 364.416C98.8336 363.856 99.2069 363.425 99.6839 363.124C100.171 362.813 100.721 362.658 101.333 362.658ZM101.333 368.678C101.862 368.678 102.297 368.46 102.639 368.024C102.982 367.589 103.153 367.019 103.153 366.313C103.153 365.598 102.982 365.022 102.639 364.587C102.297 364.151 101.862 363.933 101.333 363.933C100.804 363.933 100.368 364.151 100.026 364.587C99.6839 365.022 99.5128 365.598 99.5128 366.313C99.5128 367.019 99.6839 367.589 100.026 368.024C100.368 368.46 100.804 368.678 101.333 368.678ZM120.371 370.529H118.956V358.582H120.371V370.529ZM114.616 360.356C114.595 361.756 114.481 362.995 114.273 364.073L117.945 368.864L116.84 369.736L113.822 365.722C113.428 366.956 112.899 367.926 112.236 368.631C111.582 369.326 110.83 369.725 109.98 369.829V368.351C110.623 368.227 111.183 367.812 111.66 367.107C112.147 366.401 112.521 365.468 112.78 364.307C113.05 363.135 113.195 361.818 113.216 360.356H110.245V359.002H117.493V360.356H114.616ZM137.01 362.331H135.439V364.509H134.039V358.582H135.439V360.916H137.01V362.331ZM132.172 361.662C132.172 362.253 132.027 362.772 131.737 363.218C131.457 363.664 131.052 364.011 130.523 364.26C129.995 364.509 129.372 364.633 128.657 364.633C127.952 364.633 127.335 364.509 126.806 364.26C126.277 364.011 125.867 363.664 125.577 363.218C125.286 362.772 125.141 362.253 125.141 361.662C125.141 361.081 125.286 360.568 125.577 360.122C125.867 359.666 126.277 359.313 126.806 359.064C127.335 358.816 127.952 358.691 128.657 358.691C129.362 358.691 129.979 358.816 130.508 359.064C131.047 359.313 131.457 359.666 131.737 360.122C132.027 360.568 132.172 361.081 132.172 361.662ZM126.541 361.662C126.541 362.212 126.733 362.647 127.117 362.969C127.501 363.28 128.014 363.436 128.657 363.436C129.3 363.436 129.813 363.28 130.197 362.969C130.591 362.647 130.788 362.212 130.788 361.662C130.788 361.113 130.591 360.682 130.197 360.371C129.813 360.05 129.3 359.889 128.657 359.889C128.024 359.889 127.511 360.05 127.117 360.371C126.733 360.682 126.541 361.113 126.541 361.662ZM136.061 365.909V366.967H130.103V365.909H132.406V364.867H133.775V365.909H136.061ZM130.181 369.191V370.389H125.997V365.442H127.366V369.191H130.181ZM133.09 367.449C133.868 367.449 134.49 367.589 134.957 367.869C135.423 368.139 135.657 368.527 135.657 369.036C135.657 369.544 135.423 369.933 134.957 370.202C134.501 370.472 133.878 370.607 133.09 370.607C132.312 370.607 131.69 370.472 131.223 370.202C130.767 369.933 130.539 369.544 130.539 369.036C130.539 368.527 130.767 368.139 131.223 367.869C131.69 367.589 132.312 367.449 133.09 367.449ZM133.09 369.658C133.505 369.658 133.837 369.606 134.086 369.502C134.335 369.399 134.459 369.243 134.459 369.036C134.459 368.828 134.335 368.673 134.086 368.569C133.837 368.455 133.505 368.398 133.09 368.398C132.686 368.398 132.359 368.455 132.11 368.569C131.872 368.673 131.752 368.828 131.752 369.036C131.752 369.243 131.872 369.399 132.11 369.502C132.359 369.606 132.686 369.658 133.09 369.658ZM147.757 364.789V370.529H146.357V358.582H147.757V363.373H149.329V364.789H147.757ZM141.177 358.847C142.225 358.847 143.049 359.313 143.651 360.247C144.263 361.18 144.569 362.57 144.569 364.416C144.569 366.261 144.263 367.651 143.651 368.584C143.049 369.518 142.225 369.984 141.177 369.984C140.14 369.984 139.316 369.518 138.704 368.584C138.092 367.651 137.786 366.261 137.786 364.416C137.786 362.57 138.092 361.18 138.704 360.247C139.316 359.313 140.14 358.847 141.177 358.847ZM141.177 368.631C141.779 368.631 142.261 368.289 142.624 367.604C142.987 366.91 143.169 365.847 143.169 364.416C143.169 362.984 142.987 361.927 142.624 361.242C142.261 360.547 141.779 360.2 141.177 360.2C140.566 360.2 140.078 360.547 139.715 361.242C139.352 361.927 139.171 362.984 139.171 364.416C139.171 365.847 139.352 366.91 139.715 367.604C140.078 368.289 140.566 368.631 141.177 368.631ZM161.102 369.969H149.747V368.6H154.709V365.784H150.494V359.002H160.371V360.371H151.909V364.416H160.496V365.784H156.125V368.6H161.102V369.969ZM176.108 370.529H174.755V358.582H176.108V370.529ZM173.246 358.644V370.327H171.908V364.742H169.948C169.658 366.319 169.108 367.558 168.299 368.46C167.49 369.352 166.526 369.798 165.406 369.798V368.413C166.09 368.393 166.687 368.133 167.195 367.636C167.713 367.127 168.107 366.417 168.377 365.504C168.657 364.592 168.797 363.529 168.797 362.316V360.34H165.406V359.002H170.15V362.238C170.15 362.621 170.135 362.995 170.104 363.358H171.908V358.644H173.246ZM188.115 370.529H186.7V358.582H188.115V370.529ZM182.593 358.909C182.572 360.755 182.417 362.393 182.126 363.824L185.782 368.942L184.646 369.798L181.66 365.536C181.235 366.853 180.68 367.879 179.995 368.616C179.321 369.352 178.543 369.756 177.662 369.829V368.336C178.388 368.211 179.01 367.724 179.529 366.873C180.058 366.013 180.457 364.887 180.726 363.498C181.006 362.098 181.152 360.553 181.162 358.862L182.593 358.909ZM198.94 362.269V359.936H190.509V358.707H200.34V362.269H198.94ZM189.778 364.089V362.907H201.134V364.089H189.778ZM191.925 368.196V369.316H200.558V370.389H190.556V367.216H199.003V366.127H190.525V365.053H200.371V368.196H191.925ZM210.695 363.093C210.104 363.933 209.357 364.597 208.455 365.084C207.553 365.572 206.573 365.847 205.515 365.909V364.54C206.707 364.436 207.734 364.021 208.595 363.296C209.466 362.57 210.052 361.59 210.353 360.356H205.764V359.002H215.89V360.356H211.846C211.732 360.947 211.571 361.476 211.364 361.942L216.295 364.789L215.626 365.987L210.695 363.093ZM216.528 369.969H205.173V368.584H210.135V365.613H211.55V368.584H216.528V369.969ZM217.553 361.211V359.936H220.727V358.458H222.158V359.936H225.362V361.211H217.553ZM228.162 370.529H226.762V358.582H228.162V370.529ZM222.158 368.522C223.879 368.522 225.108 368.346 225.844 367.993V369.331C225.481 369.487 224.978 369.611 224.335 369.704C223.692 369.787 222.977 369.829 222.189 369.829H217.491V368.522H220.758V366.811C219.938 366.718 219.295 366.459 218.829 366.033C218.362 365.608 218.129 365.064 218.129 364.4C218.129 363.633 218.43 363.026 219.031 362.58C219.632 362.134 220.447 361.911 221.473 361.911C222.49 361.911 223.298 362.134 223.9 362.58C224.501 363.026 224.802 363.633 224.802 364.4C224.802 365.064 224.569 365.608 224.102 366.033C223.635 366.459 222.987 366.718 222.158 366.811V368.522ZM219.467 364.4C219.467 364.773 219.638 365.079 219.98 365.318C220.332 365.546 220.83 365.66 221.473 365.66C222.106 365.66 222.593 365.546 222.935 365.318C223.288 365.079 223.464 364.773 223.464 364.4C223.464 364.016 223.288 363.705 222.935 363.467C222.593 363.228 222.106 363.109 221.473 363.109C220.83 363.109 220.332 363.228 219.98 363.467C219.638 363.705 219.467 364.016 219.467 364.4ZM240.138 364.789V370.529H238.738V358.582H240.138V363.373H241.709V364.789H240.138ZM234.849 368.46C235.399 368.46 235.943 368.413 236.483 368.32C237.022 368.216 237.458 368.081 237.789 367.916V369.253C237.458 369.43 237.017 369.57 236.467 369.673C235.928 369.777 235.378 369.829 234.818 369.829H230.338V358.924H231.769V368.46H234.849ZM103.291 390.529H101.875V384.804H99.4796V389.829H93.133V378.924H94.5174V382.984H98.0952V378.924H99.4796V383.436H101.875V378.582H103.291V390.529ZM98.0952 384.338H94.5174V388.476H98.0952V384.338ZM110.414 382.611C109.75 383.679 108.951 384.53 108.018 385.162C107.085 385.784 106.11 386.096 105.094 386.096V384.696C105.892 384.696 106.659 384.426 107.396 383.887C108.142 383.337 108.775 382.601 109.294 381.678C109.822 380.744 110.18 379.723 110.367 378.613L111.814 378.878C111.637 379.811 111.373 380.667 111.02 381.444L116.014 384.976L115.251 386.142L110.414 382.611ZM116.231 388.584V389.969H104.876V388.584H116.231ZM131.237 390.529H129.915V378.582H131.237V390.529ZM128.515 378.644V390.327H127.224V387.107H125.45C125.274 388.081 124.984 388.807 124.579 389.284C124.175 389.751 123.656 389.984 123.024 389.984C122.153 389.984 121.499 389.539 121.064 388.647C120.628 387.744 120.41 386.334 120.41 384.416C120.41 382.497 120.628 381.092 121.064 380.2C121.499 379.298 122.153 378.847 123.024 378.847C124.216 378.847 124.999 379.666 125.373 381.304H127.224V378.644H128.515ZM123.024 388.647C123.48 388.647 123.817 388.304 124.035 387.62C124.253 386.936 124.361 385.867 124.361 384.416C124.361 382.964 124.253 381.896 124.035 381.211C123.817 380.527 123.48 380.184 123.024 380.184C122.578 380.184 122.246 380.532 122.028 381.227C121.821 381.911 121.717 382.974 121.717 384.416C121.717 385.857 121.821 386.925 122.028 387.62C122.246 388.304 122.578 388.647 123.024 388.647ZM127.224 382.658H125.575C125.637 383.166 125.668 383.752 125.668 384.416C125.668 384.882 125.653 385.328 125.621 385.753H127.224V382.658ZM142.918 382.844H144.489V384.12H142.918V385.707H141.518V378.582H142.918V379.904H144.489V381.18H142.918V382.844ZM136.12 385.349C135.415 385.349 134.792 385.209 134.253 384.929C133.724 384.639 133.315 384.239 133.024 383.731C132.734 383.223 132.589 382.653 132.589 382.02C132.589 381.387 132.734 380.817 133.024 380.309C133.315 379.801 133.724 379.407 134.253 379.127C134.792 378.836 135.415 378.691 136.12 378.691C136.825 378.691 137.442 378.836 137.971 379.127C138.51 379.407 138.925 379.801 139.215 380.309C139.506 380.817 139.651 381.387 139.651 382.02C139.651 382.653 139.506 383.223 139.215 383.731C138.925 384.239 138.51 384.639 137.971 384.929C137.442 385.209 136.825 385.349 136.12 385.349ZM136.12 379.92C135.487 379.92 134.974 380.112 134.58 380.496C134.186 380.869 133.989 381.377 133.989 382.02C133.989 382.663 134.186 383.176 134.58 383.56C134.974 383.933 135.487 384.12 136.12 384.12C136.752 384.12 137.266 383.933 137.66 383.56C138.054 383.176 138.251 382.663 138.251 382.02C138.251 381.377 138.054 380.869 137.66 380.496C137.266 380.112 136.752 379.92 136.12 379.92ZM142.918 386.344V390.544H141.486V387.62H133.398V386.344H142.918ZM154.147 390.529V378.582H155.563V390.529H154.147ZM148.843 378.847C149.9 378.847 150.735 379.313 151.347 380.247C151.969 381.18 152.28 382.57 152.28 384.416C152.28 386.261 151.969 387.651 151.347 388.584C150.735 389.518 149.9 389.984 148.843 389.984C147.785 389.984 146.945 389.518 146.323 388.584C145.7 387.651 145.389 386.261 145.389 384.416C145.389 382.57 145.7 381.18 146.323 380.247C146.945 379.313 147.785 378.847 148.843 378.847ZM148.843 380.2C148.21 380.2 147.707 380.547 147.334 381.242C146.96 381.927 146.774 382.984 146.774 384.416C146.774 385.847 146.96 386.91 147.334 387.604C147.707 388.289 148.21 388.631 148.843 388.631C149.454 388.631 149.947 388.284 150.32 387.589C150.694 386.894 150.88 385.836 150.88 384.416C150.88 382.995 150.694 381.937 150.32 381.242C149.947 380.547 149.454 380.2 148.843 380.2ZM170.63 384.789V390.529H169.23V378.582H170.63V383.373H172.202V384.789H170.63ZM166.913 379.002V381.911C166.913 383.498 166.664 384.887 166.166 386.08C165.668 387.262 164.953 388.18 164.019 388.833C163.086 389.476 161.982 389.798 160.706 389.798V388.398C161.712 388.398 162.573 388.139 163.288 387.62C164.014 387.091 164.564 386.344 164.937 385.38C165.31 384.405 165.497 383.259 165.497 381.942V380.34H160.706V379.002H166.913ZM183.307 381.616V382.798H173.429V378.567H174.829V381.616H183.307ZM172.62 385.131V383.949H183.975V385.131H172.62ZM178.298 386.158C179.801 386.158 181.01 386.334 181.922 386.687C182.845 387.029 183.307 387.584 183.307 388.351C183.307 389.129 182.845 389.689 181.922 390.031C181.01 390.384 179.801 390.56 178.298 390.56C176.794 390.56 175.581 390.384 174.658 390.031C173.745 389.689 173.289 389.129 173.289 388.351C173.289 387.584 173.745 387.029 174.658 386.687C175.581 386.334 176.794 386.158 178.298 386.158ZM178.298 387.309C177.281 387.309 176.436 387.392 175.762 387.558C175.098 387.724 174.767 387.988 174.767 388.351C174.767 388.724 175.098 388.994 175.762 389.16C176.436 389.326 177.281 389.409 178.298 389.409C179.314 389.409 180.154 389.326 180.818 389.16C181.492 388.994 181.829 388.724 181.829 388.351C181.829 387.988 181.492 387.724 180.818 387.558C180.154 387.392 179.314 387.309 178.298 387.309ZM184.907 380.667V379.547H188.034V378.364H189.465V379.547H192.623V380.667H184.907ZM195.267 382.409V385.38H193.867V378.582H195.267V381.024H196.838V382.409H195.267ZM188.765 385.458C187.79 385.458 186.986 385.271 186.354 384.898C185.721 384.514 185.405 384.001 185.405 383.358C185.405 382.715 185.721 382.201 186.354 381.818C186.986 381.434 187.79 381.242 188.765 381.242C189.729 381.242 190.523 381.434 191.145 381.818C191.778 382.201 192.094 382.715 192.094 383.358C192.094 384.001 191.778 384.514 191.145 384.898C190.512 385.271 189.719 385.458 188.765 385.458ZM188.765 382.316C188.153 382.316 187.66 382.414 187.287 382.611C186.924 382.808 186.743 383.057 186.743 383.358C186.743 383.659 186.924 383.907 187.287 384.104C187.66 384.301 188.153 384.4 188.765 384.4C189.366 384.4 189.849 384.301 190.212 384.104C190.585 383.907 190.772 383.659 190.772 383.358C190.772 383.057 190.585 382.808 190.212 382.611C189.849 382.414 189.366 382.316 188.765 382.316ZM195.267 385.878V390.389H185.7V385.878H187.085V386.967H193.898V385.878H195.267ZM193.898 388.056H187.085V389.238H193.898V388.056ZM206.497 390.529V378.582H207.912V390.529H206.497ZM202.561 388.476C203.1 388.476 203.634 388.424 204.163 388.32C204.703 388.206 205.148 388.061 205.501 387.884V389.238C205.159 389.424 204.718 389.57 204.179 389.673C203.65 389.777 203.111 389.829 202.561 389.829H197.894V378.924H199.341V388.476H202.561ZM219.904 384.789V390.529H218.504V378.582H219.904V383.373H221.475V384.789H219.904ZM214.615 388.491C215.154 388.491 215.694 388.439 216.233 388.336C216.772 388.232 217.213 388.092 217.555 387.916V389.253C217.223 389.43 216.777 389.57 216.217 389.673C215.668 389.777 215.108 389.829 214.537 389.829H210.104V379.002H216.668V380.34H211.519V388.491H214.615ZM223.169 390.078C222.889 390.078 222.65 389.984 222.453 389.798C222.256 389.601 222.158 389.357 222.158 389.067C222.158 388.776 222.256 388.538 222.453 388.351C222.65 388.154 222.889 388.056 223.169 388.056C223.449 388.056 223.687 388.154 223.884 388.351C224.082 388.538 224.18 388.776 224.18 389.067C224.18 389.357 224.082 389.601 223.884 389.798C223.687 389.984 223.449 390.078 223.169 390.078Z" fill="#5E5E5E"/>
</svg>
