<svg width="318" height="400" viewBox="0 0 318 400" fill="none" xmlns="http://www.w3.org/2000/svg">
<g filter="url(#filter0_d_567_3877)">
<rect x="35" y="8.78809" width="248" height="162.424" rx="7.936" fill="white" shape-rendering="crispEdges"/>
<rect width="226.837" height="22" transform="translate(45.5811 18.708)" fill="white"/>
<path d="M58.7548 36.3076H56.6915V22.7635H58.7548V36.3076ZM55.5804 22.8164V36.0784H53.5347V32.7805H51.9828C51.7711 33.8151 51.4302 34.5735 50.9599 35.0555C50.5014 35.5375 49.9135 35.7786 49.1963 35.7786C48.1735 35.7786 47.4034 35.273 46.8861 34.2619C46.3805 33.239 46.1278 31.6107 46.1278 29.3768C46.1278 27.143 46.3805 25.5205 46.8861 24.5094C47.4034 23.4866 48.1735 22.9751 49.1963 22.9751C50.5366 22.9751 51.4361 23.8393 51.8946 25.5676H53.5347V22.8164H55.5804ZM49.1963 33.6799C49.5608 33.6799 49.8195 33.339 49.9723 32.6571C50.1369 31.9634 50.2192 30.87 50.2192 29.3768C50.2192 27.8837 50.1369 26.7962 49.9723 26.1143C49.8195 25.4324 49.5608 25.0914 49.1963 25.0914C48.8319 25.0914 48.5673 25.4324 48.4027 26.1143C48.2499 26.7962 48.1735 27.8837 48.1735 29.3768C48.1735 30.87 48.2499 31.9634 48.4027 32.6571C48.5673 33.339 48.8319 33.6799 49.1963 33.6799ZM53.5347 27.7367H52.212C52.2591 28.1717 52.2826 28.7184 52.2826 29.3768C52.2826 29.9412 52.2708 30.3527 52.2473 30.6113H53.5347V27.7367ZM71.9973 27.2606H73.6021V29.2534H71.9973V30.823H69.7752V22.7635H71.9973V23.9627H73.6021V25.9732H71.9973V27.2606ZM64.0436 30.5232C63.2324 30.5232 62.5152 30.3586 61.8921 30.0294C61.269 29.7002 60.7869 29.2475 60.446 28.6714C60.105 28.0836 59.9345 27.4134 59.9345 26.661C59.9345 25.9203 60.105 25.2619 60.446 24.6858C60.7869 24.0979 61.269 23.6394 61.8921 23.3102C62.5152 22.981 63.2324 22.8164 64.0436 22.8164C64.8431 22.8164 65.5544 22.981 66.1775 23.3102C66.8006 23.6394 67.2827 24.0979 67.6236 24.6858C67.9646 25.2619 68.1351 25.9203 68.1351 26.661C68.1351 27.4134 67.9646 28.0836 67.6236 28.6714C67.2827 29.2475 66.8006 29.7002 66.1775 30.0294C65.5544 30.3586 64.8431 30.5232 64.0436 30.5232ZM64.0436 24.7563C63.4793 24.7563 63.0208 24.9268 62.668 25.2678C62.3271 25.6087 62.1566 26.0731 62.1566 26.661C62.1566 27.2488 62.3271 27.7191 62.668 28.0718C63.0208 28.4128 63.4793 28.5832 64.0436 28.5832C64.608 28.5832 65.0606 28.4128 65.4016 28.0718C65.7543 27.7191 65.9306 27.2488 65.9306 26.661C65.9306 26.0731 65.7543 25.6087 65.4016 25.2678C65.0606 24.9268 64.608 24.7563 64.0436 24.7563ZM71.9973 31.3873V36.4134H69.7399V33.3978H60.8869V31.3873H71.9973ZM90.1733 36.3076H88.0923V30.0999H86.6991V36.0784H84.6357V22.8164H86.6991V27.8778H88.0923V22.7635H90.1733V36.3076ZM80.9323 33.5388C81.4731 33.5388 82.0139 33.4977 82.5548 33.4154C83.0956 33.3331 83.5541 33.2155 83.9303 33.0627V35.126C83.5541 35.2906 83.0721 35.4141 82.4842 35.4964C81.9081 35.5787 81.3203 35.6198 80.7207 35.6198H77.7755V23.0986H79.9447V33.5388H80.9323ZM103.857 30.823H101.67V29.4474H99.871L100.012 27.384H101.67V25.9203H100.012L99.871 23.8745H101.67V22.7635H103.857V30.823ZM99.5888 26.661C99.5888 27.4134 99.4184 28.0836 99.0774 28.6714C98.7365 29.2475 98.2544 29.7002 97.6313 30.0294C97.0199 30.3586 96.3145 30.5232 95.515 30.5232C94.7155 30.5232 94.0042 30.3586 93.3811 30.0294C92.7698 29.7002 92.2936 29.2416 91.9526 28.6538C91.6117 28.0659 91.4412 27.4017 91.4412 26.661C91.4412 25.9203 91.6117 25.2619 91.9526 24.6858C92.2936 24.0979 92.7698 23.6394 93.3811 23.3102C94.0042 22.981 94.7155 22.8164 95.515 22.8164C96.3145 22.8164 97.0199 22.981 97.6313 23.3102C98.2544 23.6394 98.7365 24.0979 99.0774 24.6858C99.4184 25.2619 99.5888 25.9203 99.5888 26.661ZM93.6633 26.661C93.6633 27.2606 93.8279 27.7309 94.1571 28.0718C94.498 28.4128 94.9507 28.5832 95.515 28.5832C96.0559 28.5832 96.5026 28.4128 96.8553 28.0718C97.208 27.7191 97.3844 27.2488 97.3844 26.661C97.3844 26.0731 97.2139 25.6087 96.873 25.2678C96.532 24.9268 96.0794 24.7563 95.515 24.7563C94.9507 24.7563 94.498 24.9268 94.1571 25.2678C93.8279 25.6087 93.6633 26.0731 93.6633 26.661ZM103.857 31.3873V36.4134H101.582V33.3978H92.5875V31.3873H103.857ZM115.314 28.3011C114.596 29.1829 113.715 29.8765 112.668 30.3821C111.634 30.8759 110.523 31.1345 109.335 31.158V29.0065C110.511 28.9477 111.557 28.5891 112.474 27.9307C113.403 27.2606 114.038 26.3729 114.379 25.2678H109.582V23.1339H121.204V25.2678H116.777C116.683 25.7263 116.554 26.1378 116.389 26.5022L121.733 29.3592L120.692 31.2638L115.314 28.3011ZM121.892 35.7786H108.912V33.5917H114.273V30.6995H116.513V33.5917H121.892V35.7786ZM122.93 26.0614V24.0509H126.175V22.6401H128.468V24.0509H131.748V26.0614H122.93ZM135.222 36.3076H133V22.7635H135.222V36.3076ZM128.45 33.5565C130.143 33.5565 131.384 33.3684 132.171 32.9921V35.0731C131.772 35.2495 131.248 35.3847 130.602 35.4787C129.967 35.5728 129.279 35.6198 128.538 35.6198H122.877V33.5565H126.228V32.1456C125.37 32.0045 124.694 31.6989 124.2 31.2286C123.718 30.7583 123.477 30.1587 123.477 29.4298C123.477 28.5362 123.83 27.8425 124.535 27.3488C125.252 26.8432 126.193 26.5904 127.357 26.5904C128.521 26.5904 129.455 26.8432 130.161 27.3488C130.878 27.8425 131.237 28.5362 131.237 29.4298C131.237 30.1704 130.99 30.7759 130.496 31.2462C130.002 31.7047 129.32 32.0045 128.45 32.1456V33.5565ZM125.576 29.4298C125.576 29.7237 125.734 29.9588 126.052 30.1352C126.369 30.2998 126.804 30.3821 127.357 30.3821C127.898 30.3821 128.327 30.2998 128.644 30.1352C128.973 29.9588 129.138 29.7237 129.138 29.4298C129.138 29.1358 128.979 28.9007 128.662 28.7243C128.344 28.548 127.909 28.4598 127.357 28.4598C126.804 28.4598 126.369 28.548 126.052 28.7243C125.734 28.8889 125.576 29.1241 125.576 29.4298Z" fill="#3C3C3C"/>
<rect width="248" height="100.584" transform="translate(35 60.708)" fill="white"/>
<path d="M45.9646 66.891V65.899H48.6232V64.8145H49.84V65.899H52.5251V66.891H45.9646ZM54.7736 68.756V71.4807H53.5832V64.9996H54.7736V67.5392H56.1095V68.756H54.7736ZM49.2448 71.3617C48.416 71.3617 47.7282 71.1853 47.1815 70.8326C46.6436 70.4711 46.3747 69.9861 46.3747 69.3777C46.3747 68.9809 46.4981 68.6326 46.745 68.3328C47.0007 68.033 47.3446 67.8037 47.7767 67.645C48.2176 67.4862 48.707 67.4069 49.2448 67.4069C49.7739 67.4069 50.2545 67.4862 50.6865 67.645C51.1274 67.8037 51.4757 68.033 51.7315 68.3328C51.9872 68.6326 52.115 68.9809 52.115 69.3777C52.115 69.7833 51.9872 70.136 51.7315 70.4358C51.4846 70.7356 51.1407 70.9649 50.6998 71.1236C50.2677 71.2823 49.7827 71.3617 49.2448 71.3617ZM49.2448 68.3592C48.7246 68.3592 48.3057 68.4562 47.9883 68.6502C47.6709 68.8354 47.5121 69.0779 47.5121 69.3777C47.5121 69.6775 47.6709 69.9288 47.9883 70.1316C48.3057 70.3256 48.7246 70.4226 49.2448 70.4226C49.7563 70.4226 50.1707 70.3256 50.4881 70.1316C50.8056 69.9288 50.9643 69.6775 50.9643 69.3777C50.9643 69.0779 50.8056 68.8354 50.4881 68.6502C50.1795 68.4562 49.7651 68.3592 49.2448 68.3592ZM54.7736 72.0098V75.1709H53.5567V73.0679H46.5598V72.0098H54.7736ZM56.862 70.912V65.1716H58.026V66.8778H61.3458V65.1716H62.523V67.4201H64.4012V64.9996H65.5916V72.5388H64.4012V68.5973H62.523V70.912H56.862ZM61.3458 67.9227H58.026V69.8406H61.3458V67.9227ZM65.79 75.0387H57.3249V71.7717H58.5418V73.9012H65.79V75.0387Z" fill="#3C3C3C"/>
<rect x="45.9117" y="86.652" width="161.365" height="33.856" rx="4.96" stroke="#8CCAFE" stroke-width="0.661333"/>
<path d="M63.2543 107.58H57.4699V106.98L60.8794 103.618C61.3105 103.194 61.6005 102.83 61.7494 102.524C61.8984 102.219 61.9728 101.905 61.9728 101.584C61.9728 101.106 61.8082 100.729 61.479 100.455C61.1498 100.181 60.6796 100.044 60.0682 100.044C59.1041 100.044 58.3673 100.357 57.8579 100.984L57.2112 100.514C57.5247 100.114 57.9284 99.8084 58.4222 99.5968C58.9238 99.3773 59.496 99.2676 60.1387 99.2676C60.9696 99.2676 61.6319 99.4714 62.1257 99.879C62.6273 100.279 62.8781 100.823 62.8781 101.513C62.8781 101.936 62.7801 102.344 62.5842 102.736C62.3961 103.12 62.0434 103.563 61.5261 104.064L58.7632 106.816H63.2543V107.58ZM67.408 107.662C66.7731 107.662 66.2049 107.494 65.7032 107.157C65.2016 106.812 64.8097 106.322 64.5275 105.687C64.2532 105.052 64.116 104.311 64.116 103.465C64.116 102.618 64.2532 101.878 64.5275 101.243C64.8097 100.608 65.2016 100.122 65.7032 99.7849C66.2049 99.44 66.7731 99.2676 67.408 99.2676C68.0507 99.2676 68.619 99.44 69.1128 99.7849C69.6144 100.122 70.0024 100.608 70.2767 101.243C70.5589 101.87 70.7 102.611 70.7 103.465C70.7 104.319 70.5589 105.064 70.2767 105.699C70.0024 106.326 69.6144 106.812 69.1128 107.157C68.619 107.494 68.0507 107.662 67.408 107.662ZM67.408 106.874C67.8861 106.874 68.3055 106.741 68.666 106.475C69.0266 106.208 69.3048 105.82 69.5008 105.311C69.7046 104.801 69.8065 104.186 69.8065 103.465C69.8065 102.744 69.7046 102.128 69.5008 101.619C69.3048 101.11 69.0266 100.722 68.666 100.455C68.3055 100.189 67.8861 100.055 67.408 100.055C66.9377 100.055 66.5223 100.189 66.1618 100.455C65.8012 100.722 65.5191 101.11 65.3153 101.619C65.1193 102.128 65.0213 102.744 65.0213 103.465C65.0213 104.186 65.1193 104.801 65.3153 105.311C65.5191 105.82 65.8012 106.208 66.1618 106.475C66.5223 106.741 66.9377 106.874 67.408 106.874ZM75.2652 107.58H74.3716V100.102H72.4435V99.3499H75.2652V107.58ZM81.1824 99.2676C82.2719 99.2676 83.1066 99.6282 83.6866 100.349C84.2745 101.07 84.5684 102.085 84.5684 103.394C84.5684 104.311 84.4117 105.091 84.0981 105.734C83.7846 106.369 83.3457 106.851 82.7814 107.18C82.217 107.501 81.5547 107.662 80.7944 107.662C79.9793 107.662 79.3248 107.505 78.831 107.192L79.1837 106.522C79.5756 106.773 80.1086 106.898 80.7827 106.898C81.6292 106.898 82.3032 106.639 82.8049 106.122C83.3143 105.597 83.5887 104.837 83.6279 103.841C83.6357 103.763 83.6396 103.637 83.6396 103.465C83.6396 103.206 83.6239 102.967 83.5926 102.748C83.428 103.226 83.1223 103.602 82.6755 103.876C82.2288 104.143 81.7115 104.276 81.1236 104.276C80.5828 104.276 80.1008 104.174 79.6775 103.97C79.2621 103.767 78.9368 103.481 78.7017 103.112C78.4744 102.744 78.3607 102.313 78.3607 101.819C78.3607 101.309 78.4822 100.863 78.7252 100.479C78.9682 100.095 79.3052 99.7967 79.7363 99.585C80.1674 99.3734 80.6494 99.2676 81.1824 99.2676ZM81.2882 103.571C81.688 103.571 82.0446 103.492 82.3581 103.336C82.6795 103.179 82.9264 102.963 83.0988 102.689C83.2791 102.407 83.3692 102.097 83.3692 101.76C83.3692 101.447 83.283 101.157 83.1106 100.89C82.946 100.616 82.703 100.396 82.3816 100.232C82.0603 100.067 81.6723 99.9848 81.2177 99.9848C80.6298 99.9848 80.1517 100.149 79.7833 100.479C79.4228 100.8 79.2425 101.231 79.2425 101.772C79.2425 102.321 79.4228 102.759 79.7833 103.089C80.1517 103.41 80.6533 103.571 81.2882 103.571ZM91.485 107.58H85.7005V106.98L89.1101 103.618C89.5412 103.194 89.8312 102.83 89.9801 102.524C90.129 102.219 90.2035 101.905 90.2035 101.584C90.2035 101.106 90.0389 100.729 89.7097 100.455C89.3805 100.181 88.9102 100.044 88.2989 100.044C87.3348 100.044 86.598 100.357 86.0885 100.984L85.4419 100.514C85.7554 100.114 86.1591 99.8084 86.6529 99.5968C87.1545 99.3773 87.7267 99.2676 88.3694 99.2676C89.2002 99.2676 89.8625 99.4714 90.3563 99.879C90.858 100.279 91.1088 100.823 91.1088 101.513C91.1088 101.936 91.0108 102.344 90.8149 102.736C90.6267 103.12 90.274 103.563 89.7567 104.064L86.9938 106.816H91.485V107.58ZM95.6387 107.662C95.0038 107.662 94.4356 107.494 93.9339 107.157C93.4323 106.812 93.0404 106.322 92.7582 105.687C92.4839 105.052 92.3467 104.311 92.3467 103.465C92.3467 102.618 92.4839 101.878 92.7582 101.243C93.0404 100.608 93.4323 100.122 93.9339 99.7849C94.4356 99.44 95.0038 99.2676 95.6387 99.2676C96.2814 99.2676 96.8497 99.44 97.3435 99.7849C97.8451 100.122 98.2331 100.608 98.5074 101.243C98.7896 101.87 98.9307 102.611 98.9307 103.465C98.9307 104.319 98.7896 105.064 98.5074 105.699C98.2331 106.326 97.8451 106.812 97.3435 107.157C96.8497 107.494 96.2814 107.662 95.6387 107.662ZM95.6387 106.874C96.1168 106.874 96.5361 106.741 96.8967 106.475C97.2572 106.208 97.5355 105.82 97.7314 105.311C97.9352 104.801 98.0371 104.186 98.0371 103.465C98.0371 102.744 97.9352 102.128 97.7314 101.619C97.5355 101.11 97.2572 100.722 96.8967 100.455C96.5361 100.189 96.1168 100.055 95.6387 100.055C95.1684 100.055 94.753 100.189 94.3924 100.455C94.0319 100.722 93.7497 101.11 93.5459 101.619C93.35 102.128 93.252 102.744 93.252 103.465C93.252 104.186 93.35 104.801 93.5459 105.311C93.7497 105.82 94.0319 106.208 94.3924 106.475C94.753 106.741 95.1684 106.874 95.6387 106.874ZM105.6 107.58H99.8159V106.98L103.225 103.618C103.657 103.194 103.947 102.83 104.095 102.524C104.244 102.219 104.319 101.905 104.319 101.584C104.319 101.106 104.154 100.729 103.825 100.455C103.496 100.181 103.026 100.044 102.414 100.044C101.45 100.044 100.713 100.357 100.204 100.984L99.5572 100.514C99.8707 100.114 100.274 99.8084 100.768 99.5968C101.27 99.3773 101.842 99.2676 102.485 99.2676C103.316 99.2676 103.978 99.4714 104.472 99.879C104.973 100.279 105.224 100.823 105.224 101.513C105.224 101.936 105.126 102.344 104.93 102.736C104.742 103.12 104.389 103.563 103.872 104.064L101.109 106.816H105.6V107.58ZM109.754 107.662C109.119 107.662 108.551 107.494 108.049 107.157C107.548 106.812 107.156 106.322 106.874 105.687C106.599 105.052 106.462 104.311 106.462 103.465C106.462 102.618 106.599 101.878 106.874 101.243C107.156 100.608 107.548 100.122 108.049 99.7849C108.551 99.44 109.119 99.2676 109.754 99.2676C110.397 99.2676 110.965 99.44 111.459 99.7849C111.96 100.122 112.348 100.608 112.623 101.243C112.905 101.87 113.046 102.611 113.046 103.465C113.046 104.319 112.905 105.064 112.623 105.699C112.348 106.326 111.96 106.812 111.459 107.157C110.965 107.494 110.397 107.662 109.754 107.662ZM109.754 106.874C110.232 106.874 110.651 106.741 111.012 106.475C111.373 106.208 111.651 105.82 111.847 105.311C112.051 104.801 112.152 104.186 112.152 103.465C112.152 102.744 112.051 102.128 111.847 101.619C111.651 101.11 111.373 100.722 111.012 100.455C110.651 100.189 110.232 100.055 109.754 100.055C109.284 100.055 108.868 100.189 108.508 100.455C108.147 100.722 107.865 101.11 107.661 101.619C107.465 102.128 107.367 102.744 107.367 103.465C107.367 104.186 107.465 104.801 107.661 105.311C107.865 105.82 108.147 106.208 108.508 106.475C108.868 106.741 109.284 106.874 109.754 106.874ZM119.716 107.58H113.931V106.98L117.341 103.618C117.772 103.194 118.062 102.83 118.211 102.524C118.36 102.219 118.434 101.905 118.434 101.584C118.434 101.106 118.27 100.729 117.94 100.455C117.611 100.181 117.141 100.044 116.53 100.044C115.565 100.044 114.829 100.357 114.319 100.984L113.673 100.514C113.986 100.114 114.39 99.8084 114.884 99.5968C115.385 99.3773 115.957 99.2676 116.6 99.2676C117.431 99.2676 118.093 99.4714 118.587 99.879C119.089 100.279 119.339 100.823 119.339 101.513C119.339 101.936 119.241 102.344 119.046 102.736C118.857 103.12 118.505 103.563 117.987 104.064L115.224 106.816H119.716V107.58ZM123.869 107.662C123.234 107.662 122.666 107.494 122.165 107.157C121.663 106.812 121.271 106.322 120.989 105.687C120.715 105.052 120.577 104.311 120.577 103.465C120.577 102.618 120.715 101.878 120.989 101.243C121.271 100.608 121.663 100.122 122.165 99.7849C122.666 99.44 123.234 99.2676 123.869 99.2676C124.512 99.2676 125.08 99.44 125.574 99.7849C126.076 100.122 126.464 100.608 126.738 101.243C127.02 101.87 127.161 102.611 127.161 103.465C127.161 104.319 127.02 105.064 126.738 105.699C126.464 106.326 126.076 106.812 125.574 107.157C125.08 107.494 124.512 107.662 123.869 107.662ZM123.869 106.874C124.347 106.874 124.767 106.741 125.127 106.475C125.488 106.208 125.766 105.82 125.962 105.311C126.166 104.801 126.268 104.186 126.268 103.465C126.268 102.744 126.166 102.128 125.962 101.619C125.766 101.11 125.488 100.722 125.127 100.455C124.767 100.189 124.347 100.055 123.869 100.055C123.399 100.055 122.984 100.189 122.623 100.455C122.263 100.722 121.98 101.11 121.777 101.619C121.581 102.128 121.483 102.744 121.483 103.465C121.483 104.186 121.581 104.801 121.777 105.311C121.98 105.82 122.263 106.208 122.623 106.475C122.984 106.741 123.399 106.874 123.869 106.874Z" fill="#3C3C3C"/>
<rect x="218.189" y="86.4495" width="54.1627" height="34.3893" rx="6.61333" fill="#4196FD"/>
<path d="M232.793 102.323C232.375 102.838 231.86 103.242 231.25 103.537C230.646 103.825 229.998 103.976 229.305 103.99V102.735C229.991 102.701 230.602 102.491 231.137 102.107C231.678 101.716 232.049 101.199 232.248 100.554H229.449V99.3091H236.229V100.554H233.647C233.592 100.821 233.516 101.061 233.42 101.274L236.538 102.941L235.931 104.052L232.793 102.323ZM236.63 106.685H229.059V105.41H232.186V103.722H233.492V105.41H236.63V106.685ZM237.236 101.017V99.8441H239.129V99.0211H240.466V99.8441H242.38V101.017H237.236ZM244.406 106.994H243.11V99.0931H244.406V106.994ZM240.456 105.389C241.444 105.389 242.167 105.279 242.627 105.06V106.274C242.393 106.377 242.088 106.455 241.711 106.51C241.341 106.565 240.939 106.593 240.507 106.593H237.205V105.389H239.16V104.566C238.659 104.484 238.265 104.305 237.977 104.031C237.695 103.757 237.555 103.407 237.555 102.982C237.555 102.46 237.761 102.056 238.172 101.768C238.59 101.473 239.139 101.325 239.818 101.325C240.497 101.325 241.042 101.473 241.454 101.768C241.872 102.056 242.081 102.46 242.081 102.982C242.081 103.414 241.937 103.767 241.649 104.041C241.361 104.309 240.963 104.484 240.456 104.566V105.389ZM238.779 102.982C238.779 103.153 238.872 103.29 239.057 103.393C239.242 103.489 239.496 103.537 239.818 103.537C240.134 103.537 240.384 103.489 240.569 103.393C240.761 103.29 240.857 103.153 240.857 102.982C240.857 102.81 240.765 102.673 240.579 102.57C240.394 102.467 240.14 102.416 239.818 102.416C239.496 102.416 239.242 102.467 239.057 102.57C238.872 102.666 238.779 102.803 238.779 102.982ZM250.392 100.122V101.377H245.516V100.122H247.286V99.0622H248.613V100.122H250.392ZM252.327 103.393V106.994H251.03V99.0931H252.327V102.076H253.263V103.393H252.327ZM247.954 101.799C248.38 101.799 248.753 101.905 249.076 102.118C249.405 102.323 249.659 102.611 249.837 102.982C250.015 103.352 250.104 103.77 250.104 104.237C250.104 104.71 250.015 105.132 249.837 105.502C249.659 105.872 249.405 106.164 249.076 106.377C248.753 106.582 248.38 106.685 247.954 106.685C247.522 106.685 247.142 106.582 246.812 106.377C246.49 106.164 246.24 105.872 246.061 105.502C245.883 105.132 245.794 104.71 245.794 104.237C245.794 103.77 245.883 103.352 246.061 102.982C246.24 102.611 246.49 102.323 246.812 102.118C247.142 101.905 247.522 101.799 247.954 101.799ZM247.954 105.512C248.229 105.512 248.448 105.396 248.613 105.163C248.777 104.929 248.86 104.621 248.86 104.237C248.86 103.853 248.777 103.548 248.613 103.321C248.448 103.088 248.229 102.971 247.954 102.971C247.673 102.971 247.45 103.088 247.286 103.321C247.121 103.548 247.039 103.853 247.039 104.237C247.039 104.621 247.121 104.929 247.286 105.163C247.457 105.396 247.68 105.512 247.954 105.512ZM259.383 106.994V99.0931H260.689V106.994H259.383ZM258.097 101.377C258.097 102.433 257.922 103.356 257.572 104.144C257.222 104.926 256.722 105.53 256.07 105.955C255.425 106.373 254.671 106.582 253.807 106.582V105.286C254.431 105.286 254.962 105.128 255.401 104.813C255.84 104.497 256.173 104.048 256.399 103.465C256.632 102.875 256.749 102.183 256.749 101.387V100.554H253.807V99.3091H258.097V101.377Z" fill="#FBFBFB"/>
<mask id="path-8-inside-1_567_3877" fill="white">
<path d="M45.5811 134.065H272.418V161.292H45.5811V134.065Z"/>
</mask>
<path d="M45.5811 134.727H272.418V133.404H45.5811V134.727ZM272.418 160.631H45.5811V161.953H272.418V160.631Z" fill="#F2F2F2" mask="url(#path-8-inside-1_567_3877)"/>
<path d="M91.5329 149.002V143.128H92.2839V149.002H91.5329ZM87.9323 145.854C87.6511 146.375 87.2979 146.807 86.8727 147.15C86.4475 147.486 85.9674 147.695 85.4325 147.778V147.047C85.9126 146.951 86.3309 146.718 86.6875 146.348C87.051 145.977 87.3288 145.518 87.5208 144.969C87.7129 144.421 87.8089 143.834 87.8089 143.21L88.5496 143.251C88.5496 143.958 88.4433 144.606 88.2307 145.196L90.6893 147.13L90.2367 147.706L87.9323 145.854ZM92.4999 150.905H85.9777V148.446H86.7287V150.195H92.4999V150.905ZM95.9966 145.998C95.7497 146.444 95.4205 146.811 95.009 147.099C94.5975 147.387 94.1311 147.565 93.6099 147.634V146.955C94.1997 146.845 94.6798 146.577 95.0501 146.152C95.4273 145.72 95.6537 145.189 95.7291 144.558H93.6922V143.899H95.7497V142.984H96.5007V143.899H98.517V144.558H96.4904C96.4561 144.901 96.3978 145.178 96.3155 145.391L98.6404 146.986L98.2804 147.572L95.9966 145.998ZM99.7412 143.128H100.482V147.839H99.7412V145.823H98.2186V145.134H99.7412V143.128ZM97.3442 148.117C98.3181 148.117 99.0999 148.234 99.6897 148.467C100.28 148.693 100.574 149.06 100.574 149.568C100.574 150.068 100.28 150.435 99.6897 150.668C99.1068 150.895 98.325 151.008 97.3442 151.008C96.3703 151.008 95.5885 150.895 94.9987 150.668C94.4157 150.435 94.1243 150.068 94.1243 149.568C94.1243 149.06 94.4157 148.693 94.9987 148.467C95.5885 148.234 96.3703 148.117 97.3442 148.117ZM97.3442 150.38C98.0781 150.38 98.6679 150.315 99.1137 150.185C99.5663 150.048 99.7926 149.842 99.7926 149.568C99.7926 149.286 99.5663 149.081 99.1137 148.95C98.6679 148.82 98.0781 148.755 97.3442 148.755C96.6172 148.755 96.0274 148.824 95.5748 148.961C95.129 149.091 94.9061 149.293 94.9061 149.568C94.9061 149.842 95.1324 150.048 95.5851 150.185C96.0377 150.315 96.6241 150.38 97.3442 150.38ZM110.663 151.028H109.932V148.765H108.574L108.626 148.035H109.932V145.905H108.626L108.574 145.165H109.932V143.128H110.663V151.028ZM106.157 143.334C106.829 143.334 107.361 143.642 107.751 144.259C108.149 144.87 108.348 145.778 108.348 146.986C108.348 148.193 108.149 149.105 107.751 149.722C107.361 150.332 106.829 150.638 106.157 150.638C105.478 150.638 104.94 150.332 104.542 149.722C104.144 149.105 103.945 148.193 103.945 146.986C103.945 145.778 104.144 144.87 104.542 144.259C104.94 143.642 105.478 143.334 106.157 143.334ZM106.157 149.928C106.596 149.928 106.946 149.684 107.206 149.197C107.474 148.71 107.607 147.973 107.607 146.986C107.607 146.005 107.474 145.271 107.206 144.784C106.946 144.29 106.596 144.043 106.157 144.043C105.711 144.043 105.354 144.29 105.087 144.784C104.82 145.271 104.686 146.005 104.686 146.986C104.686 147.973 104.816 148.71 105.077 149.197C105.344 149.684 105.704 149.928 106.157 149.928ZM112.328 147.304V143.282H113.059V144.475H117.997V143.282H118.727V147.304H112.328ZM117.997 145.165H113.059V146.605H117.997V145.165ZM115.908 148.92V151.214H115.147V148.92H111.783V148.199H119.272V148.92H115.908Z" fill="#3C3C3C"/>
<path d="M204.828 148.992V143.128H205.765V148.992H204.828ZM201.362 145.957C201.067 146.471 200.703 146.893 200.271 147.222C199.839 147.544 199.359 147.74 198.831 147.809V146.893C199.29 146.811 199.692 146.595 200.034 146.245C200.384 145.888 200.652 145.446 200.837 144.918C201.022 144.383 201.118 143.807 201.125 143.189L202.061 143.251C202.061 143.923 201.955 144.561 201.742 145.165L204.129 147.016L203.573 147.726L201.362 145.957ZM205.95 150.936H199.356V148.395H200.292V150.051H205.95V150.936ZM209.416 146.132C209.155 146.557 208.815 146.907 208.397 147.181C207.986 147.448 207.526 147.61 207.019 147.665V146.821C207.567 146.732 208.016 146.492 208.366 146.101C208.723 145.71 208.942 145.23 209.025 144.661H207.091V143.848H209.055V142.984H209.992V143.848H211.926V144.661H209.981C209.926 145.003 209.872 145.247 209.817 145.391L212.059 146.883L211.627 147.603L209.416 146.132ZM213.037 143.128H213.963V147.829H213.037V145.874H211.638V145H213.037V143.128ZM210.763 148.066C211.758 148.066 212.553 148.186 213.15 148.426C213.747 148.659 214.045 149.036 214.045 149.557C214.045 150.079 213.747 150.456 213.15 150.689C212.553 150.922 211.758 151.039 210.763 151.039C209.769 151.039 208.973 150.922 208.376 150.689C207.787 150.456 207.492 150.079 207.492 149.557C207.492 149.036 207.787 148.659 208.376 148.426C208.973 148.186 209.769 148.066 210.763 148.066ZM210.763 150.267C211.456 150.267 212.011 150.212 212.43 150.103C212.848 149.986 213.057 149.804 213.057 149.557C213.057 149.31 212.848 149.129 212.43 149.012C212.011 148.896 211.456 148.837 210.763 148.837C210.077 148.837 209.525 148.896 209.107 149.012C208.689 149.129 208.479 149.31 208.479 149.557C208.479 149.797 208.689 149.976 209.107 150.092C209.525 150.209 210.077 150.267 210.763 150.267ZM224.915 146.173H223.897V149.136H222.96V143.128H223.897V145.257H224.915V146.173ZM222.353 147.881C221.901 148.086 221.088 148.189 219.915 148.189H217.045V147.376H219.092V146.461C218.544 146.392 218.105 146.211 217.776 145.916C217.453 145.621 217.292 145.25 217.292 144.805C217.292 144.469 217.385 144.174 217.57 143.92C217.762 143.666 218.029 143.471 218.372 143.334C218.715 143.189 219.109 143.117 219.555 143.117C220.001 143.117 220.395 143.189 220.738 143.334C221.081 143.471 221.345 143.666 221.53 143.92C221.722 144.174 221.819 144.469 221.819 144.805C221.819 145.257 221.654 145.631 221.325 145.926C221.002 146.221 220.567 146.399 220.018 146.461V147.376C221.116 147.376 221.894 147.274 222.353 147.068V147.881ZM218.197 144.805C218.197 145.086 218.317 145.312 218.557 145.484C218.804 145.655 219.137 145.741 219.555 145.741C219.974 145.741 220.303 145.658 220.543 145.494C220.79 145.322 220.913 145.093 220.913 144.805C220.913 144.523 220.79 144.297 220.543 144.126C220.303 143.954 219.974 143.868 219.555 143.868C219.144 143.868 218.815 143.954 218.568 144.126C218.321 144.297 218.197 144.523 218.197 144.805ZM224.092 150.092V150.936H217.58V148.786H218.516V150.092H224.092ZM232.701 150.658H225.192V149.773H227.043V148.292H225.696V145.422H231.302V144.259H225.685V143.406H232.228V146.255H226.611V147.428H232.331V148.292H230.86V149.773H232.701V150.658ZM229.924 149.773V148.292H227.969V149.773H229.924Z" fill="#4196FD"/>
</g>
<path d="M113.388 350.119H110.028V340.759H106.641V349.079H95.4679V330.145H98.7745V336.492H103.361V330.145H106.641V337.452H110.028V329.639H113.388V350.119ZM103.361 339.719H98.7745V345.825H103.361V339.719ZM125.412 337.132C124.256 338.839 122.869 340.181 121.252 341.159C119.634 342.136 117.927 342.634 116.132 342.652V339.292C117.447 339.292 118.709 338.874 119.918 338.039C121.127 337.185 122.149 336.03 122.985 334.572C123.821 333.096 124.363 331.443 124.612 329.612L128.052 330.172C127.838 331.612 127.447 333.007 126.878 334.359L135.278 339.879L133.492 342.732L125.412 337.132ZM135.385 346.012V349.319H115.758V346.012H135.385ZM161.322 350.119H158.202V329.639H161.322V350.119ZM156.522 329.719V349.772H153.429V344.785H151.082C150.762 346.35 150.247 347.496 149.536 348.225C148.842 348.954 147.953 349.319 146.869 349.319C145.322 349.319 144.158 348.554 143.376 347.025C142.611 345.479 142.229 343.016 142.229 339.639C142.229 336.261 142.611 333.807 143.376 332.279C144.158 330.732 145.322 329.959 146.869 329.959C148.896 329.959 150.256 331.265 150.949 333.879H153.429V329.719H156.522ZM146.869 346.145C147.42 346.145 147.811 345.63 148.042 344.599C148.291 343.55 148.416 341.896 148.416 339.639C148.416 337.381 148.291 335.736 148.042 334.705C147.811 333.674 147.42 333.159 146.869 333.159C146.318 333.159 145.918 333.674 145.669 334.705C145.438 335.736 145.322 337.381 145.322 339.639C145.322 341.896 145.438 343.55 145.669 344.599C145.918 345.63 146.318 346.145 146.869 346.145ZM153.429 337.159H151.429C151.5 337.816 151.536 338.643 151.536 339.639C151.536 340.492 151.518 341.114 151.482 341.505H153.429V337.159ZM181.346 336.439H183.773V339.452H181.346V341.825H177.986V329.639H181.346V331.452H183.773V334.492H181.346V336.439ZM169.32 341.372C168.093 341.372 167.008 341.123 166.066 340.625C165.124 340.127 164.395 339.443 163.88 338.572C163.364 337.683 163.106 336.67 163.106 335.532C163.106 334.412 163.364 333.416 163.88 332.545C164.395 331.656 165.124 330.963 166.066 330.465C167.008 329.967 168.093 329.719 169.32 329.719C170.528 329.719 171.604 329.967 172.546 330.465C173.488 330.963 174.217 331.656 174.733 332.545C175.248 333.416 175.506 334.412 175.506 335.532C175.506 336.67 175.248 337.683 174.733 338.572C174.217 339.443 173.488 340.127 172.546 340.625C171.604 341.123 170.528 341.372 169.32 341.372ZM169.32 332.652C168.466 332.652 167.773 332.91 167.24 333.425C166.724 333.941 166.466 334.643 166.466 335.532C166.466 336.421 166.724 337.132 167.24 337.665C167.773 338.181 168.466 338.439 169.32 338.439C170.173 338.439 170.857 338.181 171.373 337.665C171.906 337.132 172.173 336.421 172.173 335.532C172.173 334.643 171.906 333.941 171.373 333.425C170.857 332.91 170.173 332.652 169.32 332.652ZM181.346 342.679V350.279H177.933V345.719H164.546V342.679H181.346Z" fill="#4196FD"/>
<path d="M205.266 349.967H203.355V332.901H205.266V349.967ZM201.31 332.99V349.679H199.421V341.967H197.377C197.318 344.442 196.969 346.264 196.332 347.434C195.695 348.605 194.777 349.19 193.577 349.19C192.332 349.19 191.392 348.545 190.755 347.256C190.118 345.967 189.799 343.96 189.799 341.234C189.799 338.508 190.118 336.501 190.755 335.212C191.392 333.923 192.332 333.279 193.577 333.279C194.732 333.279 195.621 333.819 196.243 334.901C196.881 335.982 197.251 337.664 197.355 339.945H199.421V332.99H201.31ZM193.577 347.279C194.229 347.279 194.71 346.79 195.021 345.812C195.332 344.819 195.488 343.293 195.488 341.234C195.488 339.175 195.332 337.656 195.021 336.679C194.71 335.686 194.229 335.19 193.577 335.19C192.94 335.19 192.466 335.686 192.155 336.679C191.843 337.656 191.688 339.175 191.688 341.234C191.688 343.293 191.843 344.819 192.155 345.812C192.466 346.79 192.94 347.279 193.577 347.279ZM222.53 349.967H220.53V340.967H216.419V339.012H220.53V332.901H222.53V349.967ZM214.041 333.367C214.012 335.708 213.856 337.834 213.574 339.745L218.619 347.834L216.93 348.99L212.93 342.367C212.352 344.382 211.589 345.96 210.641 347.101C209.693 348.242 208.589 348.864 207.33 348.967V346.812C208.323 346.649 209.167 345.96 209.863 344.745C210.56 343.516 211.086 341.916 211.441 339.945C211.797 337.96 211.982 335.745 211.997 333.301L214.041 333.367Z" fill="#5E5E5E"/>
<path d="M2.38641 375.834V374.079H16.3864V379.856H14.3642V375.834H2.38641ZM17.542 382.767H1.31975V381.034H7.34197V377.767H9.36419V381.034H17.542V382.767ZM9.43086 384.301C11.5494 384.301 13.2679 384.575 14.5864 385.123C15.9197 385.656 16.5864 386.493 16.5864 387.634C16.5864 388.775 15.9272 389.619 14.6086 390.167C13.2901 390.716 11.5642 390.99 9.43086 390.99C7.31234 390.99 5.58642 390.716 4.25308 390.167C2.93456 389.619 2.2753 388.775 2.2753 387.634C2.2753 386.479 2.93456 385.634 4.25308 385.101C5.5716 384.567 7.29753 384.301 9.43086 384.301ZM9.43086 389.323C10.8531 389.323 12.0457 389.182 13.0086 388.901C13.9864 388.605 14.4753 388.182 14.4753 387.634C14.4753 387.101 13.9864 386.693 13.0086 386.412C12.0309 386.116 10.8383 385.967 9.43086 385.967C7.99382 385.967 6.79382 386.108 5.83086 386.39C4.8679 386.656 4.38642 387.071 4.38642 387.634C4.38642 388.182 4.8679 388.605 5.83086 388.901C6.80864 389.182 8.00864 389.323 9.43086 389.323ZM34.1396 390.967H32.1174V373.901H34.1396V390.967ZM25.9174 376.434C25.8878 378.434 25.7248 380.205 25.4285 381.745L30.673 388.59L29.0952 389.834L24.7841 384.101C24.2211 385.864 23.4656 387.249 22.5174 388.256C21.5841 389.249 20.51 389.819 19.2952 389.967V387.856C20.2137 387.679 21.0137 387.086 21.6952 386.079C22.3915 385.071 22.9248 383.738 23.2952 382.079C23.6804 380.405 23.8878 378.523 23.9174 376.434H19.673V374.501H30.0285V376.434H25.9174ZM55.6651 382.767V390.967H53.6651V373.901H55.6651V380.745H57.9096V382.767H55.6651ZM47.9763 374.367C47.9466 377.123 47.7318 379.493 47.3318 381.479L52.4207 388.723L50.7985 389.923L46.6429 383.923C46.0651 385.76 45.2948 387.205 44.3318 388.256C43.3837 389.293 42.2874 389.864 41.0429 389.967V387.834C42.0651 387.656 42.9392 386.96 43.6651 385.745C44.4059 384.516 44.9614 382.908 45.3318 380.923C45.717 378.938 45.917 376.73 45.9318 374.301L47.9763 374.367ZM58.4628 376.923V375.301H62.9295V373.59H64.9739V375.301H69.485V376.923H58.4628ZM75.5072 379.945H73.2628V384.256H71.2628V373.901H73.2628V377.967H75.5072V379.945ZM63.9739 383.945C62.5665 383.945 61.411 383.679 60.5072 383.145C59.6184 382.612 59.1739 381.864 59.1739 380.901C59.1739 379.908 59.6184 379.138 60.5072 378.59C61.411 378.042 62.5665 377.767 63.9739 377.767C65.3665 377.767 66.5072 378.042 67.3961 378.59C68.2998 379.138 68.7517 379.908 68.7517 380.901C68.7517 381.864 68.2998 382.612 67.3961 383.145C66.5072 383.679 65.3665 383.945 63.9739 383.945ZM63.9739 379.323C63.0998 379.323 62.3961 379.471 61.8628 379.767C61.3443 380.049 61.085 380.427 61.085 380.901C61.085 381.345 61.3443 381.708 61.8628 381.99C62.3961 382.256 63.0998 382.39 63.9739 382.39C64.848 382.39 65.5443 382.256 66.0628 381.99C66.5813 381.708 66.8406 381.345 66.8406 380.901C66.8406 380.427 66.5813 380.049 66.0628 379.767C65.5443 379.471 64.848 379.323 63.9739 379.323ZM66.5295 384.723C68.648 384.723 70.3295 384.975 71.5739 385.479C72.8332 385.967 73.4628 386.76 73.4628 387.856C73.4628 388.953 72.8332 389.745 71.5739 390.234C70.3295 390.738 68.648 390.99 66.5295 390.99C64.411 390.99 62.7221 390.738 61.4628 390.234C60.2035 389.745 59.5739 388.953 59.5739 387.856C59.5739 386.76 60.2035 385.967 61.4628 385.479C62.7221 384.975 64.411 384.723 66.5295 384.723ZM66.5295 389.345C67.9813 389.345 69.1443 389.227 70.0184 388.99C70.9072 388.738 71.3517 388.36 71.3517 387.856C71.3517 387.353 70.9072 386.982 70.0184 386.745C69.1295 386.493 67.9665 386.367 66.5295 386.367C65.0776 386.367 63.9072 386.493 63.0184 386.745C62.1295 386.982 61.685 387.353 61.685 387.856C61.685 388.36 62.1221 388.738 62.9961 388.99C63.885 389.227 65.0628 389.345 66.5295 389.345ZM84.216 373.812C86.3642 373.812 88.0901 374.064 89.3938 374.567C90.6975 375.056 91.3493 375.834 91.3493 376.901C91.3493 377.982 90.6975 378.775 89.3938 379.279C88.0901 379.767 86.3642 380.012 84.216 380.012C82.0679 380.012 80.3345 379.767 79.016 379.279C77.7123 378.775 77.0605 377.982 77.0605 376.901C77.0605 375.834 77.7123 375.056 79.016 374.567C80.3345 374.064 82.0679 373.812 84.216 373.812ZM84.216 375.39C82.7197 375.39 81.5049 375.516 80.5716 375.767C79.6382 376.005 79.1716 376.382 79.1716 376.901C79.1716 377.419 79.6308 377.805 80.5493 378.056C81.4827 378.293 82.7049 378.412 84.216 378.412C85.7271 378.412 86.9419 378.293 87.8605 378.056C88.7938 377.805 89.2605 377.419 89.2605 376.901C89.2605 376.382 88.7938 376.005 87.8605 375.767C86.9271 375.516 85.7123 375.39 84.216 375.39ZM76.1049 382.679V381.056H92.3271V382.679H76.1049ZM79.1938 387.99V389.301H91.5049V390.767H77.216V386.745H89.2605V385.456H77.1716V384.012H91.2382V387.99H79.1938ZM98.1415 376.656V375.101H102.497V373.412H104.542V375.101H108.986V376.656H98.1415ZM112.897 380.323V385.612H110.897V373.901H112.897V378.367H115.097V380.323H112.897ZM109.564 384.612C109.075 384.834 108.364 385.005 107.43 385.123C106.497 385.227 105.445 385.279 104.275 385.279H98.0971V383.679H102.542V382.501C101.386 382.397 100.482 382.123 99.8304 381.679C99.1934 381.234 98.8749 380.664 98.8749 379.967C98.8749 379.167 99.2971 378.538 100.142 378.079C101.001 377.605 102.142 377.367 103.564 377.367C104.986 377.367 106.119 377.605 106.964 378.079C107.808 378.538 108.23 379.167 108.23 379.967C108.23 380.664 107.897 381.234 107.23 381.679C106.579 382.123 105.675 382.397 104.519 382.501V383.679C106.919 383.649 108.601 383.427 109.564 383.012V384.612ZM100.742 379.967C100.742 380.308 100.993 380.582 101.497 380.79C102.016 380.997 102.704 381.101 103.564 381.101C104.408 381.101 105.082 380.997 105.586 380.79C106.09 380.582 106.342 380.308 106.342 379.967C106.342 379.627 106.09 379.353 105.586 379.145C105.082 378.938 104.408 378.834 103.564 378.834C102.704 378.834 102.016 378.938 101.497 379.145C100.993 379.353 100.742 379.627 100.742 379.967ZM112.897 386.501V390.99H110.875V388.123H99.1415V386.501H112.897ZM128.895 386.567V373.901H130.917V386.567H128.895ZM120.984 374.056C122.021 374.056 122.924 374.271 123.695 374.701C124.48 375.116 125.08 375.701 125.495 376.456C125.924 377.212 126.139 378.071 126.139 379.034C126.139 379.997 125.924 380.856 125.495 381.612C125.08 382.367 124.48 382.96 123.695 383.39C122.924 383.805 122.021 384.012 120.984 384.012C119.947 384.012 119.035 383.805 118.25 383.39C117.48 382.96 116.88 382.367 116.45 381.612C116.035 380.856 115.828 379.997 115.828 379.034C115.828 378.071 116.035 377.212 116.45 376.456C116.88 375.701 117.48 375.116 118.25 374.701C119.035 374.271 119.947 374.056 120.984 374.056ZM120.984 375.834C120.035 375.834 119.273 376.123 118.695 376.701C118.132 377.279 117.85 378.056 117.85 379.034C117.85 380.012 118.132 380.79 118.695 381.367C119.273 381.945 120.035 382.234 120.984 382.234C121.932 382.234 122.695 381.945 123.273 381.367C123.85 380.79 124.139 380.012 124.139 379.034C124.139 378.056 123.85 377.279 123.273 376.701C122.695 376.123 121.932 375.834 120.984 375.834ZM131.317 388.856V390.767H117.25V385.145H119.295V388.856H131.317ZM144.181 376.479V378.412H133.67V376.479H137.892V373.834H139.937V376.479H144.181ZM148.048 382.767V390.967H146.048V373.901H148.048V380.745H150.292V382.767H148.048ZM138.915 379.723C139.789 379.723 140.566 379.945 141.248 380.39C141.944 380.819 142.485 381.434 142.87 382.234C143.255 383.019 143.448 383.923 143.448 384.945C143.448 385.967 143.255 386.879 142.87 387.679C142.485 388.464 141.944 389.079 141.248 389.523C140.566 389.953 139.789 390.167 138.915 390.167C138.041 390.167 137.255 389.953 136.559 389.523C135.878 389.079 135.344 388.464 134.959 387.679C134.574 386.879 134.381 385.967 134.381 384.945C134.381 383.923 134.574 383.019 134.959 382.234C135.344 381.434 135.878 380.819 136.559 380.39C137.255 379.945 138.041 379.723 138.915 379.723ZM138.915 388.323C139.67 388.323 140.292 388.012 140.781 387.39C141.27 386.767 141.515 385.953 141.515 384.945C141.515 383.923 141.27 383.101 140.781 382.479C140.292 381.856 139.67 381.545 138.915 381.545C138.159 381.545 137.537 381.856 137.048 382.479C136.559 383.101 136.315 383.923 136.315 384.945C136.315 385.953 136.559 386.767 137.048 387.39C137.537 388.012 138.159 388.323 138.915 388.323ZM151.868 376.434V374.479H166.046V385.745H163.979V376.434H151.868ZM167.112 390.167H150.89V388.19H156.868V380.656H158.935V388.19H167.112V390.167ZM188.549 390.967H186.66V373.901H188.549V390.967ZM184.66 373.99V390.679H182.816V386.079H180.282C180.03 387.471 179.616 388.508 179.038 389.19C178.46 389.856 177.719 390.19 176.816 390.19C175.571 390.19 174.638 389.553 174.016 388.279C173.393 386.99 173.082 384.975 173.082 382.234C173.082 379.493 173.393 377.486 174.016 376.212C174.638 374.923 175.571 374.279 176.816 374.279C178.519 374.279 179.638 375.449 180.171 377.79H182.816V373.99H184.66ZM176.816 388.279C177.467 388.279 177.949 387.79 178.26 386.812C178.571 385.834 178.727 384.308 178.727 382.234C178.727 380.16 178.571 378.634 178.26 377.656C177.949 376.679 177.467 376.19 176.816 376.19C176.179 376.19 175.704 376.686 175.393 377.679C175.097 378.656 174.949 380.175 174.949 382.234C174.949 384.293 175.097 385.819 175.393 386.812C175.704 387.79 176.179 388.279 176.816 388.279ZM182.816 379.723H180.46C180.549 380.449 180.593 381.286 180.593 382.234C180.593 382.901 180.571 383.538 180.527 384.145H182.816V379.723ZM205.235 379.99H207.48V381.812H205.235V384.079H203.235V373.901H205.235V375.79H207.48V377.612H205.235V379.99ZM195.524 383.567C194.517 383.567 193.628 383.367 192.858 382.967C192.102 382.553 191.517 381.982 191.102 381.256C190.687 380.53 190.48 379.716 190.48 378.812C190.48 377.908 190.687 377.093 191.102 376.367C191.517 375.642 192.102 375.079 192.858 374.679C193.628 374.264 194.517 374.056 195.524 374.056C196.532 374.056 197.413 374.264 198.169 374.679C198.939 375.079 199.532 375.642 199.947 376.367C200.361 377.093 200.569 377.908 200.569 378.812C200.569 379.716 200.361 380.53 199.947 381.256C199.532 381.982 198.939 382.553 198.169 382.967C197.413 383.367 196.532 383.567 195.524 383.567ZM195.524 375.812C194.621 375.812 193.887 376.086 193.324 376.634C192.761 377.167 192.48 377.893 192.48 378.812C192.48 379.73 192.761 380.464 193.324 381.012C193.887 381.545 194.621 381.812 195.524 381.812C196.428 381.812 197.161 381.545 197.724 381.012C198.287 380.464 198.569 379.73 198.569 378.812C198.569 377.893 198.287 377.167 197.724 376.634C197.161 376.086 196.428 375.812 195.524 375.812ZM205.235 384.99V390.99H203.191V386.812H191.635V384.99H205.235ZM216.189 373.812C218.337 373.812 220.063 374.064 221.366 374.567C222.67 375.056 223.322 375.834 223.322 376.901C223.322 377.982 222.67 378.775 221.366 379.279C220.063 379.767 218.337 380.012 216.189 380.012C214.041 380.012 212.307 379.767 210.989 379.279C209.685 378.775 209.033 377.982 209.033 376.901C209.033 375.834 209.685 375.056 210.989 374.567C212.307 374.064 214.041 373.812 216.189 373.812ZM216.189 375.39C214.692 375.39 213.478 375.516 212.544 375.767C211.611 376.005 211.144 376.382 211.144 376.901C211.144 377.419 211.603 377.805 212.522 378.056C213.455 378.293 214.678 378.412 216.189 378.412C217.7 378.412 218.915 378.293 219.833 378.056C220.766 377.805 221.233 377.419 221.233 376.901C221.233 376.382 220.766 376.005 219.833 375.767C218.9 375.516 217.685 375.39 216.189 375.39ZM208.078 382.679V381.056H224.3V382.679H208.078ZM211.166 387.99V389.301H223.478V390.767H209.189V386.745H221.233V385.456H209.144V384.012H223.211V387.99H211.166ZM246.292 390.167H230.07V388.212H237.159V384.19H231.136V374.501H245.248V376.456H233.159V382.234H245.425V384.19H239.181V388.212H246.292V390.167ZM262.467 382.612V390.967H260.467V373.901H262.467V380.59H264.667V382.612H262.467ZM254.001 387.99C256.371 387.99 258.082 387.753 259.134 387.279V389.256C258.038 389.73 256.304 389.967 253.934 389.967H247.667V387.99H251.979V384.701C250.808 384.493 249.86 383.923 249.134 382.99C248.423 382.042 248.067 380.886 248.067 379.523C248.067 378.501 248.275 377.59 248.69 376.79C249.119 375.99 249.704 375.367 250.445 374.923C251.201 374.464 252.053 374.234 253.001 374.234C253.949 374.234 254.793 374.464 255.534 374.923C256.29 375.367 256.882 375.99 257.312 376.79C257.741 377.59 257.956 378.501 257.956 379.523C257.956 380.871 257.586 382.019 256.845 382.967C256.119 383.916 255.171 384.493 254.001 384.701V387.99ZM253.001 376.123C252.097 376.123 251.371 376.449 250.823 377.101C250.275 377.738 250.001 378.545 250.001 379.523C250.001 380.501 250.275 381.316 250.823 381.967C251.371 382.605 252.097 382.923 253.001 382.923C253.904 382.923 254.63 382.605 255.179 381.967C255.741 381.316 256.023 380.501 256.023 379.523C256.023 378.545 255.741 377.738 255.179 377.101C254.63 376.449 253.904 376.123 253.001 376.123ZM268.354 376.456V382.656H280.621V384.612H266.332V374.501H280.443V376.456H268.354ZM265.265 390.167V388.19H281.487V390.167H265.265ZM298.196 390.967H296.196V384.701H293.174V382.723H296.196V379.656H293.174V377.679H296.196V373.901H298.196V390.967ZM289.84 388.056C290.596 388.056 291.359 387.99 292.129 387.856C292.9 387.723 293.537 387.553 294.04 387.345V389.234C293.552 389.456 292.915 389.634 292.129 389.767C291.344 389.901 290.552 389.967 289.752 389.967H283.707V381.212H289.907V376.412H283.663V374.501H291.885V383.101H285.707V388.056H289.84ZM316.683 390.167H300.46V388.234H304.127V383.656C303.209 383.212 302.497 382.627 301.994 381.901C301.49 381.16 301.238 380.316 301.238 379.367C301.238 378.33 301.542 377.419 302.149 376.634C302.757 375.849 303.609 375.242 304.705 374.812C305.816 374.382 307.105 374.167 308.571 374.167C310.038 374.167 311.32 374.382 312.416 374.812C313.527 375.242 314.386 375.849 314.994 376.634C315.601 377.419 315.905 378.33 315.905 379.367C315.905 380.316 315.653 381.16 315.149 381.901C314.646 382.627 313.934 383.212 313.016 383.656V388.234H316.683V390.167ZM308.571 376.079C307.534 376.079 306.623 376.219 305.838 376.501C305.053 376.767 304.438 377.153 303.994 377.656C303.564 378.145 303.349 378.716 303.349 379.367C303.349 380.019 303.564 380.597 303.994 381.101C304.438 381.605 305.053 381.997 305.838 382.279C306.638 382.545 307.549 382.679 308.571 382.679C309.609 382.679 310.52 382.545 311.305 382.279C312.09 381.997 312.697 381.612 313.127 381.123C313.571 380.619 313.794 380.034 313.794 379.367C313.794 378.375 313.312 377.582 312.349 376.99C311.401 376.382 310.142 376.079 308.571 376.079ZM311.016 388.234V384.323C310.349 384.486 309.534 384.567 308.571 384.567C307.623 384.567 306.816 384.486 306.149 384.323V388.234H311.016Z" fill="#5E5E5E"/>
<defs>
<filter id="filter0_d_567_3877" x="27.064" y="0.190753" width="263.872" height="178.296" filterUnits="userSpaceOnUse" color-interpolation-filters="sRGB">
<feFlood flood-opacity="0" result="BackgroundImageFix"/>
<feColorMatrix in="SourceAlpha" type="matrix" values="0 0 0 0 0 0 0 0 0 0 0 0 0 0 0 0 0 0 127 0" result="hardAlpha"/>
<feOffset dy="-0.661333"/>
<feGaussianBlur stdDeviation="3.968"/>
<feComposite in2="hardAlpha" operator="out"/>
<feColorMatrix type="matrix" values="0 0 0 0 0 0 0 0 0 0 0 0 0 0 0 0 0 0 0.04 0"/>
<feBlend mode="normal" in2="BackgroundImageFix" result="effect1_dropShadow_567_3877"/>
<feBlend mode="normal" in="SourceGraphic" in2="effect1_dropShadow_567_3877" result="shape"/>
</filter>
</defs>
</svg>
